<?xml version="1.0" encoding="UTF-8" standalone="no"?>
<!-- Created with Inkscape (http://www.inkscape.org/) -->

<svg
   width="1500"
   height="500"
   viewBox="0 0 1500 500"
   version="1.1"
   id="svg5"
   inkscape:version="1.2.1 (9c6d41e410, 2022-07-14, custom)"
   sodipodi:docname="pabo.svg"
   inkscape:export-filename="../rasters/pabo.png"
   inkscape:export-xdpi="96"
   inkscape:export-ydpi="96"
   xmlns:inkscape="http://www.inkscape.org/namespaces/inkscape"
   xmlns:sodipodi="http://sodipodi.sourceforge.net/DTD/sodipodi-0.dtd"
   xmlns="http://www.w3.org/2000/svg"
   xmlns:svg="http://www.w3.org/2000/svg">
  <sodipodi:namedview
     id="namedview7"
     pagecolor="#505050"
     bordercolor="#ffffff"
     borderopacity="1"
     inkscape:showpageshadow="0"
     inkscape:pageopacity="0"
     inkscape:pagecheckerboard="1"
     inkscape:deskcolor="#505050"
     inkscape:document-units="px"
     showgrid="false"
     inkscape:zoom="1.1786667"
     inkscape:cx="548.50113"
     inkscape:cy="249.8586"
     inkscape:window-width="1910"
     inkscape:window-height="1070"
     inkscape:window-x="1920"
     inkscape:window-y="0"
     inkscape:window-maximized="1"
     inkscape:current-layer="layer1" />
  <defs
     id="defs2">
    <inkscape:path-effect
       effect="interpolate_points"
       id="path-effect8690"
       is_visible="true"
       lpeversion="1"
       interpolator_type="CentripetalCatmullRom" />
    <inkscape:path-effect
       effect="perspective-envelope"
       up_left_point="154.44109,195.08046"
       up_right_point="204.44109,195.08046"
       down_left_point="154.44109,275.05646"
       down_right_point="204.44109,275.05646"
       id="path-effect7823"
       is_visible="true"
       lpeversion="1"
       deform_type="perspective"
       horizontal_mirror="false"
       vertical_mirror="false"
       overflow_perspective="false" />
    <inkscape:path-effect
       effect="perspective-envelope"
       up_left_point="570.07934,55.50399"
       up_right_point="929.92066,55.50399"
       down_left_point="457.38343,444.08413"
       down_right_point="1042.6166,444.08413"
       id="path-effect2612"
       is_visible="true"
       lpeversion="1"
       deform_type="perspective"
       horizontal_mirror="false"
       vertical_mirror="false"
       overflow_perspective="false" />
  </defs>
  <g
     inkscape:label="Layer 1"
     inkscape:groupmode="layer"
     id="layer1">
    <rect
       style="fill:#666666;stroke:#000000;stroke-width:1.1556"
       id="rect111"
       width="1498.8444"
       height="498.84439"
       x="0.57781982"
       y="0.57780457"
       sodipodi:insensitive="true" />
    <g
       id="g8531"
       transform="translate(454.54615,1.0527541e-5)">
      <g
         aria-label="바보"
         id="g2618"
         style="font-size:458.647px;fill:#000000;stroke:#000000;stroke-width:1.86298"
         transform="matrix(1.0442162,0,0,1.0442162,-490.1991,13.54219)">
        <path
           d="m 683.11513,94.936968 c 0.10773,-1.062741 0.11546,-2.122062 0.0237,-3.177979 l 0.35238,-3.460607 c -0.0346,-3.527527 0.20403,-6.812922 0.71186,-9.862942 0.6971,-3.021371 1.02161,-6.213041 0.97877,-9.569509 0.009,-1.957923 0.103,-3.806777 0.28192,-5.548369 l 0.61851,-6.020461 0.9347,-0.850659 c 1.71323,-0.188719 3.14316,-0.377324 4.29004,-0.565814 1.35164,-0.376638 2.4882,-0.470726 3.41131,-0.282521 2.77271,0.565299 5.57314,0.848335 8.3975,0.848335 h 3.10679 l 4.20047,0.566847 c 0.51787,0.757407 0.75362,1.516661 0.70622,2.277769 -0.0356,0.572051 -0.17203,1.240772 -0.40961,2.006779 -0.50134,1.923252 -0.80866,3.761317 -0.92011,5.512592 0.0799,1.76104 0.0578,3.6306 -0.0674,5.610517 -0.39589,3.193664 -0.69823,6.419499 -0.90561,9.677992 l -0.65506,10.293193 c -0.27062,4.252368 -0.64566,8.560119 -1.12716,12.924339 -0.26916,4.19933 -0.65177,8.56425 -1.15026,13.10018 -0.35656,5.52379 -0.82416,11.13761 -1.40552,16.84369 -0.37707,5.80063 -0.86022,11.57431 -1.45184,17.31734 -0.0825,1.26077 -0.28276,2.65274 -0.60148,4.17742 l -0.27857,4.22636 c -0.42557,3.10494 -0.86352,6.36763 -1.31424,9.79195 -0.43703,3.18947 -0.65299,6.4067 -0.64498,9.65208 -0.0284,3.82235 -0.39013,7.54549 -1.08999,11.16589 -0.47628,3.65539 -0.73535,7.48895 -0.77406,11.50555 1.35861,0.57725 2.38818,0.8662 3.08716,0.8662 3.92735,0.57855 7.87595,0.86816 11.84135,0.86816 3.9654,0 7.94164,-0.28961 11.92422,-0.86816 1.41557,-0.57768 2.79595,0 4.1473,1.73828 l -0.27221,10.14965 c -0.0964,3.59327 -0.0742,7.21976 0.068,10.87996 0.18383,2.15086 0.11939,4.62334 -0.19572,7.42336 -0.30897,2.50549 -0.37199,4.8687 -0.18685,7.08697 -0.50574,0.63604 -1.13021,1.11373 -1.87323,1.4325 -0.73418,0 -1.47807,0.31903 -2.23258,0.95784 -0.51049,0.63982 -1.134,0.96011 -1.86993,0.96011 -0.72486,-0.32029 -1.46617,-0.16018 -2.22526,0.48092 -1.74289,0.6421 -3.35262,0.96353 -4.82709,0.96353 -1.47448,0 -3.06442,-0.16075 -4.76882,-0.48206 -2.17772,-0.64185 -4.38637,-0.64185 -6.6312,0 -2.22939,0.32131 -4.59341,0.80375 -7.09372,1.4479 -0.3515,1.61484 -0.59153,3.39861 -0.71949,5.35348 l -0.35508,5.42455 c -0.11979,5.66477 -0.36762,11.4081 -0.74617,17.23164 -0.38388,5.90542 -1.03133,11.89448 -1.94798,17.96896 l -0.10694,1.62248 c -0.6943,6.55176 -1.27939,13.39042 -1.75305,20.52727 -0.18716,6.8697 -0.51271,13.84751 -0.97993,20.936 -0.0786,1.19235 -0.30746,2.58743 -0.68744,4.18711 l -0.24026,3.62005 -1.86506,28.10191 c -0.43024,6.48255 -1.0104,13.05542 -1.74365,19.72053 -0.45167,6.75931 -1.05678,13.61482 -1.81862,20.5686 -0.18902,2.80952 -0.23021,5.63523 -0.1223,8.47728 0.10855,2.85853 0.0516,5.97405 -0.17258,9.35127 0.31527,4.37607 -0.11092,8.54453 -1.28755,12.49969 -1.22126,0 -2.45969,0.24823 -3.71625,0.74506 -1.2578,0.49732 -2.32771,0.49732 -3.20815,0 -3.58972,-0.99318 -7.07992,-1.24116 -10.47843,-0.74506 -3.44531,0.99366 -6.85223,1.49122 -10.21564,1.49122 h -1.83459 c -2.65377,-0.99464 -4.08524,-3.47269 -4.29709,-7.41233 0.4926,-4.88134 0.98508,-8.27007 1.47959,-10.19616 1.06466,-7.63022 1.81721,-15.14389 2.26476,-22.54365 l 2.16405,-21.54114 c 0.78691,-7.833 1.44109,-15.74974 1.96542,-23.74274 l 2.21872,-21.98587 2.4585,-32.1938 1.00452,-9.86524 c 0.51643,-2.52122 0.75276,-4.84914 0.71143,-6.98679 0.25257,-2.48045 0.37526,-4.9465 0.36918,-7.39829 -0.0417,-2.09027 0.0443,-4.17023 0.2569,-6.23995 0.46518,-2.05956 0.92807,-4.10902 1.3887,-6.14847 l 0.20666,-2.02951 c 0.32019,-0.67431 0.5142,-1.34752 0.58234,-2.01965 -0.0256,-4.67451 0.33839,-9.4607 1.08488,-14.35377 0.73763,-4.83497 1.08466,-9.4545 1.04795,-13.86498 -0.22807,-2.49864 0.0843,-4.36241 0.93408,-5.60009 0.6378,-1.5417 1.09501,-3.69006 1.37204,-6.4352 -0.31642,-3.93174 0.0224,-8.41991 1.00452,-13.44481 0.91162,-6.69624 1.66357,-12.99395 2.26057,-18.90982 0.84284,-6.09985 1.46035,-12.23736 1.85769,-18.40828 0.2942,-2.91526 0.68377,-5.67659 1.16785,-8.28721 0.70089,-2.59205 1.19012,-5.29395 1.46977,-8.10305 l 0.10291,-7.55156 0.74292,-7.39506 c 0.59262,-10.09932 1.58455,-19.91388 2.95914,-29.45557 -0.16208,-2.45534 -0.0746,-5.33423 0.25903,-8.62563 0.53192,-3.25929 0.81481,-6.058406 0.85238,-8.408542 z M 578.79757,283.37303 c 2.24347,0.352 4.30082,0.352 6.16947,0 2.12407,-0.35171 4.21304,-0.52746 6.26825,-0.52746 0.5138,0 1.25186,0.17575 2.21476,0.52746 1.28531,0 2.21703,-0.17589 2.79481,-0.52746 0.69795,-3.84804 1.00771,-7.6613 0.93454,-11.44026 0.2419,-4.08392 0.58046,-6.61618 1.01666,-7.62477 0.55756,-1.67554 1.04867,-3.67727 1.4732,-6.00042 0.67075,-2.31009 1.18395,-4.4436 1.54115,-6.40316 l 1.65514,-11.08779 0.69192,-3.78636 c 0.47166,-1.25421 0.67129,-2.34843 0.60011,-3.28396 -1.26673,0.3116 -2.65547,0.62345 -4.16636,0.93553 -1.51207,0.31233 -2.51084,0.46858 -2.99542,0.46858 -2.05955,0.62564 -4.90982,0.93883 -8.5484,0.93883 -3.33146,-0.31319 -5.93317,-0.62613 -7.80599,-0.93883 -1.62916,-0.31244 -3.32451,-0.31244 -5.08803,0 -1.52252,0.3127 -3.25395,0.46914 -5.19338,0.46914 h -1.45458 c -0.65619,-0.31282 -1.26202,-0.31282 -1.81822,0 l -0.67316,6.14925 c -0.0181,2.23054 -0.67358,5.11659 -1.97501,8.67209 -1.23812,3.25943 -1.87546,6.05052 -1.9047,8.3634 -0.0294,2.32595 -0.43526,4.66509 -1.22081,7.01751 -0.71292,2.02704 -1.13779,3.89387 -1.27242,5.59827 -0.2332,1.02599 -0.82842,3.08555 -1.79055,6.19397 l -1.31157,5.75898 c 3.51804,0.35157 7.11615,0.35157 10.78985,0 3.92745,-0.35126 7.61479,-0.17566 11.06874,0.52746 z m 7.48285,-130.79535 c -0.32616,4.30477 -1.42642,8.66152 -3.31489,13.07118 -0.52067,1.30717 -0.96223,2.75047 -1.32445,4.33148 -0.0799,1.32274 -0.27193,2.65024 -0.57657,3.98253 l -0.55112,2.41031 c -0.0211,1.0763 -0.32935,2.42608 -0.92657,4.05231 -0.37347,1.63337 -0.79933,2.99998 -1.27741,4.09687 -0.47948,1.10012 -0.94166,2.61806 -1.3872,4.5589 l -1.05935,4.6147 c 0.10076,0.5632 0.0542,1.26837 -0.14004,2.11631 1.02373,0.56635 2.26055,0.70807 3.7085,0.42469 1.74025,-0.56614 3.1854,-0.84889 4.33738,-0.84889 2.13459,-0.28254 5.50397,-0.42374 10.10934,-0.42374 4.66166,-0.28223 8.33927,-0.84605 11.03096,-1.69022 0.51312,-0.28098 1.52004,-0.14052 3.02271,0.42185 1.55707,0.2815 2.6178,0.14072 3.18072,-0.42185 0.28114,-0.28098 0.62656,-1.54279 1.03459,-3.77565 0.68403,-2.49628 1.27501,-5.11338 1.7736,-7.84861 l 1.47417,-8.08717 1.08484,-5.95131 2.99786,-14.65593 c 0.22868,-1.25767 0.32541,-2.38582 0.29084,-3.38564 0.2271,-1.24585 0.56129,-2.48736 1.00201,-3.72456 0.48386,-1.47898 0.77345,-3.07427 0.86993,-4.78427 0.096,-1.70176 0.18793,-2.79141 0.27601,-3.27462 0.30734,-1.68603 0.80336,-3.24439 1.48708,-4.67674 0.42304,0 1.24774,0.11913 2.47473,0.35753 1.48142,0 2.89843,-0.2384 4.24963,-0.71471 0.67491,-0.23791 1.73163,-0.23791 3.17123,0 1.65207,0.23808 3.32462,0.35718 5.01681,0.35718 h 0.95186 1.58642 c 0.67159,-0.23816 1.21864,-0.35718 1.64147,-0.35718 1.47991,0 3.0477,0.11902 4.70423,0.35718 h 5.39385 c 2.57066,-0.23816 4.8067,-0.35718 6.70943,-0.35718 1.93302,-0.23791 3.92598,-0.11897 5.98198,0.35718 0.36547,0.47679 0.39931,1.07371 0.10069,1.79135 l -0.2614,2.16181 c -0.35901,1.20679 -0.64199,2.66042 -0.84875,4.36394 0.007,1.71177 -0.2462,3.80154 -0.76172,6.27595 -0.88859,3.7441 -1.39733,7.02097 -1.51991,9.81721 -0.0923,2.56096 -0.45294,5.5286 -1.0858,8.91273 -0.63879,3.41573 -1.12287,6.46405 -1.44952,9.1354 -0.0709,2.42081 -0.10922,4.58596 -0.11464,6.49086 0.0609,1.36661 -0.13844,3.01316 -0.59998,4.94332 -0.43012,1.66235 -0.7647,3.47153 -1.00325,5.42963 -0.41183,3.38047 -0.74633,7.07686 -1.00274,11.09798 -0.025,4.06365 -0.31447,7.43394 -0.87101,10.09214 -0.10763,0.89012 -0.40589,2.37818 -0.89655,4.47105 l -0.77028,6.34645 -0.89575,7.38024 -0.74023,6.09884 c -0.17824,3.48175 -0.39678,7.31463 -0.65645,11.50826 -0.26237,4.23726 -0.73708,8.18791 -1.42664,11.843 -1.2744,6.39042 -2.50434,13.39717 -3.69095,21.04901 -1.20845,7.7926 -2.24183,15.18403 -3.09359,22.14966 l -1.37327,11.23043 c -0.19766,3.80823 -0.53163,7.64955 -1.00369,11.52438 -0.0949,0.77903 -0.39689,2.14561 -0.9075,4.10513 -0.24067,1.96814 -0.54607,3.35098 -0.9159,4.14308 -5.50807,0.39659 -10.8577,0.59501 -16.04527,0.59501 -5.18756,0 -10.19247,0.59578 -15.02429,1.78972 -0.67273,0.79771 -2.48435,0.99736 -5.432,0.59816 -2.67141,-0.39886 -4.51993,-0.79737 -5.54665,-1.19553 -0.2734,0 -1.16138,0.39816 -2.66595,1.19553 -1.43797,0.3992 -2.63553,0.19955 -3.59045,-0.59816 -1.8542,1.1971 -3.84365,1.59684 -5.96323,1.1971 -1.84389,-0.39939 -3.76059,-0.39939 -5.75263,0 l -3.17205,-0.59894 c -1.21424,-0.79737 -3.40233,-0.79737 -6.57008,0 l -17.80524,-1.19553 c -2.54903,0.39816 -5.19224,0.59737 -7.92797,0.59737 -2.64361,-0.39834 -4.60157,-0.79632 -5.87478,-1.19395 h -6.14723 -6.96686 c -2.4589,0 -4.83185,0.19877 -7.12036,0.59658 h -4.92105 l -16.98164,0.59737 h -2.05179 c -0.70737,-0.39834 -1.3342,-0.59737 -1.88098,-0.59737 -0.0458,-0.79525 -0.14829,-1.39077 -0.3075,-1.78736 l 0.51065,-1.78028 c 0.29332,-1.96987 0.6416,-4.12676 1.0442,-6.46793 l 2,-6.95054 c 1.74089,-4.19449 2.90904,-8.7252 3.51174,-13.58116 0.85873,-4.80245 1.91674,-9.37054 3.17156,-13.71083 0.93287,-3.22666 1.72972,-6.42913 2.39209,-9.60769 l 2.8698,-9.9107 0.7441,-2.56971 c 0.29636,-1.02347 0.46567,-2.04444 0.50838,-3.06292 0.39272,-1.35411 0.90993,-2.70382 1.55103,-4.04916 l 5.27771,-18.22635 c 1.90605,-5.74028 3.87546,-11.71189 5.90456,-17.9028 l 2.75909,-9.55841 c 1.20502,-4.17457 2.32224,-8.45156 3.35247,-12.82688 1.01866,-4.32616 2.21567,-8.46217 3.58884,-12.41338 0.64746,-2.23948 1.0565,-4.04934 1.22953,-5.43565 0.17238,-1.38121 0.84393,-3.30641 2.00934,-5.76722 0.61905,-1.36014 1.01044,-2.71533 1.17541,-4.0656 l 1.27825,-4.42133 1.83233,-6.33782 c 0.15643,-1.3067 0.83155,-3.25803 2.01941,-5.84364 0.51672,-1.02911 0.77568,-1.92719 0.77799,-2.69521 l 0.99182,-3.43599 c 0.51058,-1.76881 0.91013,-3.52894 1.19947,-5.28046 0.50391,-1.74298 0.86188,-3.35386 1.07509,-4.83437 0.3559,-1.22906 0.88846,-2.69833 1.59605,-4.40479 0.70417,-1.69824 1.22908,-3.14738 1.57635,-4.35044 0.70627,-0.24012 1.73043,-0.48007 3.07215,-0.71986 1.62055,-0.47909 3.06586,-0.71839 4.3376,-0.71839 h 12.08159 c 3.39132,0 7.90225,-0.23913 13.52702,-0.7169 1.32783,-0.23865 2.8095,-0.23865 4.44655,0 1.84997,0.2388 3.48932,0.47777 4.91784,0.7169 0.0479,0.71839 -0.14389,1.55837 -0.57639,2.52082 l -0.49736,2.17521 c -0.0639,1.21428 -0.34657,2.92133 -0.85019,5.12828 -0.50678,2.22078 -1.03961,4.08208 -1.59786,5.57815 z"
           style="font-family:'Kirang Haerang';-inkscape-font-specification:'Kirang Haerang';fill:#000000;stroke:#000000"
           id="path2614" />
        <path
           d="m 891.30342,127.43838 c -0.23879,-1.16992 -0.53846,-3.14974 -0.89742,-5.92555 -0.40289,-2.982 -0.79947,-4.91781 -1.19156,-5.82498 -0.43717,-1.13058 -0.54155,-2.1449 -0.31469,-3.04397 0.18025,-1.12049 0.67977,-1.67935 1.49902,-1.67935 0.61444,0 2.07167,0.1117 4.37284,0.33521 2.45896,0 4.97087,-0.22351 7.53318,-0.67009 1.17757,-0.22306 2.91704,-0.22306 5.22013,0 2.45653,0 4.9399,0.11159 7.45134,0.33488 2.45775,0 4.94358,0.1117 7.45875,0.33521 2.45894,0 4.47882,-0.11178 6.05886,-0.33521 0.96474,-0.22329 1.75764,0.44701 2.38133,2.01623 0.56627,1.35084 0.83786,2.36752 0.81305,3.04699 0.10732,2.73154 0.80318,6.52338 2.10061,11.41063 l 1.25444,3.53366 0.47346,1.78039 c 0.63505,2.38808 1.35895,4.31034 2.17095,5.75898 0.19387,0.72656 0.34615,1.69766 0.4568,2.9153 0.11109,1.22184 0.42798,2.81658 0.95256,4.78924 l 7.37867,27.74692 c 0.13124,1.33713 0.73288,4.02594 1.81336,8.09599 1.24674,3.83915 2.05929,6.46685 2.42904,7.85726 0.96775,3.63917 2.02257,7.17163 3.16509,10.59388 1.38585,3.45313 2.35509,7.08344 2.90236,10.8955 0.39462,3.2551 1.0298,6.53761 1.90859,9.84789 0.80537,3.03373 1.89786,6.24446 3.28162,9.63621 0.40648,0.6198 0.73426,1.39592 0.98331,2.32925 l 0.49985,1.87325 c 0.0243,2.82641 0.41934,6.14925 1.19046,9.98062 0.69277,3.54421 1.13849,6.63018 1.33353,9.24712 0.0866,0.32829 -0.24276,0.49254 -0.98801,0.49254 -0.90782,0.32869 -2.76819,0.82222 -5.58397,1.48119 -2.90334,0.32988 -5.43387,0.16491 -7.58722,-0.49433 -3.14393,-0.65817 -6.20444,-0.98686 -9.1853,-0.98686 -2.80856,-0.32843 -5.73897,-0.6566 -8.79108,-0.9845 h -18.60805 c -2.16768,0.3279 -4.36933,0.49196 -6.60363,0.49196 -2.29694,-0.32804 -4.43714,-0.49196 -6.42201,-0.49196 -2.4211,0.3279 -3.42376,1.64215 -3.00476,3.95224 l 2.00748,11.06805 c 0.49482,2.72817 1.24518,6.16358 2.25612,10.32351 0.50844,2.79626 0.85946,5.43463 1.05136,7.91199 l 1.75796,9.6924 c 0.13182,0.72674 0.62309,1.2726 1.47418,1.63689 1.11355,0.36459 2.19424,0.547 3.24138,0.547 2.28709,-0.36474 4.51132,-0.36474 6.67551,0 2.35606,0 5.01038,0.18249 7.96483,0.54771 h 2.75048 c 1.19962,0.73135 2.64157,0.73135 4.32218,0 1.93951,-0.73011 3.69289,-1.09471 5.2626,-1.09471 h 7.06372 c 3.40104,0 7.67252,0.3646 12.82094,1.09471 6.11529,0.36552 12.1427,0.36552 18.07458,0 4.61769,-0.36522 8.67622,-0.36522 12.18074,0 1.41098,0.36552 3.32539,0.18272 5.73927,-0.54771 2.67135,-0.72919 4.3975,-1.09332 5.18183,-1.09332 0.73366,0.72857 1.25952,1.64103 1.57732,2.73852 l 0.7981,2.75597 c 0.2136,0.73789 0.3494,1.66202 0.4072,2.77357 l 0.969,3.35178 c 1.1335,3.00108 2.4161,6.97141 3.854,11.93712 1.6118,4.63366 2.6851,8.33648 3.2097,11.08463 0.4134,2.36903 1.0447,4.55165 1.8953,6.54506 1.1288,2.00224 1.5371,3.4091 1.2205,4.21498 -0.042,0.80732 -0.5553,1.41375 -1.5416,1.81848 h -2.4819 -6.2047 c -2.5932,-0.40473 -4.52264,-0.40473 -5.79098,0 -5.02421,0.81055 -10.85328,1.21638 -17.48049,1.21638 -6.62714,0 -12.52257,-0.40583 -17.67939,-1.21638 -2.85061,-0.40473 -6.57176,-0.40473 -11.16842,0 -4.41221,0 -10.28794,-0.40474 -17.61739,-1.21312 h -0.82618 c -2.31871,0.80838 -4.76003,1.01071 -7.31913,0.60616 -2.55684,-0.4042 -5.03595,-0.4042 -7.44065,0 l -10.53832,1.21474 c -0.55189,0 -1.2071,0.20277 -1.96613,0.6086 -0.55227,0 -1.27683,-0.20296 -2.17308,-0.6086 h -7.45059 c -2.48353,0 -4.99829,-0.20268 -7.54258,-0.60778 -2.20611,0 -3.69299,0.2025 -4.46114,0.60778 -0.76884,0.40564 -1.76438,0.20277 -2.98448,-0.60778 -1.04554,0.4051 -1.92542,1.01342 -2.63989,1.82577 -0.77238,0.40673 -1.60169,0.40673 -2.48685,0 -3.09392,-0.40635 -6.15856,-0.60939 -9.19601,-0.60939 h -8.69816 -9.52656 c -4.14198,0 -8.26403,0.20304 -12.36888,0.60939 -4.14475,0 -8.46196,-0.40636 -12.94562,-1.21799 l -23.65868,-1.21474 c -3.85811,0 -7.84491,0.20223 -11.96315,0.60696 h -13.23664 c -1.65458,0 -2.64304,-1.01116 -2.96431,-3.02676 l -0.0547,-2.40696 c 0.24651,-1.19869 0.34645,-2.79201 0.30046,-4.77578 -0.0458,-1.97505 -0.23163,-4.13762 -0.5564,-6.48494 -0.33177,-2.72303 -0.52699,-5.42952 -0.58691,-8.1196 l -0.11454,-5.14224 c 0.22403,-1.88941 0.32286,-3.39511 0.29727,-4.52099 l -0.89358,-4.47478 c -0.0323,-1.48143 0.20668,-2.58921 0.71628,-3.32617 0.50873,-0.7357 1.94455,-1.10308 4.30809,-1.10308 2.61488,-0.36707 4.58973,-0.18358 5.92793,0.55119 1.34045,0.73601 3.58313,0.92021 6.72431,0.55189 3.40136,-0.36801 5.75791,-0.55189 7.07183,-0.55189 h 7.09516 c 2.60517,-0.36754 4.82609,-0.55119 6.6644,-0.55119 3.67664,0 6.71034,0.18365 9.10262,0.55119 2.62784,0 5.37181,-0.18381 8.23009,-0.55119 1.05046,0 2.21591,-0.18357 3.49552,-0.55049 1.54087,-0.36661 3.09766,-0.5498 4.67136,-0.5498 l 3.20213,0.5498 h 5.51145 c 1.79754,-0.36661 3.63392,-0.36661 5.51145,0 h 4.33042 c 1.79337,-0.36661 3.3452,-0.5498 4.65662,-0.5498 h 7.8685 l 0.64117,-1.09749 -0.72288,-5.44598 c -0.9253,-5.02137 -1.51251,-9.45538 -1.76797,-13.31939 l -0.82929,-6.24766 c -0.20211,-3.43119 -0.43837,-6.15601 -0.70901,-8.188 l -1.06949,-8.0298 c -0.3814,-0.99283 -0.74001,-1.81836 -1.07612,-2.4776 -0.0871,-0.65817 -0.54645,-1.31529 -1.37725,-1.97136 -7.23513,-0.32763 -13.93134,-0.32763 -20.09669,0 h -0.37216 c -2.76279,-0.32763 -5.27547,-0.65501 -7.53832,-0.98213 -2.26104,-0.32685 -4.73814,-0.32685 -7.43429,0 h -4.08886 c -1.5133,-0.32685 -2.99957,-0.32685 -4.46057,0 l -15.49758,1.96663 c -1.96892,0.32869 -3.45995,0.32869 -4.4713,0 -0.76224,-0.32843 -2.17726,-1.31213 -4.23933,-2.9464 -0.80354,-1.30273 -1.28695,-3.73417 -1.45109,-7.27418 -0.20685,-4.46112 -0.53998,-9.03001 -0.99706,-13.7022 -0.21202,-4.61796 -0.54078,-9.18264 -0.98427,-13.69493 l -0.42317,-9.30933 c -0.14542,-3.19888 -0.40576,-6.37139 -0.77961,-9.51784 l -0.43667,-9.70298 c -0.14929,-3.31737 -0.17793,-6.46923 -0.0875,-9.45936 l -0.34715,-7.63697 c 0.1143,-2.3792 0.13503,-4.35017 0.063,-5.91933 -0.10749,-2.34118 -0.3596,-5.43951 -0.75371,-9.27553 l -0.42798,-9.41481 -1.7614,-31.94947 c -0.0305,-0.67745 0.0419,-1.35354 0.21686,-2.02829 0.1746,-0.67342 0.34886,-1.34549 0.52278,-2.01623 2.00405,-0.89226 3.41864,-1.22625 4.24814,-1.00362 1.02254,0 2.26208,0.22276 3.72006,0.66874 1.44643,0.22322 3.18003,0.11159 5.19807,-0.33454 h 3.68298 c 1.21135,-0.22284 2.4219,-0.44553 3.63164,-0.66809 h 3.37272 c 1.61652,-0.2224 3.13945,-0.33355 4.56959,-0.33355 1.63445,0 3.07495,0.11115 4.32212,0.33355 h 3.0661 c 1.02204,0 2.15771,0.11126 3.40763,0.33389 1.25075,0.22276 2.21938,0.66874 2.90632,1.33883 0.0973,0.8955 0.1043,1.90578 0.0206,3.03187 l 0.59046,5.45767 c 0.17401,1.60838 0.25711,3.34005 0.24865,5.19683 -0.21813,1.86682 -0.12216,3.74377 0.29049,5.63095 0.41491,1.89746 0.83208,3.80531 1.25154,5.72363 l 0.31346,2.89729 c 0.31873,0.97109 0.39794,1.70116 0.23679,2.18873 -0.24393,1.71177 -0.31357,3.06257 -0.20783,4.0482 0.3216,0.98839 0.56291,2.22774 0.72375,3.72068 0.0807,0.74882 0.44618,1.12382 1.0964,1.12382 h 1.95065 c 0.83869,-0.25005 1.58275,-0.375 2.23263,-0.375 h 8.44838 1.29976 c 0.61751,-0.24978 1.26716,-0.24978 1.94962,0 2.16626,0 4.56634,0.12495 7.20165,0.375 2.60087,0 5.11194,0.12508 7.53449,0.37538 h 1.95168 c 0.61164,-0.2503 1.24241,-0.37538 1.89263,-0.37538 1.65407,-0.49992 3.38677,-0.49992 5.20173,0 h 8.12771 5.52685 c 2.16739,0 4.27384,0.25021 6.3215,0.75117 1.56751,0.25075 2.56876,0.37618 3.00292,0.37618 0.38475,-0.25083 1.46977,-0.25083 3.25621,0 1.30248,0 2.0367,-0.12543 2.20256,-0.37618 l -0.61135,-2.99528 -0.8323,-4.07782 c -0.13593,-1.71592 -0.47758,-3.90995 -1.02236,-6.57311 -0.54067,-2.64312 -1.32846,-5.97845 -2.35743,-9.98599 z m -59.09415,61.22614 0.64112,5.87655 0.32433,2.97278 0.37378,3.42609 c 0.12534,1.14889 0.44632,3.02319 0.96529,5.63356 0.29778,0.58249 0.3779,1.31184 0.2398,2.18888 l 0.19282,1.76007 c 2.65125,0.58848 4.90233,0.73574 6.74919,0.44128 2.08047,-0.29424 4.29504,-0.44128 6.64487,-0.44128 0.93994,0 4.83673,0.14704 11.69427,0.44128 6.8184,0 14.55364,-0.14715 23.20079,-0.44128 3.9427,-0.29389 8.22442,1e-5 12.8553,0.88305 4.58416,0.58981 8.5275,0.88505 11.82477,0.88505 0.35074,-0.59026 0.49584,-1.03236 0.43574,-1.32682 -0.41943,-2.05498 -1.22043,-5.40748 -2.39402,-10.02379 l -2.15986,-10.60571 -1.85178,-9.09294 h -10.17494 c -3.44212,-0.27213 -6.79336,-0.67995 -10.05204,-1.22301 h -1.35444 c -1.0816,0.27143 -2.18736,0.40721 -3.31667,0.40721 h -3.38794 -8.80864 c -2.93622,0 -5.85257,0.13585 -8.75064,0.40768 h -17.28794 c -0.67796,0 -1.45298,0.13599 -2.32555,0.40812 h -2.37415 c -1.35666,0 -2.38907,-0.13609 -3.09683,-0.40812 l 0.44559,4.10136 c 0.34722,1.10133 0.5966,2.34419 0.74778,3.72999 z"
           style="font-family:'Kirang Haerang';-inkscape-font-specification:'Kirang Haerang';fill:#000000;stroke:#000000"
           id="path2616" />
      </g>
      <g
         aria-label="바보"
         id="text275"
         style="font-size:458.647px;fill:#ffffff;stroke:#000000;stroke-width:1.86298"
         transform="matrix(1.0442162,0,0,1.0442162,-490.1991,-35.21859)">
        <path
           d="m 683.11513,94.936968 c 0.10773,-1.062741 0.11546,-2.122062 0.0237,-3.177979 l 0.35238,-3.460607 c -0.0346,-3.527527 0.20403,-6.812922 0.71186,-9.862942 0.6971,-3.021371 1.02161,-6.213041 0.97877,-9.569509 0.009,-1.957923 0.103,-3.806777 0.28192,-5.548369 l 0.61851,-6.020461 0.9347,-0.850659 c 1.71323,-0.188719 3.14316,-0.377324 4.29004,-0.565814 1.35164,-0.376638 2.4882,-0.470726 3.41131,-0.282521 2.77271,0.565299 5.57314,0.848335 8.3975,0.848335 h 3.10679 l 4.20047,0.566847 c 0.51787,0.757407 0.75362,1.516661 0.70622,2.277769 -0.0356,0.572051 -0.17203,1.240772 -0.40961,2.006779 -0.50134,1.923252 -0.80866,3.761317 -0.92011,5.512592 0.0799,1.76104 0.0578,3.6306 -0.0674,5.610517 -0.39589,3.193664 -0.69823,6.419499 -0.90561,9.677992 l -0.65506,10.293193 c -0.27062,4.252368 -0.64566,8.560119 -1.12716,12.924339 -0.26916,4.19933 -0.65177,8.56425 -1.15026,13.10018 -0.35656,5.52379 -0.82416,11.13761 -1.40552,16.84369 -0.37707,5.80063 -0.86022,11.57431 -1.45184,17.31734 -0.0825,1.26077 -0.28276,2.65274 -0.60148,4.17742 l -0.27857,4.22636 c -0.42557,3.10494 -0.86352,6.36763 -1.31424,9.79195 -0.43703,3.18947 -0.65299,6.4067 -0.64498,9.65208 -0.0284,3.82235 -0.39013,7.54549 -1.08999,11.16589 -0.47628,3.65539 -0.73535,7.48895 -0.77406,11.50555 1.35861,0.57725 2.38818,0.8662 3.08716,0.8662 3.92735,0.57855 7.87595,0.86816 11.84135,0.86816 3.9654,0 7.94164,-0.28961 11.92422,-0.86816 1.41557,-0.57768 2.79595,0 4.1473,1.73828 l -0.27221,10.14965 c -0.0964,3.59327 -0.0742,7.21976 0.068,10.87996 0.18383,2.15086 0.11939,4.62334 -0.19572,7.42336 -0.30897,2.50549 -0.37199,4.8687 -0.18685,7.08697 -0.50574,0.63604 -1.13021,1.11373 -1.87323,1.4325 -0.73418,0 -1.47807,0.31903 -2.23258,0.95784 -0.51049,0.63982 -1.134,0.96011 -1.86993,0.96011 -0.72486,-0.32029 -1.46617,-0.16018 -2.22526,0.48092 -1.74289,0.6421 -3.35262,0.96353 -4.82709,0.96353 -1.47448,0 -3.06442,-0.16075 -4.76882,-0.48206 -2.17772,-0.64185 -4.38637,-0.64185 -6.6312,0 -2.22939,0.32131 -4.59341,0.80375 -7.09372,1.4479 -0.3515,1.61484 -0.59153,3.39861 -0.71949,5.35348 l -0.35508,5.42455 c -0.11979,5.66477 -0.36762,11.4081 -0.74617,17.23164 -0.38388,5.90542 -1.03133,11.89448 -1.94798,17.96896 l -0.10694,1.62248 c -0.6943,6.55176 -1.27939,13.39042 -1.75305,20.52727 -0.18716,6.8697 -0.51271,13.84751 -0.97993,20.936 -0.0786,1.19235 -0.30746,2.58743 -0.68744,4.18711 l -0.24026,3.62005 -1.86506,28.10191 c -0.43024,6.48255 -1.0104,13.05542 -1.74365,19.72053 -0.45167,6.75931 -1.05678,13.61482 -1.81862,20.5686 -0.18902,2.80952 -0.23021,5.63523 -0.1223,8.47728 0.10855,2.85853 0.0516,5.97405 -0.17258,9.35127 0.31527,4.37607 -0.11092,8.54453 -1.28755,12.49969 -1.22126,0 -2.45969,0.24823 -3.71625,0.74506 -1.2578,0.49732 -2.32771,0.49732 -3.20815,0 -3.58972,-0.99318 -7.07992,-1.24116 -10.47843,-0.74506 -3.44531,0.99366 -6.85223,1.49122 -10.21564,1.49122 h -1.83459 c -2.65377,-0.99464 -4.08524,-3.47269 -4.29709,-7.41233 0.4926,-4.88134 0.98508,-8.27007 1.47959,-10.19616 1.06466,-7.63022 1.81721,-15.14389 2.26476,-22.54365 l 2.16405,-21.54114 c 0.78691,-7.833 1.44109,-15.74974 1.96542,-23.74274 l 2.21872,-21.98587 2.4585,-32.1938 1.00452,-9.86524 c 0.51643,-2.52122 0.75276,-4.84914 0.71143,-6.98679 0.25257,-2.48045 0.37526,-4.9465 0.36918,-7.39829 -0.0417,-2.09027 0.0443,-4.17023 0.2569,-6.23995 0.46518,-2.05956 0.92807,-4.10902 1.3887,-6.14847 l 0.20666,-2.02951 c 0.32019,-0.67431 0.5142,-1.34752 0.58234,-2.01965 -0.0256,-4.67451 0.33839,-9.4607 1.08488,-14.35377 0.73763,-4.83497 1.08466,-9.4545 1.04795,-13.86498 -0.22807,-2.49864 0.0843,-4.36241 0.93408,-5.60009 0.6378,-1.5417 1.09501,-3.69006 1.37204,-6.4352 -0.31642,-3.93174 0.0224,-8.41991 1.00452,-13.44481 0.91162,-6.69624 1.66357,-12.99395 2.26057,-18.90982 0.84284,-6.09985 1.46035,-12.23736 1.85769,-18.40828 0.2942,-2.91526 0.68377,-5.67659 1.16785,-8.28721 0.70089,-2.59205 1.19012,-5.29395 1.46977,-8.10305 l 0.10291,-7.55156 0.74292,-7.39506 c 0.59262,-10.09932 1.58455,-19.91388 2.95914,-29.45557 -0.16208,-2.45534 -0.0746,-5.33423 0.25903,-8.62563 0.53192,-3.25929 0.81481,-6.058406 0.85238,-8.408542 z M 578.79757,283.37303 c 2.24347,0.352 4.30082,0.352 6.16947,0 2.12407,-0.35171 4.21304,-0.52746 6.26825,-0.52746 0.5138,0 1.25186,0.17575 2.21476,0.52746 1.28531,0 2.21703,-0.17589 2.79481,-0.52746 0.69795,-3.84804 1.00771,-7.6613 0.93454,-11.44026 0.2419,-4.08392 0.58046,-6.61618 1.01666,-7.62477 0.55756,-1.67554 1.04867,-3.67727 1.4732,-6.00042 0.67075,-2.31009 1.18395,-4.4436 1.54115,-6.40316 l 1.65514,-11.08779 0.69192,-3.78636 c 0.47166,-1.25421 0.67129,-2.34843 0.60011,-3.28396 -1.26673,0.3116 -2.65547,0.62345 -4.16636,0.93553 -1.51207,0.31233 -2.51084,0.46858 -2.99542,0.46858 -2.05955,0.62564 -4.90982,0.93883 -8.5484,0.93883 -3.33146,-0.31319 -5.93317,-0.62613 -7.80599,-0.93883 -1.62916,-0.31244 -3.32451,-0.31244 -5.08803,0 -1.52252,0.3127 -3.25395,0.46914 -5.19338,0.46914 h -1.45458 c -0.65619,-0.31282 -1.26202,-0.31282 -1.81822,0 l -0.67316,6.14925 c -0.0181,2.23054 -0.67358,5.11659 -1.97501,8.67209 -1.23812,3.25943 -1.87546,6.05052 -1.9047,8.3634 -0.0294,2.32595 -0.43526,4.66509 -1.22081,7.01751 -0.71292,2.02704 -1.13779,3.89387 -1.27242,5.59827 -0.2332,1.02599 -0.82842,3.08555 -1.79055,6.19397 l -1.31157,5.75898 c 3.51804,0.35157 7.11615,0.35157 10.78985,0 3.92745,-0.35126 7.61479,-0.17566 11.06874,0.52746 z m 7.48285,-130.79535 c -0.32616,4.30477 -1.42642,8.66152 -3.31489,13.07118 -0.52067,1.30717 -0.96223,2.75047 -1.32445,4.33148 -0.0799,1.32274 -0.27193,2.65024 -0.57657,3.98253 l -0.55112,2.41031 c -0.0211,1.0763 -0.32935,2.42608 -0.92657,4.05231 -0.37347,1.63337 -0.79933,2.99998 -1.27741,4.09687 -0.47948,1.10012 -0.94166,2.61806 -1.3872,4.5589 l -1.05935,4.6147 c 0.10076,0.5632 0.0542,1.26837 -0.14004,2.11631 1.02373,0.56635 2.26055,0.70807 3.7085,0.42469 1.74025,-0.56614 3.1854,-0.84889 4.33738,-0.84889 2.13459,-0.28254 5.50397,-0.42374 10.10934,-0.42374 4.66166,-0.28223 8.33927,-0.84605 11.03096,-1.69022 0.51312,-0.28098 1.52004,-0.14052 3.02271,0.42185 1.55707,0.2815 2.6178,0.14072 3.18072,-0.42185 0.28114,-0.28098 0.62656,-1.54279 1.03459,-3.77565 0.68403,-2.49628 1.27501,-5.11338 1.7736,-7.84861 l 1.47417,-8.08717 1.08484,-5.95131 2.99786,-14.65593 c 0.22868,-1.25767 0.32541,-2.38582 0.29084,-3.38564 0.2271,-1.24585 0.56129,-2.48736 1.00201,-3.72456 0.48386,-1.47898 0.77345,-3.07427 0.86993,-4.78427 0.096,-1.70176 0.18793,-2.79141 0.27601,-3.27462 0.30734,-1.68603 0.80336,-3.24439 1.48708,-4.67674 0.42304,0 1.24774,0.11913 2.47473,0.35753 1.48142,0 2.89843,-0.2384 4.24963,-0.71471 0.67491,-0.23791 1.73163,-0.23791 3.17123,0 1.65207,0.23808 3.32462,0.35718 5.01681,0.35718 h 0.95186 1.58642 c 0.67159,-0.23816 1.21864,-0.35718 1.64147,-0.35718 1.47991,0 3.0477,0.11902 4.70423,0.35718 h 5.39385 c 2.57066,-0.23816 4.8067,-0.35718 6.70943,-0.35718 1.93302,-0.23791 3.92598,-0.11897 5.98198,0.35718 0.36547,0.47679 0.39931,1.07371 0.10069,1.79135 l -0.2614,2.16181 c -0.35901,1.20679 -0.64199,2.66042 -0.84875,4.36394 0.007,1.71177 -0.2462,3.80154 -0.76172,6.27595 -0.88859,3.7441 -1.39733,7.02097 -1.51991,9.81721 -0.0923,2.56096 -0.45294,5.5286 -1.0858,8.91273 -0.63879,3.41573 -1.12287,6.46405 -1.44952,9.1354 -0.0709,2.42081 -0.10922,4.58596 -0.11464,6.49086 0.0609,1.36661 -0.13844,3.01316 -0.59998,4.94332 -0.43012,1.66235 -0.7647,3.47153 -1.00325,5.42963 -0.41183,3.38047 -0.74633,7.07686 -1.00274,11.09798 -0.025,4.06365 -0.31447,7.43394 -0.87101,10.09214 -0.10763,0.89012 -0.40589,2.37818 -0.89655,4.47105 l -0.77028,6.34645 -0.89575,7.38024 -0.74023,6.09884 c -0.17824,3.48175 -0.39678,7.31463 -0.65645,11.50826 -0.26237,4.23726 -0.73708,8.18791 -1.42664,11.843 -1.2744,6.39042 -2.50434,13.39717 -3.69095,21.04901 -1.20845,7.7926 -2.24183,15.18403 -3.09359,22.14966 l -1.37327,11.23043 c -0.19766,3.80823 -0.53163,7.64955 -1.00369,11.52438 -0.0949,0.77903 -0.39689,2.14561 -0.9075,4.10513 -0.24067,1.96814 -0.54607,3.35098 -0.9159,4.14308 -5.50807,0.39659 -10.8577,0.59501 -16.04527,0.59501 -5.18756,0 -10.19247,0.59578 -15.02429,1.78972 -0.67273,0.79771 -2.48435,0.99736 -5.432,0.59816 -2.67141,-0.39886 -4.51993,-0.79737 -5.54665,-1.19553 -0.2734,0 -1.16138,0.39816 -2.66595,1.19553 -1.43797,0.3992 -2.63553,0.19955 -3.59045,-0.59816 -1.8542,1.1971 -3.84365,1.59684 -5.96323,1.1971 -1.84389,-0.39939 -3.76059,-0.39939 -5.75263,0 l -3.17205,-0.59894 c -1.21424,-0.79737 -3.40233,-0.79737 -6.57008,0 l -17.80524,-1.19553 c -2.54903,0.39816 -5.19224,0.59737 -7.92797,0.59737 -2.64361,-0.39834 -4.60157,-0.79632 -5.87478,-1.19395 h -6.14723 -6.96686 c -2.4589,0 -4.83185,0.19877 -7.12036,0.59658 h -4.92105 l -16.98164,0.59737 h -2.05179 c -0.70737,-0.39834 -1.3342,-0.59737 -1.88098,-0.59737 -0.0458,-0.79525 -0.14829,-1.39077 -0.3075,-1.78736 l 0.51065,-1.78028 c 0.29332,-1.96987 0.6416,-4.12676 1.0442,-6.46793 l 2,-6.95054 c 1.74089,-4.19449 2.90904,-8.7252 3.51174,-13.58116 0.85873,-4.80245 1.91674,-9.37054 3.17156,-13.71083 0.93287,-3.22666 1.72972,-6.42913 2.39209,-9.60769 l 2.8698,-9.9107 0.7441,-2.56971 c 0.29636,-1.02347 0.46567,-2.04444 0.50838,-3.06292 0.39272,-1.35411 0.90993,-2.70382 1.55103,-4.04916 l 5.27771,-18.22635 c 1.90605,-5.74028 3.87546,-11.71189 5.90456,-17.9028 l 2.75909,-9.55841 c 1.20502,-4.17457 2.32224,-8.45156 3.35247,-12.82688 1.01866,-4.32616 2.21567,-8.46217 3.58884,-12.41338 0.64746,-2.23948 1.0565,-4.04934 1.22953,-5.43565 0.17238,-1.38121 0.84393,-3.30641 2.00934,-5.76722 0.61905,-1.36014 1.01044,-2.71533 1.17541,-4.0656 l 1.27825,-4.42133 1.83233,-6.33782 c 0.15643,-1.3067 0.83155,-3.25803 2.01941,-5.84364 0.51672,-1.02911 0.77568,-1.92719 0.77799,-2.69521 l 0.99182,-3.43599 c 0.51058,-1.76881 0.91013,-3.52894 1.19947,-5.28046 0.50391,-1.74298 0.86188,-3.35386 1.07509,-4.83437 0.3559,-1.22906 0.88846,-2.69833 1.59605,-4.40479 0.70417,-1.69824 1.22908,-3.14738 1.57635,-4.35044 0.70627,-0.24012 1.73043,-0.48007 3.07215,-0.71986 1.62055,-0.47909 3.06586,-0.71839 4.3376,-0.71839 h 12.08159 c 3.39132,0 7.90225,-0.23913 13.52702,-0.7169 1.32783,-0.23865 2.8095,-0.23865 4.44655,0 1.84997,0.2388 3.48932,0.47777 4.91784,0.7169 0.0479,0.71839 -0.14389,1.55837 -0.57639,2.52082 l -0.49736,2.17521 c -0.0639,1.21428 -0.34657,2.92133 -0.85019,5.12828 -0.50678,2.22078 -1.03961,4.08208 -1.59786,5.57815 z"
           style="font-family:'Kirang Haerang';-inkscape-font-specification:'Kirang Haerang'"
           id="path2607" />
        <path
           d="m 891.30342,127.43838 c -0.23879,-1.16992 -0.53846,-3.14974 -0.89742,-5.92555 -0.40289,-2.982 -0.79947,-4.91781 -1.19156,-5.82498 -0.43717,-1.13058 -0.54155,-2.1449 -0.31469,-3.04397 0.18025,-1.12049 0.67977,-1.67935 1.49902,-1.67935 0.61444,0 2.07167,0.1117 4.37284,0.33521 2.45896,0 4.97087,-0.22351 7.53318,-0.67009 1.17757,-0.22306 2.91704,-0.22306 5.22013,0 2.45653,0 4.9399,0.11159 7.45134,0.33488 2.45775,0 4.94358,0.1117 7.45875,0.33521 2.45894,0 4.47882,-0.11178 6.05886,-0.33521 0.96474,-0.22329 1.75764,0.44701 2.38133,2.01623 0.56627,1.35084 0.83786,2.36752 0.81305,3.04699 0.10732,2.73154 0.80318,6.52338 2.10061,11.41063 l 1.25444,3.53366 0.47346,1.78039 c 0.63505,2.38808 1.35895,4.31034 2.17095,5.75898 0.19387,0.72656 0.34615,1.69766 0.4568,2.9153 0.11109,1.22184 0.42798,2.81658 0.95256,4.78924 l 7.37867,27.74692 c 0.13124,1.33713 0.73288,4.02594 1.81336,8.09599 1.24674,3.83915 2.05929,6.46685 2.42904,7.85726 0.96775,3.63917 2.02257,7.17163 3.16509,10.59388 1.38585,3.45313 2.35509,7.08344 2.90236,10.8955 0.39462,3.2551 1.0298,6.53761 1.90859,9.84789 0.80537,3.03373 1.89786,6.24446 3.28162,9.63621 0.40648,0.6198 0.73426,1.39592 0.98331,2.32925 l 0.49985,1.87325 c 0.0243,2.82641 0.41934,6.14925 1.19046,9.98062 0.69277,3.54421 1.13849,6.63018 1.33353,9.24712 0.0866,0.32829 -0.24276,0.49254 -0.98801,0.49254 -0.90782,0.32869 -2.76819,0.82222 -5.58397,1.48119 -2.90334,0.32988 -5.43387,0.16491 -7.58722,-0.49433 -3.14393,-0.65817 -6.20444,-0.98686 -9.1853,-0.98686 -2.80856,-0.32843 -5.73897,-0.6566 -8.79108,-0.9845 h -18.60805 c -2.16768,0.3279 -4.36933,0.49196 -6.60363,0.49196 -2.29694,-0.32804 -4.43714,-0.49196 -6.42201,-0.49196 -2.4211,0.3279 -3.42376,1.64215 -3.00476,3.95224 l 2.00748,11.06805 c 0.49482,2.72817 1.24518,6.16358 2.25612,10.32351 0.50844,2.79626 0.85946,5.43463 1.05136,7.91199 l 1.75796,9.6924 c 0.13182,0.72674 0.62309,1.2726 1.47418,1.63689 1.11355,0.36459 2.19424,0.547 3.24138,0.547 2.28709,-0.36474 4.51132,-0.36474 6.67551,0 2.35606,0 5.01038,0.18249 7.96483,0.54771 h 2.75048 c 1.19962,0.73135 2.64157,0.73135 4.32218,0 1.93951,-0.73011 3.69289,-1.09471 5.2626,-1.09471 h 7.06372 c 3.40104,0 7.67252,0.3646 12.82094,1.09471 6.11529,0.36552 12.1427,0.36552 18.07458,0 4.61769,-0.36522 8.67622,-0.36522 12.18074,0 1.41098,0.36552 3.32539,0.18272 5.73927,-0.54771 2.67135,-0.72919 4.3975,-1.09332 5.18183,-1.09332 0.73366,0.72857 1.25952,1.64103 1.57732,2.73852 l 0.7981,2.75597 c 0.2136,0.73789 0.3494,1.66202 0.4072,2.77357 l 0.969,3.35178 c 1.1335,3.00108 2.4161,6.97141 3.854,11.93712 1.6118,4.63366 2.6851,8.33648 3.2097,11.08463 0.4134,2.36903 1.0447,4.55165 1.8953,6.54506 1.1288,2.00224 1.5371,3.4091 1.2205,4.21498 -0.042,0.80732 -0.5553,1.41375 -1.5416,1.81848 h -2.4819 -6.2047 c -2.5932,-0.40473 -4.52264,-0.40473 -5.79098,0 -5.02421,0.81055 -10.85328,1.21638 -17.48049,1.21638 -6.62714,0 -12.52257,-0.40583 -17.67939,-1.21638 -2.85061,-0.40473 -6.57176,-0.40473 -11.16842,0 -4.41221,0 -10.28794,-0.40474 -17.61739,-1.21312 h -0.82618 c -2.31871,0.80838 -4.76003,1.01071 -7.31913,0.60616 -2.55684,-0.4042 -5.03595,-0.4042 -7.44065,0 l -10.53832,1.21474 c -0.55189,0 -1.2071,0.20277 -1.96613,0.6086 -0.55227,0 -1.27683,-0.20296 -2.17308,-0.6086 h -7.45059 c -2.48353,0 -4.99829,-0.20268 -7.54258,-0.60778 -2.20611,0 -3.69299,0.2025 -4.46114,0.60778 -0.76884,0.40564 -1.76438,0.20277 -2.98448,-0.60778 -1.04554,0.4051 -1.92542,1.01342 -2.63989,1.82577 -0.77238,0.40673 -1.60169,0.40673 -2.48685,0 -3.09392,-0.40635 -6.15856,-0.60939 -9.19601,-0.60939 h -8.69816 -9.52656 c -4.14198,0 -8.26403,0.20304 -12.36888,0.60939 -4.14475,0 -8.46196,-0.40636 -12.94562,-1.21799 l -23.65868,-1.21474 c -3.85811,0 -7.84491,0.20223 -11.96315,0.60696 h -13.23664 c -1.65458,0 -2.64304,-1.01116 -2.96431,-3.02676 l -0.0547,-2.40696 c 0.24651,-1.19869 0.34645,-2.79201 0.30046,-4.77578 -0.0458,-1.97505 -0.23163,-4.13762 -0.5564,-6.48494 -0.33177,-2.72303 -0.52699,-5.42952 -0.58691,-8.1196 l -0.11454,-5.14224 c 0.22403,-1.88941 0.32286,-3.39511 0.29727,-4.52099 l -0.89358,-4.47478 c -0.0323,-1.48143 0.20668,-2.58921 0.71628,-3.32617 0.50873,-0.7357 1.94455,-1.10308 4.30809,-1.10308 2.61488,-0.36707 4.58973,-0.18358 5.92793,0.55119 1.34045,0.73601 3.58313,0.92021 6.72431,0.55189 3.40136,-0.36801 5.75791,-0.55189 7.07183,-0.55189 h 7.09516 c 2.60517,-0.36754 4.82609,-0.55119 6.6644,-0.55119 3.67664,0 6.71034,0.18365 9.10262,0.55119 2.62784,0 5.37181,-0.18381 8.23009,-0.55119 1.05046,0 2.21591,-0.18357 3.49552,-0.55049 1.54087,-0.36661 3.09766,-0.5498 4.67136,-0.5498 l 3.20213,0.5498 h 5.51145 c 1.79754,-0.36661 3.63392,-0.36661 5.51145,0 h 4.33042 c 1.79337,-0.36661 3.3452,-0.5498 4.65662,-0.5498 h 7.8685 l 0.64117,-1.09749 -0.72288,-5.44598 c -0.9253,-5.02137 -1.51251,-9.45538 -1.76797,-13.31939 l -0.82929,-6.24766 c -0.20211,-3.43119 -0.43837,-6.15601 -0.70901,-8.188 l -1.06949,-8.0298 c -0.3814,-0.99283 -0.74001,-1.81836 -1.07612,-2.4776 -0.0871,-0.65817 -0.54645,-1.31529 -1.37725,-1.97136 -7.23513,-0.32763 -13.93134,-0.32763 -20.09669,0 h -0.37216 c -2.76279,-0.32763 -5.27547,-0.65501 -7.53832,-0.98213 -2.26104,-0.32685 -4.73814,-0.32685 -7.43429,0 h -4.08886 c -1.5133,-0.32685 -2.99957,-0.32685 -4.46057,0 l -15.49758,1.96663 c -1.96892,0.32869 -3.45995,0.32869 -4.4713,0 -0.76224,-0.32843 -2.17726,-1.31213 -4.23933,-2.9464 -0.80354,-1.30273 -1.28695,-3.73417 -1.45109,-7.27418 -0.20685,-4.46112 -0.53998,-9.03001 -0.99706,-13.7022 -0.21202,-4.61796 -0.54078,-9.18264 -0.98427,-13.69493 l -0.42317,-9.30933 c -0.14542,-3.19888 -0.40576,-6.37139 -0.77961,-9.51784 l -0.43667,-9.70298 c -0.14929,-3.31737 -0.17793,-6.46923 -0.0875,-9.45936 l -0.34715,-7.63697 c 0.1143,-2.3792 0.13503,-4.35017 0.063,-5.91933 -0.10749,-2.34118 -0.3596,-5.43951 -0.75371,-9.27553 l -0.42798,-9.41481 -1.7614,-31.94947 c -0.0305,-0.67745 0.0419,-1.35354 0.21686,-2.02829 0.1746,-0.67342 0.34886,-1.34549 0.52278,-2.01623 2.00405,-0.89226 3.41864,-1.22625 4.24814,-1.00362 1.02254,0 2.26208,0.22276 3.72006,0.66874 1.44643,0.22322 3.18003,0.11159 5.19807,-0.33454 h 3.68298 c 1.21135,-0.22284 2.4219,-0.44553 3.63164,-0.66809 h 3.37272 c 1.61652,-0.2224 3.13945,-0.33355 4.56959,-0.33355 1.63445,0 3.07495,0.11115 4.32212,0.33355 h 3.0661 c 1.02204,0 2.15771,0.11126 3.40763,0.33389 1.25075,0.22276 2.21938,0.66874 2.90632,1.33883 0.0973,0.8955 0.1043,1.90578 0.0206,3.03187 l 0.59046,5.45767 c 0.17401,1.60838 0.25711,3.34005 0.24865,5.19683 -0.21813,1.86682 -0.12216,3.74377 0.29049,5.63095 0.41491,1.89746 0.83208,3.80531 1.25154,5.72363 l 0.31346,2.89729 c 0.31873,0.97109 0.39794,1.70116 0.23679,2.18873 -0.24393,1.71177 -0.31357,3.06257 -0.20783,4.0482 0.3216,0.98839 0.56291,2.22774 0.72375,3.72068 0.0807,0.74882 0.44618,1.12382 1.0964,1.12382 h 1.95065 c 0.83869,-0.25005 1.58275,-0.375 2.23263,-0.375 h 8.44838 1.29976 c 0.61751,-0.24978 1.26716,-0.24978 1.94962,0 2.16626,0 4.56634,0.12495 7.20165,0.375 2.60087,0 5.11194,0.12508 7.53449,0.37538 h 1.95168 c 0.61164,-0.2503 1.24241,-0.37538 1.89263,-0.37538 1.65407,-0.49992 3.38677,-0.49992 5.20173,0 h 8.12771 5.52685 c 2.16739,0 4.27384,0.25021 6.3215,0.75117 1.56751,0.25075 2.56876,0.37618 3.00292,0.37618 0.38475,-0.25083 1.46977,-0.25083 3.25621,0 1.30248,0 2.0367,-0.12543 2.20256,-0.37618 l -0.61135,-2.99528 -0.8323,-4.07782 c -0.13593,-1.71592 -0.47758,-3.90995 -1.02236,-6.57311 -0.54067,-2.64312 -1.32846,-5.97845 -2.35743,-9.98599 z m -59.09415,61.22614 0.64112,5.87655 0.32433,2.97278 0.37378,3.42609 c 0.12534,1.14889 0.44632,3.02319 0.96529,5.63356 0.29778,0.58249 0.3779,1.31184 0.2398,2.18888 l 0.19282,1.76007 c 2.65125,0.58848 4.90233,0.73574 6.74919,0.44128 2.08047,-0.29424 4.29504,-0.44128 6.64487,-0.44128 0.93994,0 4.83673,0.14704 11.69427,0.44128 6.8184,0 14.55364,-0.14715 23.20079,-0.44128 3.9427,-0.29389 8.22442,1e-5 12.8553,0.88305 4.58416,0.58981 8.5275,0.88505 11.82477,0.88505 0.35074,-0.59026 0.49584,-1.03236 0.43574,-1.32682 -0.41943,-2.05498 -1.22043,-5.40748 -2.39402,-10.02379 l -2.15986,-10.60571 -1.85178,-9.09294 h -10.17494 c -3.44212,-0.27213 -6.79336,-0.67995 -10.05204,-1.22301 h -1.35444 c -1.0816,0.27143 -2.18736,0.40721 -3.31667,0.40721 h -3.38794 -8.80864 c -2.93622,0 -5.85257,0.13585 -8.75064,0.40768 h -17.28794 c -0.67796,0 -1.45298,0.13599 -2.32555,0.40812 h -2.37415 c -1.35666,0 -2.38907,-0.13609 -3.09683,-0.40812 l 0.44559,4.10136 c 0.34722,1.10133 0.5966,2.34419 0.74778,3.72999 z"
           style="font-family:'Kirang Haerang';-inkscape-font-specification:'Kirang Haerang'"
           id="path2609" />
      </g>
    </g>
    <text
       xml:space="preserve"
       style="font-style:normal;font-variant:normal;font-weight:normal;font-stretch:normal;font-size:107.078px;font-family:JuliaMono;-inkscape-font-specification:JuliaMono;opacity:1;fill:#000000;stroke:#000000;stroke-width:0.5;stroke-dasharray:none"
       x="98.865067"
       y="213.06857"
       id="text2775"><tspan
         sodipodi:role="line"
         id="tspan2773"
         x="98.865067"
         y="213.06857"
         style="font-style:normal;font-variant:normal;font-weight:normal;font-stretch:normal;font-family:JuliaMono;-inkscape-font-specification:JuliaMono;opacity:1;fill:#000000;stroke:#000000;stroke-width:0.5;stroke-dasharray:none" /></text>
    <g
       id="g10424"
       transform="translate(3.776861)">
      <text
         xml:space="preserve"
         style="font-style:normal;font-variant:normal;font-weight:normal;font-stretch:normal;font-size:120.479px;font-family:JuliaMono;-inkscape-font-specification:JuliaMono;fill:#000000;stroke:#000000;stroke-width:4.59114;stroke-dasharray:none"
         x="1.0055203"
         y="108.24551"
         id="text6503"><tspan
           sodipodi:role="line"
           id="tspan6501"
           x="1.0055203"
           y="108.24551"
           style="font-style:normal;font-variant:normal;font-weight:normal;font-stretch:normal;font-family:'Bungee Hairline';-inkscape-font-specification:'Bungee Hairline';fill:#000000;stroke:#000000;stroke-width:4.59114;stroke-dasharray:none">pabo</tspan></text>
      <text
         xml:space="preserve"
         style="font-style:normal;font-variant:normal;font-weight:normal;font-stretch:normal;font-size:120.479px;font-family:JuliaMono;-inkscape-font-specification:JuliaMono;fill:#ffffff;stroke:#ffffff;stroke-width:4.59114;stroke-dasharray:none"
         x="1.0055203"
         y="100.03041"
         id="text6213"><tspan
           sodipodi:role="line"
           id="tspan6211"
           x="1.0055203"
           y="100.03041"
           style="font-style:normal;font-variant:normal;font-weight:normal;font-stretch:normal;font-family:'Bungee Hairline';-inkscape-font-specification:'Bungee Hairline';fill:#ffffff;stroke:#ffffff;stroke-width:4.59114;stroke-dasharray:none">pabo</tspan></text>
    </g>
    <g
       id="g9832"
       transform="matrix(0.85896601,0,0,0.85896601,216.89285,78.657435)">
      <g
         aria-label="Binary parsing for dummies!"
         id="text6507"
         style="font-size:29.2462px;font-family:'Bungee Hairline';-inkscape-font-specification:'Bungee Hairline';stroke:#000000;stroke-width:2.95483"
         transform="matrix(1.3390783,0,0,1.3390783,-498.81485,-164.15517)">
        <path
           d="m 989.662,477.45247 h -7.86723 v -15.79295 h 5.93698 q 1.1991,0 1.9595,0.26321 0.7604,0.23397 1.16984,0.67267 0.40945,0.40944 0.55568,0.96512 0.14623,0.55568 0.14623,1.1991 v 1.87175 q 0,0.87739 -0.3217,1.60854 -0.29247,0.73116 -1.55005,1.05287 1.19909,0 1.95949,0.26321 0.7604,0.23397 1.16985,0.70191 0.40945,0.43869 0.52643,1.05287 0.14623,0.61417 0.14623,1.34532 v 1.87176 q 0,0.64341 -0.14623,1.19909 -0.14623,0.52643 -0.55568,0.90663 -0.3802,0.3802 -1.1406,0.61417 -0.7604,0.20473 -1.98874,0.20473 z m -1.93025,-15.50049 h -5.64452 v 7.3408 h 5.64452 q 1.1991,0 1.901,-0.20473 0.70191,-0.23397 1.05287,-0.58492 0.3802,-0.3802 0.46794,-0.84814 0.11698,-0.49719 0.11698,-1.02362 v -1.87175 q 0,-1.16985 -0.67266,-1.98875 -0.67266,-0.81889 -2.86613,-0.81889 z m 1.9595,7.63326 h -7.60402 v 7.57477 h 7.57477 q 2.19347,0 2.86613,-0.70191 0.67266,-0.73116 0.67266,-1.93025 v -1.87176 q 0,-1.31608 -0.67266,-2.19346 -0.64342,-0.87739 -2.83688,-0.87739 z"
           id="path8592" />
        <path
           d="m 1011.2165,477.45247 h -9.3003 v -0.29246 h 4.5331 v -15.20803 h -4.5331 v -0.29246 h 9.3003 v 0.29246 h -4.4747 v 15.20803 h 4.4747 z"
           id="path8594" />
        <path
           d="m 1021.3064,461.89349 10.7626,12.10793 v -12.3419 h 0.2925 v 15.79295 h -0.2925 v -3.01236 l -11.0551,-12.40039 q -0.029,-0.0292 -0.088,-0.0585 -0.029,-0.0292 -0.058,-0.0292 -0.029,0 -0.058,0.0292 0,0.0292 0,0.0585 v 15.41275 h -0.2925 v -15.47124 q 0,-0.17548 0.117,-0.26322 0.117,-0.0877 0.234,-0.0877 0.117,0 0.2047,0.0585 0.088,0.0585 0.234,0.20472 z"
           id="path8596" />
        <path
           d="m 1042.4221,471.22303 v 0.90663 h 11.4061 v -0.90663 q 0,-0.78965 -0.1463,-1.46231 -0.1169,-0.67267 -0.3217,-1.25759 l -2.018,-4.76713 q -0.3217,-0.7604 -0.6726,-1.25759 -0.351,-0.52643 -1.1699,-0.52643 h -2.8661 q -0.8774,0 -1.2283,0.52643 -0.351,0.49719 -0.6435,1.22834 l -1.8717,4.79638 q -0.2047,0.58492 -0.351,1.25759 -0.117,0.67266 -0.117,1.46231 z m 11.4061,6.22944 v -5.03035 h -11.4061 v 5.03035 h -0.2924 v -6.22944 q 0,-0.8189 0.117,-1.49156 0.1462,-0.70191 0.3802,-1.34532 l 1.8717,-4.79638 q 0.3217,-0.8189 0.7312,-1.37457 0.4094,-0.55568 1.4038,-0.55568 h 2.8661 q 0.9652,0 1.3454,0.55568 0.4094,0.55567 0.7604,1.40381 l 2.0179,4.76714 q 0.234,0.64341 0.351,1.34532 0.1462,0.67266 0.1462,1.49156 v 6.22944 z"
           id="path8598" />
        <path
           d="m 1070.6447,461.95198 h -6.3756 v 8.45215 h 6.3756 q 1.8133,0 2.4275,-0.87738 0.6141,-0.87739 0.6141,-2.48593 v -2.04723 q 0,-1.34533 -0.7604,-2.19347 -0.7311,-0.84814 -2.2812,-0.84814 z m -6.3756,15.50049 h -0.2925 v -15.79295 h 6.6681 q 1.6963,0 2.5152,0.96512 0.8189,0.93588 0.8189,2.36895 v 2.01798 q 0,1.34533 -0.351,2.22271 -0.3509,0.84814 -1.4038,1.16985 h 0.3217 q 1.784,0 2.6614,0.8189 0.8774,0.78964 0.8774,2.31045 v 3.91899 h -0.2924 v -3.91899 q 0,-1.43307 -0.7897,-2.13498 -0.7896,-0.73115 -2.4567,-0.73115 h -8.2766 z"
           id="path8600" />
        <path
           d="m 1090.3274,472.45137 h -0.2047 v 5.0011 h -0.2925 v -5.0011 h -0.2925 q -0.6434,0 -1.1698,-0.29247 -0.4972,-0.29246 -0.9651,-0.93587 l -2.8369,-3.94824 q -0.3217,-0.43869 -0.3802,-1.02362 -0.059,-0.58492 -0.059,-1.22834 v -3.36331 h 0.2925 v 3.36331 q 0,0.61417 0.058,1.16985 0.058,0.52643 0.351,0.96512 l 2.8369,3.94824 q 0.3802,0.58493 0.8774,0.8189 0.4972,0.23396 0.9943,0.23396 h 0.7897 q 0.5557,0 0.9944,-0.23396 0.4679,-0.26322 0.9066,-0.8189 l 2.9246,-3.94824 q 0.2925,-0.3802 0.351,-0.93587 0.059,-0.58493 0.059,-1.1991 v -3.36331 h 0.2924 v 3.36331 q 0,0.64342 -0.059,1.22834 -0.029,0.55568 -0.3802,1.02362 l -2.9246,3.94824 q -0.4679,0.64341 -0.9944,0.93587 -0.4971,0.29247 -1.1698,0.29247 z"
           id="path8602" />
        <path
           d="m 1118.1698,471.69097 h -6.0247 v 5.7615 h -0.2925 v -15.79295 h 6.3172 q 1.3745,0 2.2227,0.32171 0.8774,0.29246 1.3453,0.81889 0.468,0.52643 0.6434,1.25759 0.1755,0.73115 0.1755,1.57929 v 2.16422 q 0,0.84814 -0.1755,1.5793 -0.1754,0.7019 -0.6434,1.22834 -0.4679,0.49718 -1.3453,0.78964 -0.8482,0.29247 -2.2227,0.29247 z m -6.0247,-0.29247 h 6.0247 q 1.2868,0 2.0765,-0.26321 0.8189,-0.26322 1.2575,-0.73116 0.4387,-0.49718 0.585,-1.1406 0.1754,-0.67266 0.1754,-1.46231 V 465.637 q 0,-0.78965 -0.1754,-1.46231 -0.1463,-0.67266 -0.585,-1.16985 -0.4386,-0.49718 -1.2575,-0.7604 -0.7897,-0.29246 -2.0765,-0.29246 h -6.0247 z"
           id="path8604" />
        <path
           d="m 1131.1843,471.22303 v 0.90663 h 11.406 v -0.90663 q 0,-0.78965 -0.1462,-1.46231 -0.117,-0.67267 -0.3217,-1.25759 l -2.018,-4.76713 q -0.3217,-0.7604 -0.6727,-1.25759 -0.3509,-0.52643 -1.1698,-0.52643 h -2.8661 q -0.8774,0 -1.2284,0.52643 -0.3509,0.49719 -0.6434,1.22834 l -1.8717,4.79638 q -0.2048,0.58492 -0.351,1.25759 -0.117,0.67266 -0.117,1.46231 z m 11.406,6.22944 v -5.03035 h -11.406 v 5.03035 h -0.2924 v -6.22944 q 0,-0.8189 0.1169,-1.49156 0.1463,-0.70191 0.3802,-1.34532 l 1.8718,-4.79638 q 0.3217,-0.8189 0.7312,-1.37457 0.4094,-0.55568 1.4038,-0.55568 h 2.8661 q 0.9651,0 1.3453,0.55568 0.4095,0.55567 0.7604,1.40381 l 2.018,4.76714 q 0.234,0.64341 0.351,1.34532 0.1462,0.67266 0.1462,1.49156 v 6.22944 z"
           id="path8606" />
        <path
           d="m 1159.4069,461.95198 h -6.3757 v 8.45215 h 6.3757 q 1.8132,0 2.4274,-0.87738 0.6142,-0.87739 0.6142,-2.48593 v -2.04723 q 0,-1.34533 -0.7604,-2.19347 -0.7312,-0.84814 -2.2812,-0.84814 z m -6.3757,15.50049 h -0.2925 v -15.79295 h 6.6682 q 1.6963,0 2.5151,0.96512 0.8189,0.93588 0.8189,2.36895 v 2.01798 q 0,1.34533 -0.3509,2.22271 -0.351,0.84814 -1.4038,1.16985 h 0.3217 q 1.784,0 2.6614,0.8189 0.8774,0.78964 0.8774,2.31045 v 3.91899 h -0.2925 v -3.91899 q 0,-1.43307 -0.7896,-2.13498 -0.7897,-0.73115 -2.4567,-0.73115 h -8.2767 z"
           id="path8608" />
        <path
           d="m 1183.4473,461.65952 v 0.29246 h -6.4927 q -1.2283,0 -1.9595,0.67266 -0.7311,0.67267 -0.7311,1.69628 v 2.39819 q 0,1.02362 0.4094,1.43307 0.4094,0.40944 1.0821,0.52643 l 6.171,1.25758 q 0.8773,0.17548 1.433,0.7604 0.5849,0.58493 0.5849,2.10573 v 1.69628 q 0,1.28683 -0.8773,2.13497 -0.8774,0.8189 -2.369,0.8189 h -7.2823 v -0.29246 h 7.2823 q 1.3453,0 2.135,-0.73116 0.8189,-0.7604 0.8189,-1.93025 v -1.69628 q 0,-1.37457 -0.4972,-1.87176 -0.4679,-0.52643 -1.2868,-0.7019 l -6.171,-1.25759 q -0.7604,-0.14623 -1.2576,-0.58492 -0.4679,-0.46794 -0.4679,-1.66704 v -2.39819 q 0,-1.16984 0.8189,-1.901 0.8189,-0.7604 2.1642,-0.7604 z"
           id="path8610" />
        <path
           d="m 1201.7846,477.45247 h -9.3003 v -0.29246 h 4.5332 v -15.20803 h -4.5332 v -0.29246 h 9.3003 v 0.29246 h -4.4747 v 15.20803 h 4.4747 z"
           id="path8612" />
        <path
           d="m 1211.8745,461.89349 10.7626,12.10793 v -12.3419 h 0.2925 v 15.79295 h -0.2925 v -3.01236 l -11.055,-12.40039 q -0.029,-0.0292 -0.088,-0.0585 -0.029,-0.0292 -0.059,-0.0292 -0.029,0 -0.058,0.0292 0,0.0292 0,0.0585 v 15.41275 h -0.2924 v -15.47124 q 0,-0.17548 0.117,-0.26322 0.117,-0.0877 0.2339,-0.0877 0.117,0 0.2048,0.0585 0.088,0.0585 0.2339,0.20472 z"
           id="path8614" />
        <path
           d="m 1238.1669,477.45247 q -1.6086,0 -2.6322,-0.20473 -1.0236,-0.20472 -1.6085,-0.64341 -0.5849,-0.46794 -0.8189,-1.16985 -0.2047,-0.73116 -0.2047,-1.75477 v -8.18894 q 0,-2.07648 0.9358,-2.95387 0.9359,-0.87738 3.7436,-0.87738 h 5.0595 v 0.29246 h -5.0595 q -2.5737,0 -3.4803,0.81889 -0.9067,0.78965 -0.9067,2.7199 v 8.18894 q 0,1.901 0.9944,2.69065 1.0236,0.78965 3.9775,0.78965 h 5.5275 v -5.58603 h 0.2925 v 5.87849 z"
           id="path8616" />
        <path
           d="m 1260.511,477.45247 v -15.79295 h 9.3295 v 0.29246 h -9.037 v 8.36441 h 6.6681 v 0.29247 h -6.6681 v 6.84361 z"
           id="path8618" />
        <path
           d="m 1289.9035,473.88443 q 0,1.75477 -1.2576,2.86613 -1.2576,1.08211 -4.6794,1.08211 -3.4218,0 -4.6502,-1.08211 -1.2283,-1.11136 -1.2283,-2.86613 v -8.62763 q 0,-1.75477 1.2283,-2.83688 1.2284,-1.11136 4.6502,-1.11136 3.4218,0 4.6794,1.11136 1.2576,1.08211 1.2576,2.83688 z m -11.523,0 q 0,1.63779 1.1698,2.6614 1.1699,0.99438 4.4162,0.99438 3.2463,0 4.4454,-0.99438 1.1991,-1.02361 1.1991,-2.6614 v -8.62763 q 0,-1.63779 -1.1991,-2.63216 -1.1991,-1.02361 -4.4454,-1.02361 -3.2463,0 -4.4162,1.02361 -1.1698,0.99437 -1.1698,2.63216 z"
           id="path8620" />
        <path
           d="m 1306.6322,461.95198 h -6.3756 v 8.45215 h 6.3756 q 1.8133,0 2.4275,-0.87738 0.6142,-0.87739 0.6142,-2.48593 v -2.04723 q 0,-1.34533 -0.7604,-2.19347 -0.7312,-0.84814 -2.2813,-0.84814 z m -6.3756,15.50049 h -0.2925 v -15.79295 h 6.6681 q 1.6963,0 2.5152,0.96512 0.8189,0.93588 0.8189,2.36895 v 2.01798 q 0,1.34533 -0.3509,2.22271 -0.351,0.84814 -1.4039,1.16985 h 0.3218 q 1.784,0 2.6614,0.8189 0.8773,0.78964 0.8773,2.31045 v 3.91899 h -0.2924 v -3.91899 q 0,-1.43307 -0.7897,-2.13498 -0.7896,-0.73115 -2.4566,-0.73115 h -8.2767 z"
           id="path8622" />
        <path
           d="m 1328.3037,477.45247 v -15.79295 h 7.0776 q 1.4916,0 2.3982,0.32171 0.9359,0.32171 1.4331,0.87738 0.4971,0.52643 0.6726,1.28684 0.1755,0.73115 0.1755,1.57929 v 7.75024 q 0,0.84814 -0.1755,1.5793 -0.1462,0.73115 -0.6434,1.25759 -0.4972,0.52643 -1.4331,0.84814 -0.9358,0.29246 -2.4274,0.29246 z m 7.0776,-15.50049 h -6.7851 v 15.20803 h 6.7851 q 1.4038,0 2.252,-0.26322 0.8773,-0.29246 1.3453,-0.7604 0.4679,-0.49719 0.6142,-1.16985 0.1754,-0.70191 0.1754,-1.49156 v -7.75024 q 0,-0.78965 -0.1754,-1.49156 -0.1755,-0.7019 -0.6435,-1.19909 -0.4679,-0.49719 -1.3453,-0.78965 -0.8481,-0.29246 -2.2227,-0.29246 z"
           id="path8624" />
        <path
           d="m 1350.0044,461.65952 h 0.2925 v 12.19566 q 0,1.63779 1.1406,2.66141 1.1698,0.99437 4.4161,0.99437 3.2464,0 4.4162,-0.99437 1.1699,-1.02362 1.1699,-2.66141 v -12.19566 h 0.2924 v 12.19566 q 0,1.75478 -1.2283,2.86613 -1.2284,1.08211 -4.6502,1.08211 -3.4218,0 -4.6501,-1.08211 -1.1991,-1.11135 -1.1991,-2.86613 z"
           id="path8626" />
        <path
           d="m 1379.0459,468.82484 q 0.5264,0 0.7604,-0.23397 0.234,-0.23397 0.7312,-0.99437 l 3.568,-5.4398 q 0.1755,-0.29246 0.3802,-0.3802 0.234,-0.11698 0.4679,-0.11698 h 0.4972 q 0.4095,0 0.5849,0.23397 0.2048,0.20472 0.2048,0.67266 v 14.88632 h -0.2925 v -14.88632 q 0,-0.23397 -0.117,-0.40945 -0.088,-0.20472 -0.3802,-0.20472 h -0.4387 q -0.2047,0 -0.3509,0.0585 -0.1463,0.0585 -0.3217,0.35096 l -3.5681,5.3813 q -0.5264,0.78965 -0.8189,1.08211 -0.2632,0.29246 -0.9066,0.29246 -0.6434,0 -0.9359,-0.29246 -0.2632,-0.29246 -0.7896,-1.08211 l -3.5681,-5.3813 q -0.1754,-0.29246 -0.3509,-0.35096 -0.1463,-0.0585 -0.351,-0.0585 h -0.4387 q -0.2924,0 -0.3802,0.20472 -0.088,0.17548 -0.088,0.40945 v 14.88632 h -0.2925 v -14.88632 q 0,-0.46794 0.1755,-0.67266 0.2047,-0.23397 0.5849,-0.23397 h 0.4972 q 0.234,0 0.468,0.11698 0.2339,0.0877 0.4094,0.3802 l 3.568,5.4398 q 0.4972,0.7604 0.7312,0.99437 0.234,0.23397 0.7604,0.23397 z"
           id="path8628" />
        <path
           d="m 1403.8759,468.82484 q 0.5265,0 0.7604,-0.23397 0.234,-0.23397 0.7312,-0.99437 l 3.568,-5.4398 q 0.1755,-0.29246 0.3802,-0.3802 0.234,-0.11698 0.468,-0.11698 h 0.4972 q 0.4094,0 0.5849,0.23397 0.2047,0.20472 0.2047,0.67266 v 14.88632 h -0.2925 v -14.88632 q 0,-0.23397 -0.1169,-0.40945 -0.088,-0.20472 -0.3802,-0.20472 h -0.4387 q -0.2048,0 -0.351,0.0585 -0.1462,0.0585 -0.3217,0.35096 l -3.568,5.3813 q -0.5265,0.78965 -0.8189,1.08211 -0.2632,0.29246 -0.9067,0.29246 -0.6434,0 -0.9358,-0.29246 -0.2633,-0.29246 -0.7897,-1.08211 l -3.568,-5.3813 q -0.1755,-0.29246 -0.351,-0.35096 -0.1462,-0.0585 -0.3509,-0.0585 h -0.4387 q -0.2925,0 -0.3802,0.20472 -0.088,0.17548 -0.088,0.40945 v 14.88632 h -0.2924 v -14.88632 q 0,-0.46794 0.1755,-0.67266 0.2047,-0.23397 0.5849,-0.23397 h 0.4972 q 0.2339,0 0.4679,0.11698 0.234,0.0877 0.4095,0.3802 l 3.568,5.4398 q 0.4972,0.7604 0.7311,0.99437 0.234,0.23397 0.7604,0.23397 z"
           id="path8630" />
        <path
           d="m 1429.8758,477.45247 h -9.3003 v -0.29246 h 4.5332 v -15.20803 h -4.5332 v -0.29246 h 9.3003 v 0.29246 h -4.4746 v 15.20803 h 4.4746 z"
           id="path8632" />
        <path
           d="m 1449.1491,477.16001 v 0.29246 h -9.856 v -15.79295 h 9.856 v 0.29246 h -9.5635 v 7.3408 h 7.1945 v 0.29246 h -7.1945 v 7.57477 z"
           id="path8634" />
        <path
           d="m 1467.3694,461.65952 v 0.29246 h -6.4926 q -1.2284,0 -1.9595,0.67266 -0.7312,0.67267 -0.7312,1.69628 v 2.39819 q 0,1.02362 0.4095,1.43307 0.4094,0.40944 1.0821,0.52643 l 6.1709,1.25758 q 0.8774,0.17548 1.4331,0.7604 0.5849,0.58493 0.5849,2.10573 v 1.69628 q 0,1.28683 -0.8774,2.13497 -0.8774,0.8189 -2.3689,0.8189 h -7.2823 v -0.29246 h 7.2823 q 1.3453,0 2.135,-0.73116 0.8188,-0.7604 0.8188,-1.93025 v -1.69628 q 0,-1.37457 -0.4971,-1.87176 -0.468,-0.52643 -1.2869,-0.7019 l -6.1709,-1.25759 q -0.7604,-0.14623 -1.2576,-0.58492 -0.4679,-0.46794 -0.4679,-1.66704 v -2.39819 q 0,-1.16984 0.8188,-1.901 0.8189,-0.7604 2.1643,-0.7604 z"
           id="path8636" />
        <path
           d="m 1478.2783,461.65952 h 0.2924 v 8.13044 h -0.2924 z m 0.2924,16.08541 h -0.2924 v -1.25759 h 0.2924 z"
           id="path8638" />
      </g>
      <g
         aria-label="Binary parsing for dummies!"
         id="text6371"
         style="font-size:29.2462px;font-family:'Bungee Hairline';-inkscape-font-specification:'Bungee Hairline';fill:#ffffff;stroke:#ffffff;stroke-width:2.95483"
         transform="matrix(1.3390783,0,0,1.3390783,-504.40204,-169.00539)">
        <path
           d="m 993.662,477.45247 h -7.86723 v -15.79295 h 5.93698 q 1.1991,0 1.9595,0.26321 0.7604,0.23397 1.16984,0.67267 0.40945,0.40944 0.55568,0.96512 0.14623,0.55568 0.14623,1.1991 v 1.87175 q 0,0.87739 -0.3217,1.60854 -0.29247,0.73116 -1.55005,1.05287 1.19909,0 1.95949,0.26321 0.7604,0.23397 1.16985,0.70191 0.40945,0.43869 0.52643,1.05287 0.14623,0.61417 0.14623,1.34532 v 1.87176 q 0,0.64341 -0.14623,1.19909 -0.14623,0.52643 -0.55568,0.90663 -0.3802,0.3802 -1.1406,0.61417 -0.7604,0.20473 -1.98874,0.20473 z m -1.93025,-15.50049 h -5.64452 v 7.3408 h 5.64452 q 1.1991,0 1.901,-0.20473 0.70191,-0.23397 1.05287,-0.58492 0.3802,-0.3802 0.46794,-0.84814 0.11698,-0.49719 0.11698,-1.02362 v -1.87175 q 0,-1.16985 -0.67266,-1.98875 -0.67266,-0.81889 -2.86613,-0.81889 z m 1.9595,7.63326 h -7.60402 v 7.57477 h 7.57477 q 2.19347,0 2.86613,-0.70191 0.67266,-0.73116 0.67266,-1.93025 v -1.87176 q 0,-1.31608 -0.67266,-2.19346 -0.64342,-0.87739 -2.83688,-0.87739 z"
           id="path8641" />
        <path
           d="m 1015.2165,477.45247 h -9.3003 v -0.29246 h 4.5331 v -15.20803 h -4.5331 v -0.29246 h 9.3003 v 0.29246 h -4.4747 v 15.20803 h 4.4747 z"
           id="path8643" />
        <path
           d="m 1025.3064,461.89349 10.7626,12.10793 v -12.3419 h 0.2925 v 15.79295 h -0.2925 v -3.01236 l -11.0551,-12.40039 q -0.029,-0.0292 -0.088,-0.0585 -0.029,-0.0292 -0.059,-0.0292 -0.029,0 -0.059,0.0292 0,0.0292 0,0.0585 v 15.41275 h -0.2925 v -15.47124 q 0,-0.17548 0.117,-0.26322 0.117,-0.0877 0.234,-0.0877 0.117,0 0.2047,0.0585 0.088,0.0585 0.234,0.20472 z"
           id="path8645" />
        <path
           d="m 1046.4221,471.22303 v 0.90663 h 11.4061 v -0.90663 q 0,-0.78965 -0.1463,-1.46231 -0.1169,-0.67267 -0.3217,-1.25759 l -2.018,-4.76713 q -0.3217,-0.7604 -0.6726,-1.25759 -0.351,-0.52643 -1.1699,-0.52643 h -2.8661 q -0.8774,0 -1.2283,0.52643 -0.351,0.49719 -0.6435,1.22834 l -1.8717,4.79638 q -0.2047,0.58492 -0.351,1.25759 -0.117,0.67266 -0.117,1.46231 z m 11.4061,6.22944 v -5.03035 h -11.4061 v 5.03035 h -0.2924 v -6.22944 q 0,-0.8189 0.117,-1.49156 0.1462,-0.70191 0.3802,-1.34532 l 1.8717,-4.79638 q 0.3217,-0.8189 0.7312,-1.37457 0.4094,-0.55568 1.4038,-0.55568 h 2.8661 q 0.9652,0 1.3454,0.55568 0.4094,0.55567 0.7604,1.40381 l 2.0179,4.76714 q 0.234,0.64341 0.351,1.34532 0.1462,0.67266 0.1462,1.49156 v 6.22944 z"
           id="path8647" />
        <path
           d="m 1074.6447,461.95198 h -6.3756 v 8.45215 h 6.3756 q 1.8133,0 2.4275,-0.87738 0.6141,-0.87739 0.6141,-2.48593 v -2.04723 q 0,-1.34533 -0.7604,-2.19347 -0.7311,-0.84814 -2.2812,-0.84814 z m -6.3756,15.50049 h -0.2925 v -15.79295 h 6.6681 q 1.6963,0 2.5152,0.96512 0.8189,0.93588 0.8189,2.36895 v 2.01798 q 0,1.34533 -0.351,2.22271 -0.3509,0.84814 -1.4038,1.16985 h 0.3217 q 1.784,0 2.6614,0.8189 0.8774,0.78964 0.8774,2.31045 v 3.91899 h -0.2924 v -3.91899 q 0,-1.43307 -0.7897,-2.13498 -0.7896,-0.73115 -2.4567,-0.73115 h -8.2766 z"
           id="path8649" />
        <path
           d="m 1094.3274,472.45137 h -0.2047 v 5.0011 h -0.2925 v -5.0011 h -0.2925 q -0.6434,0 -1.1698,-0.29247 -0.4972,-0.29246 -0.9651,-0.93587 l -2.8369,-3.94824 q -0.3217,-0.43869 -0.3802,-1.02362 -0.059,-0.58492 -0.059,-1.22834 v -3.36331 h 0.2925 v 3.36331 q 0,0.61417 0.058,1.16985 0.058,0.52643 0.351,0.96512 l 2.8369,3.94824 q 0.3802,0.58493 0.8774,0.8189 0.4972,0.23396 0.9943,0.23396 h 0.7897 q 0.5557,0 0.9944,-0.23396 0.4679,-0.26322 0.9066,-0.8189 l 2.9246,-3.94824 q 0.2925,-0.3802 0.351,-0.93587 0.059,-0.58493 0.059,-1.1991 v -3.36331 h 0.2924 v 3.36331 q 0,0.64342 -0.059,1.22834 -0.029,0.55568 -0.3802,1.02362 l -2.9246,3.94824 q -0.4679,0.64341 -0.9944,0.93587 -0.4971,0.29247 -1.1698,0.29247 z"
           id="path8651" />
        <path
           d="m 1122.1698,471.69097 h -6.0247 v 5.7615 h -0.2925 v -15.79295 h 6.3172 q 1.3745,0 2.2227,0.32171 0.8774,0.29246 1.3453,0.81889 0.468,0.52643 0.6434,1.25759 0.1755,0.73115 0.1755,1.57929 v 2.16422 q 0,0.84814 -0.1755,1.5793 -0.1754,0.7019 -0.6434,1.22834 -0.4679,0.49718 -1.3453,0.78964 -0.8482,0.29247 -2.2227,0.29247 z m -6.0247,-0.29247 h 6.0247 q 1.2868,0 2.0765,-0.26321 0.8189,-0.26322 1.2575,-0.73116 0.4387,-0.49718 0.585,-1.1406 0.1754,-0.67266 0.1754,-1.46231 V 465.637 q 0,-0.78965 -0.1754,-1.46231 -0.1463,-0.67266 -0.585,-1.16985 -0.4386,-0.49718 -1.2575,-0.7604 -0.7897,-0.29246 -2.0765,-0.29246 h -6.0247 z"
           id="path8653" />
        <path
           d="m 1135.1843,471.22303 v 0.90663 h 11.406 v -0.90663 q 0,-0.78965 -0.1462,-1.46231 -0.117,-0.67267 -0.3217,-1.25759 l -2.018,-4.76713 q -0.3217,-0.7604 -0.6727,-1.25759 -0.3509,-0.52643 -1.1698,-0.52643 h -2.8661 q -0.8774,0 -1.2284,0.52643 -0.3509,0.49719 -0.6434,1.22834 l -1.8717,4.79638 q -0.2048,0.58492 -0.351,1.25759 -0.117,0.67266 -0.117,1.46231 z m 11.406,6.22944 v -5.03035 h -11.406 v 5.03035 h -0.2924 v -6.22944 q 0,-0.8189 0.1169,-1.49156 0.1463,-0.70191 0.3802,-1.34532 l 1.8718,-4.79638 q 0.3217,-0.8189 0.7312,-1.37457 0.4094,-0.55568 1.4038,-0.55568 h 2.8661 q 0.9651,0 1.3453,0.55568 0.4095,0.55567 0.7604,1.40381 l 2.018,4.76714 q 0.234,0.64341 0.351,1.34532 0.1462,0.67266 0.1462,1.49156 v 6.22944 z"
           id="path8655" />
        <path
           d="m 1163.4069,461.95198 h -6.3757 v 8.45215 h 6.3757 q 1.8132,0 2.4274,-0.87738 0.6142,-0.87739 0.6142,-2.48593 v -2.04723 q 0,-1.34533 -0.7604,-2.19347 -0.7312,-0.84814 -2.2812,-0.84814 z m -6.3757,15.50049 h -0.2925 v -15.79295 h 6.6682 q 1.6963,0 2.5151,0.96512 0.8189,0.93588 0.8189,2.36895 v 2.01798 q 0,1.34533 -0.3509,2.22271 -0.351,0.84814 -1.4038,1.16985 h 0.3217 q 1.784,0 2.6614,0.8189 0.8774,0.78964 0.8774,2.31045 v 3.91899 h -0.2925 v -3.91899 q 0,-1.43307 -0.7896,-2.13498 -0.7897,-0.73115 -2.4567,-0.73115 h -8.2767 z"
           id="path8657" />
        <path
           d="m 1187.4473,461.65952 v 0.29246 h -6.4927 q -1.2283,0 -1.9595,0.67266 -0.7311,0.67267 -0.7311,1.69628 v 2.39819 q 0,1.02362 0.4094,1.43307 0.4094,0.40944 1.0821,0.52643 l 6.171,1.25758 q 0.8773,0.17548 1.433,0.7604 0.5849,0.58493 0.5849,2.10573 v 1.69628 q 0,1.28683 -0.8773,2.13497 -0.8774,0.8189 -2.369,0.8189 h -7.2823 v -0.29246 h 7.2823 q 1.3453,0 2.135,-0.73116 0.8189,-0.7604 0.8189,-1.93025 v -1.69628 q 0,-1.37457 -0.4972,-1.87176 -0.4679,-0.52643 -1.2868,-0.7019 l -6.171,-1.25759 q -0.7604,-0.14623 -1.2576,-0.58492 -0.4679,-0.46794 -0.4679,-1.66704 v -2.39819 q 0,-1.16984 0.8189,-1.901 0.8189,-0.7604 2.1642,-0.7604 z"
           id="path8659" />
        <path
           d="m 1205.7846,477.45247 h -9.3003 v -0.29246 h 4.5332 v -15.20803 h -4.5332 v -0.29246 h 9.3003 v 0.29246 h -4.4747 v 15.20803 h 4.4747 z"
           id="path8661" />
        <path
           d="m 1215.8745,461.89349 10.7626,12.10793 v -12.3419 h 0.2925 v 15.79295 h -0.2925 v -3.01236 l -11.055,-12.40039 q -0.029,-0.0292 -0.088,-0.0585 -0.029,-0.0292 -0.059,-0.0292 -0.029,0 -0.058,0.0292 0,0.0292 0,0.0585 v 15.41275 h -0.2924 v -15.47124 q 0,-0.17548 0.117,-0.26322 0.117,-0.0877 0.2339,-0.0877 0.117,0 0.2048,0.0585 0.088,0.0585 0.2339,0.20472 z"
           id="path8663" />
        <path
           d="m 1242.1669,477.45247 q -1.6086,0 -2.6322,-0.20473 -1.0236,-0.20472 -1.6085,-0.64341 -0.5849,-0.46794 -0.8189,-1.16985 -0.2047,-0.73116 -0.2047,-1.75477 v -8.18894 q 0,-2.07648 0.9358,-2.95387 0.9359,-0.87738 3.7436,-0.87738 h 5.0595 v 0.29246 h -5.0595 q -2.5737,0 -3.4803,0.81889 -0.9067,0.78965 -0.9067,2.7199 v 8.18894 q 0,1.901 0.9944,2.69065 1.0236,0.78965 3.9775,0.78965 h 5.5275 v -5.58603 h 0.2925 v 5.87849 z"
           id="path8665" />
        <path
           d="m 1264.511,477.45247 v -15.79295 h 9.3295 v 0.29246 h -9.037 v 8.36441 h 6.6681 v 0.29247 h -6.6681 v 6.84361 z"
           id="path8667" />
        <path
           d="m 1293.9035,473.88443 q 0,1.75477 -1.2576,2.86613 -1.2576,1.08211 -4.6794,1.08211 -3.4218,0 -4.6502,-1.08211 -1.2283,-1.11136 -1.2283,-2.86613 v -8.62763 q 0,-1.75477 1.2283,-2.83688 1.2284,-1.11136 4.6502,-1.11136 3.4218,0 4.6794,1.11136 1.2576,1.08211 1.2576,2.83688 z m -11.523,0 q 0,1.63779 1.1698,2.6614 1.1699,0.99438 4.4162,0.99438 3.2463,0 4.4454,-0.99438 1.1991,-1.02361 1.1991,-2.6614 v -8.62763 q 0,-1.63779 -1.1991,-2.63216 -1.1991,-1.02361 -4.4454,-1.02361 -3.2463,0 -4.4162,1.02361 -1.1698,0.99437 -1.1698,2.63216 z"
           id="path8669" />
        <path
           d="m 1310.6322,461.95198 h -6.3756 v 8.45215 h 6.3756 q 1.8133,0 2.4275,-0.87738 0.6142,-0.87739 0.6142,-2.48593 v -2.04723 q 0,-1.34533 -0.7604,-2.19347 -0.7312,-0.84814 -2.2813,-0.84814 z m -6.3756,15.50049 h -0.2925 v -15.79295 h 6.6681 q 1.6963,0 2.5152,0.96512 0.8189,0.93588 0.8189,2.36895 v 2.01798 q 0,1.34533 -0.3509,2.22271 -0.351,0.84814 -1.4039,1.16985 h 0.3218 q 1.784,0 2.6614,0.8189 0.8773,0.78964 0.8773,2.31045 v 3.91899 h -0.2924 v -3.91899 q 0,-1.43307 -0.7897,-2.13498 -0.7896,-0.73115 -2.4566,-0.73115 h -8.2767 z"
           id="path8671" />
        <path
           d="m 1332.3037,477.45247 v -15.79295 h 7.0776 q 1.4916,0 2.3982,0.32171 0.9359,0.32171 1.4331,0.87738 0.4971,0.52643 0.6726,1.28684 0.1755,0.73115 0.1755,1.57929 v 7.75024 q 0,0.84814 -0.1755,1.5793 -0.1462,0.73115 -0.6434,1.25759 -0.4972,0.52643 -1.4331,0.84814 -0.9358,0.29246 -2.4274,0.29246 z m 7.0776,-15.50049 h -6.7851 v 15.20803 h 6.7851 q 1.4038,0 2.252,-0.26322 0.8773,-0.29246 1.3453,-0.7604 0.4679,-0.49719 0.6142,-1.16985 0.1754,-0.70191 0.1754,-1.49156 v -7.75024 q 0,-0.78965 -0.1754,-1.49156 -0.1755,-0.7019 -0.6435,-1.19909 -0.4679,-0.49719 -1.3453,-0.78965 -0.8481,-0.29246 -2.2227,-0.29246 z"
           id="path8673" />
        <path
           d="m 1354.0044,461.65952 h 0.2925 v 12.19566 q 0,1.63779 1.1406,2.66141 1.1698,0.99437 4.4161,0.99437 3.2464,0 4.4162,-0.99437 1.1699,-1.02362 1.1699,-2.66141 v -12.19566 h 0.2924 v 12.19566 q 0,1.75478 -1.2283,2.86613 -1.2284,1.08211 -4.6502,1.08211 -3.4218,0 -4.6501,-1.08211 -1.1991,-1.11135 -1.1991,-2.86613 z"
           id="path8675" />
        <path
           d="m 1383.0459,468.82484 q 0.5264,0 0.7604,-0.23397 0.234,-0.23397 0.7312,-0.99437 l 3.568,-5.4398 q 0.1755,-0.29246 0.3802,-0.3802 0.234,-0.11698 0.4679,-0.11698 h 0.4972 q 0.4095,0 0.5849,0.23397 0.2048,0.20472 0.2048,0.67266 v 14.88632 h -0.2925 v -14.88632 q 0,-0.23397 -0.117,-0.40945 -0.088,-0.20472 -0.3802,-0.20472 h -0.4387 q -0.2047,0 -0.3509,0.0585 -0.1463,0.0585 -0.3217,0.35096 l -3.5681,5.3813 q -0.5264,0.78965 -0.8189,1.08211 -0.2632,0.29246 -0.9066,0.29246 -0.6434,0 -0.9359,-0.29246 -0.2632,-0.29246 -0.7896,-1.08211 l -3.5681,-5.3813 q -0.1754,-0.29246 -0.3509,-0.35096 -0.1463,-0.0585 -0.351,-0.0585 h -0.4387 q -0.2924,0 -0.3802,0.20472 -0.088,0.17548 -0.088,0.40945 v 14.88632 h -0.2925 v -14.88632 q 0,-0.46794 0.1755,-0.67266 0.2047,-0.23397 0.5849,-0.23397 h 0.4972 q 0.234,0 0.468,0.11698 0.2339,0.0877 0.4094,0.3802 l 3.568,5.4398 q 0.4972,0.7604 0.7312,0.99437 0.234,0.23397 0.7604,0.23397 z"
           id="path8677" />
        <path
           d="m 1407.8759,468.82484 q 0.5265,0 0.7604,-0.23397 0.234,-0.23397 0.7312,-0.99437 l 3.568,-5.4398 q 0.1755,-0.29246 0.3802,-0.3802 0.234,-0.11698 0.468,-0.11698 h 0.4972 q 0.4094,0 0.5849,0.23397 0.2047,0.20472 0.2047,0.67266 v 14.88632 h -0.2925 v -14.88632 q 0,-0.23397 -0.1169,-0.40945 -0.088,-0.20472 -0.3802,-0.20472 h -0.4387 q -0.2048,0 -0.351,0.0585 -0.1462,0.0585 -0.3217,0.35096 l -3.568,5.3813 q -0.5265,0.78965 -0.8189,1.08211 -0.2632,0.29246 -0.9067,0.29246 -0.6434,0 -0.9358,-0.29246 -0.2633,-0.29246 -0.7897,-1.08211 l -3.568,-5.3813 q -0.1755,-0.29246 -0.351,-0.35096 -0.1462,-0.0585 -0.3509,-0.0585 h -0.4387 q -0.2925,0 -0.3802,0.20472 -0.088,0.17548 -0.088,0.40945 v 14.88632 h -0.2924 v -14.88632 q 0,-0.46794 0.1755,-0.67266 0.2047,-0.23397 0.5849,-0.23397 h 0.4972 q 0.2339,0 0.4679,0.11698 0.234,0.0877 0.4095,0.3802 l 3.568,5.4398 q 0.4972,0.7604 0.7311,0.99437 0.234,0.23397 0.7604,0.23397 z"
           id="path8679" />
        <path
           d="m 1433.8758,477.45247 h -9.3003 v -0.29246 h 4.5332 v -15.20803 h -4.5332 v -0.29246 h 9.3003 v 0.29246 h -4.4746 v 15.20803 h 4.4746 z"
           id="path8681" />
        <path
           d="m 1453.1491,477.16001 v 0.29246 h -9.856 v -15.79295 h 9.856 v 0.29246 h -9.5635 v 7.3408 h 7.1945 v 0.29246 h -7.1945 v 7.57477 z"
           id="path8683" />
        <path
           d="m 1471.3694,461.65952 v 0.29246 h -6.4926 q -1.2284,0 -1.9595,0.67266 -0.7312,0.67267 -0.7312,1.69628 v 2.39819 q 0,1.02362 0.4095,1.43307 0.4094,0.40944 1.0821,0.52643 l 6.1709,1.25758 q 0.8774,0.17548 1.4331,0.7604 0.5849,0.58493 0.5849,2.10573 v 1.69628 q 0,1.28683 -0.8774,2.13497 -0.8774,0.8189 -2.3689,0.8189 h -7.2823 v -0.29246 h 7.2823 q 1.3453,0 2.135,-0.73116 0.8188,-0.7604 0.8188,-1.93025 v -1.69628 q 0,-1.37457 -0.4971,-1.87176 -0.468,-0.52643 -1.2869,-0.7019 l -6.1709,-1.25759 q -0.7604,-0.14623 -1.2576,-0.58492 -0.4679,-0.46794 -0.4679,-1.66704 v -2.39819 q 0,-1.16984 0.8188,-1.901 0.8189,-0.7604 2.1643,-0.7604 z"
           id="path8685" />
        <path
           d="m 1482.2783,461.65952 h 0.2924 v 8.13044 h -0.2924 z m 0.2924,16.08541 h -0.2924 v -1.25759 h 0.2924 z"
           id="path8687" />
      </g>
    </g>
  </g>
</svg>
