<?xml version="1.0" encoding="UTF-8" standalone="no"?>
<!-- Created with Inkscape (http://www.inkscape.org/) -->

<svg
   width="2000"
   height="500"
   viewBox="0 0 529.16665 132.29167"
   version="1.1"
   id="svg1"
   xml:space="preserve"
   inkscape:version="1.4 (e7c3feb100, 2024-10-09)"
   sodipodi:docname="spotlight_v1.svg"
   inkscape:export-filename="spotlight_v1.png"
   inkscape:export-xdpi="96"
   inkscape:export-ydpi="96"
   xmlns:inkscape="http://www.inkscape.org/namespaces/inkscape"
   xmlns:sodipodi="http://sodipodi.sourceforge.net/DTD/sodipodi-0.dtd"
   xmlns="http://www.w3.org/2000/svg"
   xmlns:svg="http://www.w3.org/2000/svg"><sodipodi:namedview
     id="namedview1"
     pagecolor="#ffffff"
     bordercolor="#000000"
     borderopacity="0.25"
     inkscape:showpageshadow="2"
     inkscape:pageopacity="0.0"
     inkscape:pagecheckerboard="0"
     inkscape:deskcolor="#d1d1d1"
     inkscape:document-units="mm"
     inkscape:zoom="0.31125"
     inkscape:cx="777.51004"
     inkscape:cy="131.72691"
     inkscape:window-width="1920"
     inkscape:window-height="1080"
     inkscape:window-x="0"
     inkscape:window-y="0"
     inkscape:window-maximized="1"
     inkscape:current-layer="g13" /><defs
     id="defs1"><inkscape:path-effect
       effect="powerclip"
       id="path-effect38"
       is_visible="true"
       lpeversion="1"
       inverse="true"
       flatten="false"
       hide_clip="false"
       message="" /><inkscape:path-effect
       effect="copy_rotate"
       starting_point="0,0"
       origin="108.32926,67.115517"
       id="path-effect183"
       is_visible="true"
       lpeversion="1.2"
       lpesatellites=""
       method="normal"
       num_copies="20"
       starting_angle="0"
       rotation_angle="19.5"
       gap="0"
       copies_to_360="true"
       mirror_copies="false"
       split_items="false"
       link_styles="false" /><inkscape:path-effect
       effect="powerclip"
       id="path-effect17"
       is_visible="true"
       lpeversion="1"
       inverse="true"
       flatten="false"
       hide_clip="false"
       message="" /><inkscape:path-effect
       effect="powerclip"
       id="path-effect3321"
       is_visible="true"
       lpeversion="1"
       inverse="true"
       flatten="false"
       hide_clip="false"
       message="" /><inkscape:path-effect
       effect="powerclip"
       id="path-effect3317"
       is_visible="true"
       lpeversion="1"
       inverse="true"
       flatten="false"
       hide_clip="false"
       message="" /><inkscape:path-effect
       effect="powerclip"
       id="path-effect3316"
       is_visible="true"
       lpeversion="1"
       inverse="true"
       flatten="false"
       hide_clip="false"
       message="" /><inkscape:path-effect
       effect="powerclip"
       id="path-effect3100"
       is_visible="true"
       lpeversion="1"
       inverse="true"
       flatten="false"
       hide_clip="false"
       message="" /><clipPath
       clipPathUnits="userSpaceOnUse"
       id="clipPath3065"><path
         style="fill:#efff10;fill-opacity:1;stroke:none;stroke-width:0.529167;stroke-linecap:square;stroke-linejoin:round"
         d="m 117.41678,46.2089 253.00304,17.447921 -253.2567,17.928582 v 0"
         id="path3065" /></clipPath><clipPath
       clipPathUnits="userSpaceOnUse"
       id="clipPath3066"><path
         style="fill:#efff10;fill-opacity:1;stroke:none;stroke-width:0.529167;stroke-linecap:square;stroke-linejoin:round"
         d="m 117.41678,46.2089 253.00304,17.447921 -253.2567,17.928582 v 0"
         id="path3066" /></clipPath><clipPath
       clipPathUnits="userSpaceOnUse"
       id="clipPath3067"><path
         style="fill:#efff10;fill-opacity:1;stroke:none;stroke-width:0.529167;stroke-linecap:square;stroke-linejoin:round"
         d="m 117.41678,46.2089 253.00304,17.447921 -253.2567,17.928582 v 0"
         id="path3067" /></clipPath><clipPath
       clipPathUnits="userSpaceOnUse"
       id="clipPath3068"><path
         style="fill:#efff10;fill-opacity:1;stroke:none;stroke-width:0.529167;stroke-linecap:square;stroke-linejoin:round"
         d="m 117.41678,46.2089 253.00304,17.447921 -253.2567,17.928582 v 0"
         id="path3068" /></clipPath><clipPath
       clipPathUnits="userSpaceOnUse"
       id="clipPath3069"><path
         style="fill:#efff10;fill-opacity:1;stroke:none;stroke-width:0.529167;stroke-linecap:square;stroke-linejoin:round"
         d="m 117.41678,46.2089 253.00304,17.447921 -253.2567,17.928582 v 0"
         id="path3069" /></clipPath><clipPath
       clipPathUnits="userSpaceOnUse"
       id="clipPath3070"><path
         style="fill:#efff10;fill-opacity:1;stroke:none;stroke-width:0.529167;stroke-linecap:square;stroke-linejoin:round"
         d="m 117.41678,46.2089 253.00304,17.447921 -253.2567,17.928582 v 0"
         id="path3070" /></clipPath><style
       type="text/css"
       id="style1">*{stroke-linecap:butt;stroke-linejoin:round;}</style><clipPath
       id="p4c031ef80a"><rect
         height="180"
         width="180"
         x="4.5"
         y="4.5"
         id="rect2" /></clipPath><style
       type="text/css"
       id="style1-7">*{stroke-linecap:butt;stroke-linejoin:round;}</style><clipPath
       clipPathUnits="userSpaceOnUse"
       id="clipPath3094"><path
         style="font-size:48.0659px;font-family:'Dela Gothic One';-inkscape-font-specification:'Dela Gothic One';text-align:center;text-anchor:middle;fill:none;fill-opacity:1;stroke:#000000;stroke-width:0.468169;stroke-linecap:square;stroke-linejoin:round"
         d="m 80.742512,-155.07261 q -10.292215,0 -15.146188,4.44947 -4.853966,4.49442 -4.853966,12.58437 0,8.00007 4.809028,12.49448 4.853973,4.49442 15.191126,4.49442 10.382103,0 15.191137,-4.49442 4.853961,-4.49441 4.853961,-12.49448 0,-8.13489 -4.809021,-12.58437 -4.809026,-4.44947 -15.236077,-4.44947 z"
         id="path3094" /></clipPath><style
       type="text/css"
       id="style1-3">*{stroke-linecap:butt;stroke-linejoin:round;}</style><clipPath
       clipPathUnits="userSpaceOnUse"
       id="clipPath3317"><path
         style="font-size:48.0659px;font-family:'Dela Gothic One';-inkscape-font-specification:'Dela Gothic One';text-align:center;text-anchor:middle;display:block;fill:none;stroke:#000000;stroke-width:0.500688;stroke-linecap:square;stroke-linejoin:round"
         d="m 71.500518,63.368427 q 3.989472,0 5.960173,-0.288396 2.018766,-0.336459 2.787823,-1.15358 0.817118,-0.81712 0.817118,-2.403295 0,-1.586175 -0.769054,-2.355231 -0.720988,-0.817118 -2.739755,-1.105514 -1.970703,-0.288395 -6.056305,-0.288395 h -6.633094 v 7.594411 z"
         id="path3317" /></clipPath><clipPath
       clipPathUnits="userSpaceOnUse"
       id="clipPath3320"><path
         style="font-size:48.0659px;font-family:'Dela Gothic One';-inkscape-font-specification:'Dela Gothic One';text-align:center;text-anchor:middle;display:block;fill:none;stroke:#ffffff;stroke-width:0.500688;stroke-linecap:square;stroke-linejoin:round"
         d="m 71.500518,63.368427 q 3.989472,0 5.960173,-0.288396 2.018766,-0.336459 2.787823,-1.15358 0.817118,-0.81712 0.817118,-2.403295 0,-1.586175 -0.769054,-2.355231 -0.720988,-0.817118 -2.739755,-1.105514 -1.970703,-0.288395 -6.056305,-0.288395 h -6.633094 v 7.594411 z"
         id="path3321"
         inkscape:label="h" /></clipPath><clipPath
       clipPathUnits="userSpaceOnUse"
       id="clipath_lpe_path-effect17"><path
         style="font-size:48.0659px;font-family:'Dela Gothic One';-inkscape-font-specification:'Dela Gothic One';text-align:center;text-anchor:middle;display:none;fill:none;stroke:#ffffff;stroke-width:0.500688;stroke-linecap:square;stroke-linejoin:round"
         d="m 71.500518,63.368427 q 3.989472,0 5.960173,-0.288396 2.018766,-0.336459 2.787823,-1.15358 0.817118,-0.81712 0.817118,-2.403295 0,-1.586175 -0.769054,-2.355231 -0.720988,-0.817118 -2.739755,-1.105514 -1.970703,-0.288395 -6.056305,-0.288395 h -6.633094 v 7.594411 z"
         id="path17"
         inkscape:label="h" /><path
         id="lpe_path-effect17"
         style="font-size:48.0659px;font-family:'Dela Gothic One';-inkscape-font-specification:'Dela Gothic One';text-align:center;text-anchor:middle;display:block;fill:none;stroke:#ffffff;stroke-width:0.500688;stroke-linecap:square;stroke-linejoin:round"
         class="powerclip"
         d="M 47.074788,40.240471 H 97.896956 V 87.073174 H 47.074788 Z m 24.42573,23.127956 q 3.989472,0 5.960173,-0.288396 2.018766,-0.336459 2.787823,-1.15358 0.817118,-0.81712 0.817118,-2.403295 0,-1.586175 -0.769054,-2.355231 -0.720988,-0.817118 -2.739755,-1.105514 -1.970703,-0.288395 -6.056305,-0.288395 h -6.633094 v 7.594411 z" /></clipPath><clipPath
       clipPathUnits="userSpaceOnUse"
       id="clipPath640"><path
         id="path640"
         style="display:inline;fill:none;stroke:#000000;stroke-width:0.43948;stroke-linecap:square"
         d="m 132.34004,-65.674897 a 4.4823305,4.4823305 0 0 0 0.99164,6.260926 4.4823305,4.4823305 0 0 0 6.26093,-0.991637 4.4823305,4.4823305 0 0 0 -0.99165,-6.260926 4.4823305,4.4823305 0 0 0 -6.26092,0.991637 z m -9.4261,-16.017842 a 4.4823305,4.4823305 0 0 0 0.99164,6.260926 4.4823305,4.4823305 0 0 0 6.26092,-0.991637 4.4823305,4.4823305 0 0 0 -0.99164,-6.260926 4.4823305,4.4823305 0 0 0 -6.26092,0.991637 z m -18.80454,2.3e-5 a 4.4823305,4.4823305 0 0 0 0.99164,6.260926 4.4823305,4.4823305 0 0 0 6.26092,-0.991637 4.4823305,4.4823305 0 0 0 -0.99163,-6.260934 4.4823305,4.4823305 0 0 0 -6.26093,0.991645 z m -9.327692,16.017803 a 4.4823305,4.4823305 0 0 0 0.991637,6.260934 4.4823305,4.4823305 0 0 0 6.260935,-0.991644 4.4823305,4.4823305 0 0 0 -0.99165,-6.260926 4.4823305,4.4823305 0 0 0 -6.260922,0.991636 z m 9.327682,15.313446 a 4.4823305,4.4823305 0 0 0 0.99164,6.260926 4.4823305,4.4823305 0 0 0 6.26092,-0.991637 4.4823305,4.4823305 0 0 0 -0.99163,-6.260934 4.4823305,4.4823305 0 0 0 -6.26093,0.991645 z m 18.80455,5e-6 a 4.4823305,4.4823305 0 0 0 0.99164,6.260926 4.4823305,4.4823305 0 0 0 6.26092,-0.991639 4.4823305,4.4823305 0 0 0 -0.99163,-6.260932 4.4823305,4.4823305 0 0 0 -6.26093,0.991645 z m 4.70114,-7.709618 a 4.4823305,4.4823305 0 0 0 0.99164,6.260926 4.4823305,4.4823305 0 0 0 6.26093,-0.991636 4.4823305,4.4823305 0 0 0 -0.99164,-6.260932 4.4823305,4.4823305 0 0 0 -6.26093,0.991642 z m 0,-15.600555 a 4.4823305,4.4823305 0 0 0 0.99164,6.260927 4.4823305,4.4823305 0 0 0 6.26093,-0.991637 4.4823305,4.4823305 0 0 0 -0.99164,-6.260926 4.4823305,4.4823305 0 0 0 -6.26093,0.991636 z m -14.10341,-8.021107 a 4.4823305,4.4823305 0 0 0 0.99164,6.260926 4.4823305,4.4823305 0 0 0 6.26093,-0.991636 4.4823305,4.4823305 0 0 0 -0.99164,-6.260927 4.4823305,4.4823305 0 0 0 -6.26093,0.991637 z m -14.103413,8.021107 a 4.4823305,4.4823305 0 0 0 0.991633,6.260935 4.4823305,4.4823305 0 0 0 6.26093,-0.991645 4.4823305,4.4823305 0 0 0 -0.99164,-6.260926 4.4823305,4.4823305 0 0 0 -6.260923,0.991636 z m -2e-6,15.600563 a 4.4823305,4.4823305 0 0 0 0.991635,6.260934 4.4823305,4.4823305 0 0 0 6.26093,-0.991645 4.4823305,4.4823305 0 0 0 -0.99164,-6.260926 4.4823305,4.4823305 0 0 0 -6.260925,0.991637 z m 14.103405,7.709612 a 4.4823305,4.4823305 0 0 0 0.99164,6.260927 4.4823305,4.4823305 0 0 0 6.26093,-0.991637 4.4823305,4.4823305 0 0 0 -0.99164,-6.260926 4.4823305,4.4823305 0 0 0 -6.26093,0.991636 z m 9.4261,-15.313445 a 4.4823305,4.4823305 0 0 0 0.99164,6.260926 4.4823305,4.4823305 0 0 0 6.26093,-0.991639 4.4823305,4.4823305 0 0 0 -0.99164,-6.260931 4.4823305,4.4823305 0 0 0 -6.26093,0.991644 z m -4.72496,-7.996712 a 4.4823305,4.4823305 0 0 0 0.99164,6.260927 4.4823305,4.4823305 0 0 0 6.26093,-0.991637 4.4823305,4.4823305 0 0 0 -0.99164,-6.260932 4.4823305,4.4823305 0 0 0 -6.26093,0.991642 z m -9.40227,-7e-6 a 4.4823305,4.4823305 0 0 0 0.99164,6.260931 4.4823305,4.4823305 0 0 0 6.26093,-0.991642 4.4823305,4.4823305 0 0 0 -0.99164,-6.260926 4.4823305,4.4823305 0 0 0 -6.26093,0.991637 z m -4.70113,7.996719 a 4.4823305,4.4823305 0 0 0 0.99164,6.260926 4.4823305,4.4823305 0 0 0 6.26092,-0.991636 4.4823305,4.4823305 0 0 0 -0.99163,-6.260932 4.4823305,4.4823305 0 0 0 -6.26093,0.991642 z m 14.10341,7.603838 a 4.4823305,4.4823305 0 0 0 0.99163,6.260931 4.4823305,4.4823305 0 0 0 6.26093,-0.991642 4.4823305,4.4823305 0 0 0 -0.99164,-6.260926 4.4823305,4.4823305 0 0 0 -6.26092,0.991637 z m -9.40228,-8e-6 a 4.4823305,4.4823305 0 0 0 0.99163,6.260932 4.4823305,4.4823305 0 0 0 6.26093,-0.991645 4.4823305,4.4823305 0 0 0 -0.99163,-6.260926 4.4823305,4.4823305 0 0 0 -6.26093,0.991639 z m 4.70113,-7.603827 a 4.4823305,4.4823305 0 0 0 0.99164,6.260926 4.4823305,4.4823305 0 0 0 6.26093,-0.991637 4.4823305,4.4823305 0 0 0 -0.99164,-6.260926 4.4823305,4.4823305 0 0 0 -6.26093,0.991637 z" /></clipPath><clipPath
       clipPathUnits="userSpaceOnUse"
       id="clipPath39"><path
         style="font-size:48.0659px;font-family:'Dela Gothic One';-inkscape-font-specification:'Dela Gothic One';text-align:center;text-anchor:middle;display:block;fill:#000000;stroke:#000000;stroke-width:0.517009;stroke-linecap:square;stroke-linejoin:round"
         d="m 182.35655,58.825008 q -7.79234,-0.248164 -15.13798,-0.297797 V 84.435483 H 154.81039 V 58.527211 q -7.39528,0.04964 -15.08834,0.297797 V 48.402139 h 42.6345 z"
         id="path39"
         clip-path="none" /></clipPath><clipPath
       clipPathUnits="userSpaceOnUse"
       id="clipPath40"><path
         style="font-size:48.0659px;font-family:'Dela Gothic One';-inkscape-font-specification:'Dela Gothic One';text-align:center;text-anchor:middle;display:inline;fill:#000000;stroke:#000000;stroke-width:0.517009;stroke-linecap:square;stroke-linejoin:round"
         d="m 198.43749,74.409677 q 14.3935,-0.09926 23.82371,-0.496326 -0.64523,2.531266 -0.79413,4.864005 -0.1489,2.332738 -0.1489,5.658127 h -34.99105 q 0.39705,-9.628743 0.39705,-18.016672 0,-8.387927 -0.39705,-18.016672 h 12.11037 z"
         id="path40"
         clip-path="none" /></clipPath><clipPath
       clipPathUnits="userSpaceOnUse"
       id="clipPath41"><path
         style="font-size:48.0659px;font-family:'Dela Gothic One';-inkscape-font-specification:'Dela Gothic One';text-align:center;text-anchor:middle;display:inline;fill:#000000;stroke:#000000;stroke-width:0.517009;stroke-linecap:square;stroke-linejoin:round"
         d="m 255.06847,58.279048 q -5.90629,-0.297797 -8.73536,-0.34743 v 16.974386 q 2.8787,-0.04964 8.73536,-0.34743 v 9.876909 h -28.8366 v -9.876909 q 5.70776,0.297797 8.68572,0.34743 V 57.931618 q -2.97796,0.04964 -8.68572,0.34743 v -9.876909 h 28.8366 z"
         id="path41"
         clip-path="none" /></clipPath><clipPath
       clipPathUnits="userSpaceOnUse"
       id="clipPath42"><path
         style="font-size:48.0659px;font-family:'Dela Gothic One';-inkscape-font-specification:'Dela Gothic One';text-align:center;text-anchor:middle;display:inline;fill:#000000;stroke:#000000;stroke-width:0.517009;stroke-linecap:square;stroke-linejoin:round"
         d="m 279.48773,63.887542 h 21.19318 v 20.547941 h -8.73538 l -1.04227,-8.784989 q -1.489,4.715108 -5.31069,6.998213 -3.82175,2.283105 -9.33096,2.283105 -5.01292,0 -8.93389,-2.233474 -3.87135,-2.23347 -6.10483,-6.402618 -2.18383,-4.169148 -2.18383,-9.728012 0,-8.884253 5.31069,-14.046054 5.3107,-5.161802 16.52771,-5.161802 6.40262,0 11.26662,2.084573 4.91363,2.084576 8.33829,6.452254 -2.23348,1.14155 -8.73535,4.566208 l -1.24082,0.694857 q -1.93569,-1.935676 -4.5166,-2.878696 -2.58088,-0.992656 -5.45959,-0.992656 -4.76473,0 -7.09748,2.531269 -2.33272,2.481635 -2.33272,6.154457 0,3.970615 2.48163,6.40262 2.53127,2.432002 7.69308,2.432002 2.23345,0 4.31805,-0.645226 2.13418,-0.645226 3.57354,-2.233472 h -9.67838 z"
         id="path42"
         clip-path="none" /></clipPath><clipPath
       clipPathUnits="userSpaceOnUse"
       id="clipPath43"><path
         style="font-size:48.0659px;font-family:'Dela Gothic One';-inkscape-font-specification:'Dela Gothic One';text-align:center;text-anchor:middle;display:inline;fill:#000000;stroke:#000000;stroke-width:0.517009;stroke-linecap:square;stroke-linejoin:round"
         d="m 346.24375,48.402139 q -0.34743,8.387926 -0.34743,18.016672 0,9.628746 0.34743,18.016672 H 334.58004 V 70.935386 h -18.26482 v 13.500097 h -11.66368 q 0.39706,-9.628743 0.39706,-18.016672 0,-8.387927 -0.39706,-18.016672 h 11.66368 v 13.500097 h 18.26482 V 48.402139 Z"
         id="path43"
         clip-path="none" /></clipPath><clipPath
       clipPathUnits="userSpaceOnUse"
       id="clipPath44"><path
         style="font-size:48.0659px;font-family:'Dela Gothic One';-inkscape-font-specification:'Dela Gothic One';text-align:center;text-anchor:middle;display:inline;fill:#000000;stroke:#000000;stroke-width:0.500688;stroke-linecap:square;stroke-linejoin:round"
         d="m 385.17858,56.30274 q -7.54633,-0.240329 -14.6601,-0.288395 V 81.104743 H 358.50202 V 56.014345 q -7.16183,0.04807 -14.61203,0.288395 V 46.208901 h 41.28859 z"
         id="path44"
         clip-path="none" /></clipPath><clipPath
       clipPathUnits="userSpaceOnUse"
       id="clipPath8"><path
         style="font-size:48.0659px;font-family:'Dela Gothic One';-inkscape-font-specification:'Dela Gothic One';text-align:center;text-anchor:middle;display:inline;fill:#000000;stroke:#000000;stroke-width:0.517009;stroke-linecap:square;stroke-linejoin:round"
         d="m 246.55266,58.82501 q -7.79234,-0.248166 -15.13798,-0.297796 V 84.435483 H 219.0065 V 58.527214 q -7.39527,0.04964 -15.08834,0.297796 V 48.402141 h 42.6345 z"
         id="path9"
         clip-path="none" /></clipPath><clipPath
       clipPathUnits="userSpaceOnUse"
       id="clipPath9"><path
         style="font-size:48.0659px;font-family:'Dela Gothic One';-inkscape-font-specification:'Dela Gothic One';text-align:center;text-anchor:middle;display:inline;fill:#000000;stroke:#000000;stroke-width:0.517009;stroke-linecap:square;stroke-linejoin:round"
         d="m 262.63361,74.409677 q 14.3935,-0.09926 23.8237,-0.496326 -0.64522,2.531266 -0.79412,4.864007 -0.14891,2.332736 -0.14891,5.658125 h -34.99105 q 0.39706,-9.62874 0.39706,-18.016672 0,-8.387927 -0.39706,-18.01667 h 12.11038 z"
         id="path10"
         clip-path="none" /></clipPath><clipPath
       clipPathUnits="userSpaceOnUse"
       id="clipPath18"><path
         style="font-size:48.0659px;font-family:'Dela Gothic One';-inkscape-font-specification:'Dela Gothic One';text-align:center;text-anchor:middle;display:inline;fill:#000000;stroke:#000000;stroke-width:0.517009;stroke-linecap:square;stroke-linejoin:round"
         d="m 319.26458,58.27905 q -5.90629,-0.297799 -8.73535,-0.347432 v 16.974386 q 2.87869,-0.04964 8.73535,-0.34743 v 9.876909 h -28.83659 v -9.876909 q 5.70775,0.297799 8.68571,0.34743 V 57.931618 q -2.97796,0.04964 -8.68571,0.347432 v -9.876909 h 28.83659 z"
         id="path19"
         clip-path="none" /></clipPath><clipPath
       clipPathUnits="userSpaceOnUse"
       id="clipPath19"><path
         style="font-size:48.0659px;font-family:'Dela Gothic One';-inkscape-font-specification:'Dela Gothic One';text-align:center;text-anchor:middle;display:inline;fill:#000000;stroke:#000000;stroke-width:0.517009;stroke-linecap:square;stroke-linejoin:round"
         d="m 343.68385,63.887545 h 21.19318 v 20.547938 h -8.73538 l -1.04227,-8.784987 q -1.489,4.715108 -5.31069,6.998211 -3.82175,2.283105 -9.33096,2.283105 -5.01292,0 -8.93389,-2.233472 -3.87136,-2.233472 -6.10484,-6.40262 -2.18384,-4.169148 -2.18384,-9.728009 0,-8.884254 5.31071,-14.046055 5.31069,-5.161804 16.5277,-5.161804 6.40263,0 11.26662,2.084573 4.91363,2.084578 8.33829,6.452256 -2.23348,1.14155 -8.73535,4.566206 l -1.24081,0.694859 q -1.93569,-1.935678 -4.5166,-2.878696 -2.58088,-0.992658 -5.4596,-0.992658 -4.76472,0 -7.09747,2.531271 -2.33273,2.481633 -2.33273,6.154455 0,3.970618 2.48164,6.40262 2.53127,2.432005 7.69307,2.432005 2.23346,0 4.31806,-0.645229 2.13418,-0.645223 3.57354,-2.233469 h -9.67838 z"
         id="path20"
         clip-path="none" /></clipPath><clipPath
       clipPathUnits="userSpaceOnUse"
       id="clipPath20"><path
         style="font-size:48.0659px;font-family:'Dela Gothic One';-inkscape-font-specification:'Dela Gothic One';text-align:center;text-anchor:middle;display:inline;fill:#000000;stroke:#000000;stroke-width:0.517009;stroke-linecap:square;stroke-linejoin:round"
         d="m 410.43987,48.402141 q -0.34743,8.387924 -0.34743,18.01667 0,9.628746 0.34743,18.016672 H 398.77616 V 70.935389 h -18.26482 v 13.500094 h -11.66368 q 0.39706,-9.62874 0.39706,-18.016672 0,-8.387927 -0.39706,-18.01667 h 11.66368 v 13.500098 h 18.26482 V 48.402141 Z"
         id="path21"
         clip-path="none" /></clipPath><clipPath
       clipPathUnits="userSpaceOnUse"
       id="clipPath21"><path
         style="font-size:48.0659px;font-family:'Dela Gothic One';-inkscape-font-specification:'Dela Gothic One';text-align:center;text-anchor:middle;display:inline;fill:#000000;stroke:#000000;stroke-width:0.517009;stroke-linecap:square;stroke-linejoin:round"
         d="M 457.04492,58.82501 Q 449.2526,58.576844 441.90695,58.527214 V 84.435483 H 429.49878 V 58.527214 q -7.39529,0.04964 -15.08834,0.297796 V 48.402141 h 42.63448 z"
         id="path22"
         clip-path="none" /></clipPath><clipPath
       clipPathUnits="userSpaceOnUse"
       id="clipPath3"><rect
         style="fill:#000000;stroke-width:1.00103"
         id="rect4"
         width="1088.6904"
         height="1105.9835"
         x="81.696304"
         y="58.208908" /></clipPath><clipPath
       clipPathUnits="userSpaceOnUse"
       id="clipPath5"><rect
         style="fill:#000000;stroke-width:1.00248"
         id="rect6"
         width="1084.5909"
         height="1109.5479"
         x="-218.21304"
         y="273.95197" /></clipPath><clipPath
       clipPathUnits="userSpaceOnUse"
       id="clipPath24"><path
         id="path25"
         style="display:inline;fill:none;stroke:#000000;stroke-width:5.5806;stroke-linecap:square;stroke-linejoin:round;stroke-dasharray:none"
         d="m 818.95063,655.92953 a 51.658963,51.658963 0 0 1 11.42867,-72.15733 51.658963,51.658963 0 0 1 72.15725,11.42864 51.658963,51.658963 0 0 1 -11.42867,72.15733 51.658963,51.658963 0 0 1 -72.15725,-11.42864 z M 710.31461,840.53556 a 51.658963,51.658963 0 0 1 11.42867,-72.15733 51.658963,51.658963 0 0 1 72.15725,11.42863 51.658963,51.658963 0 0 1 -11.42868,72.15736 51.658963,51.658963 0 0 1 -72.15724,-11.42866 z m -216.72288,-2.4e-4 a 51.658963,51.658963 0 0 1 11.42867,-72.15737 51.658963,51.658963 0 0 1 72.15736,11.42869 51.658963,51.658963 0 0 1 -11.42855,72.15736 51.658963,51.658963 0 0 1 -72.15748,-11.42868 z M 386.09004,655.92971 a 51.658963,51.658963 0 0 1 11.42856,-72.15739 51.658963,51.658963 0 0 1 72.15732,11.42871 51.658963,51.658963 0 0 1 -11.42867,72.15732 51.658963,51.658963 0 0 1 -72.15721,-11.42864 z M 493.59162,479.4419 a 51.658963,51.658963 0 0 1 11.42878,-72.15732 51.658963,51.658963 0 0 1 72.15725,11.42864 51.658963,51.658963 0 0 1 -11.42856,72.1574 51.658963,51.658963 0 0 1 -72.15747,-11.42872 z m 216.72287,-5e-5 a 51.658963,51.658963 0 0 1 11.42879,-72.15732 51.658963,51.658963 0 0 1 72.15725,11.42864 51.658963,51.658963 0 0 1 -11.42855,72.15741 51.658963,51.658963 0 0 1 -72.15749,-11.42873 z m 54.18086,88.8535 a 51.658963,51.658963 0 0 1 11.42868,-72.15731 51.658963,51.658963 0 0 1 72.15737,11.42863 51.658963,51.658963 0 0 1 -11.42869,72.15739 51.658963,51.658963 0 0 1 -72.15736,-11.42871 z m 0,179.79677 a 51.658963,51.658963 0 0 1 11.42868,-72.15732 51.658963,51.658963 0 0 1 72.15737,11.42863 51.658963,51.658963 0 0 1 -11.42869,72.15733 51.658963,51.658963 0 0 1 -72.15736,-11.42864 z m -162.54213,92.44344 a 51.658963,51.658963 0 0 1 11.42868,-72.1573 51.658963,51.658963 0 0 1 72.15725,11.4286 51.658963,51.658963 0 0 1 -11.42868,72.15736 51.658963,51.658963 0 0 1 -72.15725,-11.42866 z m -162.5422,-92.44344 a 51.658963,51.658963 0 0 1 11.42864,-72.1574 51.658963,51.658963 0 0 1 72.15736,11.42872 51.658963,51.658963 0 0 1 -11.42868,72.15732 51.658963,51.658963 0 0 1 -72.15732,-11.42864 z m 0,-179.79685 a 51.658963,51.658963 0 0 1 11.42864,-72.15741 51.658963,51.658963 0 0 1 72.15736,11.42873 51.658963,51.658963 0 0 1 -11.42868,72.15732 51.658963,51.658963 0 0 1 -72.15732,-11.42864 z m 162.54209,-88.85346 a 51.658963,51.658963 0 0 1 11.42868,-72.15732 51.658963,51.658963 0 0 1 72.15736,11.42863 51.658963,51.658963 0 0 1 -11.42868,72.15733 51.658963,51.658963 0 0 1 -72.15736,-11.42864 z m 108.63602,176.48783 a 51.658963,51.658963 0 0 1 11.42868,-72.15732 51.658963,51.658963 0 0 1 72.15725,11.42864 51.658963,51.658963 0 0 1 -11.42857,72.15739 51.658963,51.658963 0 0 1 -72.15736,-11.42871 z m -54.45527,92.16227 a 51.658963,51.658963 0 0 1 11.42867,-72.15732 51.658963,51.658963 0 0 1 72.15725,11.42864 51.658963,51.658963 0 0 1 -11.42856,72.15739 51.658963,51.658963 0 0 1 -72.15736,-11.42871 z m -108.36138,10e-5 a 51.658963,51.658963 0 0 1 11.42867,-72.15739 51.658963,51.658963 0 0 1 72.15736,11.4287 51.658963,51.658963 0 0 1 -11.42866,72.15732 51.658963,51.658963 0 0 1 -72.15737,-11.42863 z m -54.18075,-92.16239 a 51.658963,51.658963 0 0 1 11.42867,-72.15732 51.658963,51.658963 0 0 1 72.15736,11.42863 51.658963,51.658963 0 0 1 -11.42867,72.1574 51.658963,51.658963 0 0 1 -72.15736,-11.42871 z m 162.54213,-87.63441 a 51.658963,51.658963 0 0 1 11.42867,-72.15738 51.658963,51.658963 0 0 1 72.15736,11.42871 51.658963,51.658963 0 0 1 -11.42867,72.15731 51.658963,51.658963 0 0 1 -72.15736,-11.42864 z m -108.36138,1.1e-4 a 51.658963,51.658963 0 0 1 11.42856,-72.1574 51.658963,51.658963 0 0 1 72.15736,11.42872 51.658963,51.658963 0 0 1 -11.42867,72.15732 51.658963,51.658963 0 0 1 -72.15725,-11.42864 z m 54.18063,87.63428 a 51.658963,51.658963 0 0 1 11.42868,-72.15734 51.658963,51.658963 0 0 1 72.15736,11.42864 51.658963,51.658963 0 0 1 -11.42868,72.15732 51.658963,51.658963 0 0 1 -72.15736,-11.42862 z"
         inkscape:label="hive" /></clipPath></defs><rect
     style="display:inline;opacity:1;fill:#ffffff;fill-opacity:1;stroke:none;stroke-width:0.61103;stroke-linecap:square;stroke-linejoin:round"
     id="rect3318"
     width="529.16669"
     height="132.29167"
     x="-6.6174449e-24"
     y="0"
     inkscape:label="Background"
     sodipodi:insensitive="true" /><path
     style="display:inline;fill:#eaf961;fill-opacity:1;stroke:none;stroke-width:1.5;stroke-linecap:square;stroke-linejoin:round;stroke-dasharray:none;stroke-opacity:1"
     d="M 178.28638,17.050765 495.90542,66.449318 178.02797,115.28044 h 3e-5"
     id="path3065-5"
     sodipodi:nodetypes="cccc"
     inkscape:label="light" /><g
     id="g12"
     inkscape:label="TLIGHT"
     transform="matrix(1.1479844,0,0,1.1479844,70.669261,-6.6277188)"><path
       style="font-size:48.0659px;font-family:'Dela Gothic One';-inkscape-font-specification:'Dela Gothic One';text-align:center;text-anchor:middle;display:inline;fill:#000000;stroke:#000000;stroke-width:1.93686;stroke-linecap:square;stroke-linejoin:round;stroke-dasharray:none"
       d="m 385.17858,56.30274 q -7.54634,-0.240329 -14.66009,-0.288395 V 81.104744 H 358.50201 V 56.014345 q -7.16182,0.04807 -14.61203,0.288395 V 46.208901 h 41.2886 z"
       id="path1"
       clip-path="none" /><path
       style="font-size:48.0659px;font-family:'Dela Gothic One';-inkscape-font-specification:'Dela Gothic One';text-align:center;text-anchor:middle;display:inline;fill:#000000;stroke:#000000;stroke-width:1.93686;stroke-linecap:square;stroke-linejoin:round;stroke-dasharray:none"
       d="m 340.04475,46.208901 q -0.33646,8.123137 -0.33646,17.447922 0,9.324784 0.33646,17.447921 H 328.74926 V 68.030819 h -17.68825 v 13.073925 h -11.29548 q 0.38452,-9.324784 0.38452,-17.447921 0,-8.123137 -0.38452,-17.447922 h 11.29548 v 13.073925 h 17.68825 V 46.208901 Z"
       id="path2"
       clip-path="none" /><path
       style="font-size:48.0659px;font-family:'Dela Gothic One';-inkscape-font-specification:'Dela Gothic One';text-align:center;text-anchor:middle;display:inline;fill:#000000;stroke:#000000;stroke-width:1.93686;stroke-linecap:square;stroke-linejoin:round;stroke-dasharray:none"
       d="m 275.3961,61.205462 h 20.52414 v 19.899282 h -8.4596 l -1.00938,-8.507664 q -1.44198,4.56626 -5.14305,6.777292 -3.70108,2.211031 -9.03639,2.211031 -4.85466,0 -8.65186,-2.162966 -3.74914,-2.162965 -5.91211,-6.2005 -2.1149,-4.037536 -2.1149,-9.420917 0,-8.603796 5.14305,-13.602649 5.14305,-4.998854 16.00595,-4.998854 6.2005,0 10.91095,2.018768 4.75853,2.018768 8.07508,6.248567 -2.16297,1.105516 -8.4596,4.422063 l -1.20165,0.672922 q -1.87457,-1.87457 -4.374,-2.787822 -2.49942,-0.961318 -5.28725,-0.961318 -4.61432,0 -6.87342,2.451361 -2.2591,2.403295 -2.2591,5.960172 0,3.845271 2.4033,6.200501 2.45136,2.355229 7.45021,2.355229 2.16297,0 4.18174,-0.624857 2.06683,-0.624857 3.46074,-2.162966 h -9.37285 z"
       id="path3"
       clip-path="none" /><path
       style="font-size:48.0659px;font-family:'Dela Gothic One';-inkscape-font-specification:'Dela Gothic One';text-align:center;text-anchor:middle;display:inline;fill:#000000;stroke:#000000;stroke-width:1.93686;stroke-linecap:square;stroke-linejoin:round;stroke-dasharray:none"
       d="m 251.74771,55.774015 q -5.71984,-0.288395 -8.4596,-0.336461 v 16.438537 q 2.78782,-0.04807 8.4596,-0.336461 v 9.565114 H 223.82142 V 71.53963 q 5.52758,0.288395 8.41153,0.336461 V 55.437554 q -2.88395,0.04807 -8.41153,0.336461 v -9.565114 h 27.92629 z"
       id="path4"
       clip-path="none" /><path
       style="font-size:48.0659px;font-family:'Dela Gothic One';-inkscape-font-specification:'Dela Gothic One';text-align:center;text-anchor:middle;display:inline;fill:#000000;stroke:#000000;stroke-width:1.93686;stroke-linecap:square;stroke-linejoin:round;stroke-dasharray:none"
       d="m 196.90446,71.395432 q 13.93912,-0.09613 23.07164,-0.480659 -0.62486,2.451361 -0.76906,4.710458 -0.1442,2.259098 -0.1442,5.479513 h -33.88645 q 0.38452,-9.324784 0.38452,-17.447921 0,-8.123137 -0.38452,-17.447922 h 11.72807 z"
       id="path5"
       clip-path="none" /><path
       style="font-size:48.0659px;font-family:'Dela Gothic One';-inkscape-font-specification:'Dela Gothic One';text-align:center;text-anchor:middle;display:inline;fill:#000000;stroke:#000000;stroke-width:1.93686;stroke-linecap:square;stroke-linejoin:round;stroke-dasharray:none"
       d="m 181.33116,56.30274 q -7.54635,-0.240329 -14.6601,-0.288395 V 81.104744 H 154.65458 V 56.014345 q -7.16182,0.04807 -14.61203,0.288395 V 46.208901 h 41.28861 z"
       id="path6"
       clip-path="none" /><path
       style="display:inline;fill:#eaf961;fill-opacity:1;stroke:none;stroke-width:0.546416;stroke-linecap:square;stroke-linejoin:round"
       d="m 148.74924,21.416649 293.05583,45.002164 -293.07372,44.456197 0.0179,1e-5"
       id="path13"
       sodipodi:nodetypes="cccc"
       inkscape:label="light"
       transform="matrix(0.96843194,0,0,0.96843194,-57.438311,-0.66527687)"
       clip-path="url(#clipPath21)" /><path
       style="display:inline;fill:#eaf961;fill-opacity:1;stroke:none;stroke-width:0.546416;stroke-linecap:square;stroke-linejoin:round"
       d="m 148.74924,21.416649 293.05583,45.002164 -293.07372,44.456197 0.0179,1e-5"
       id="path12"
       sodipodi:nodetypes="cccc"
       inkscape:label="light"
       transform="matrix(0.96843194,0,0,0.96843194,-57.438311,-0.66527687)"
       clip-path="url(#clipPath20)" /><path
       style="display:inline;fill:#eaf961;fill-opacity:1;stroke:none;stroke-width:0.546416;stroke-linecap:square;stroke-linejoin:round"
       d="m 148.74924,21.416649 293.05583,45.002164 -293.07372,44.456197 0.0179,1e-5"
       id="path11"
       sodipodi:nodetypes="cccc"
       inkscape:label="light"
       transform="matrix(0.96843194,0,0,0.96843194,-57.438311,-0.66527687)"
       clip-path="url(#clipPath19)" /><path
       style="display:inline;fill:#eaf961;fill-opacity:1;stroke:none;stroke-width:0.546416;stroke-linecap:square;stroke-linejoin:round"
       d="m 148.74924,21.416649 293.05583,45.002164 -293.07372,44.456197 0.0179,1e-5"
       id="path18"
       sodipodi:nodetypes="cccc"
       inkscape:label="light"
       transform="matrix(0.96843194,0,0,0.96843194,-57.438311,-0.66527687)"
       clip-path="url(#clipPath18)" /><path
       style="display:inline;fill:#eaf961;fill-opacity:1;stroke:none;stroke-width:0.546416;stroke-linecap:square;stroke-linejoin:round"
       d="m 148.74924,21.416649 293.05583,45.002164 -293.07372,44.456197 0.0179,1e-5"
       id="path8"
       sodipodi:nodetypes="cccc"
       inkscape:label="light"
       transform="matrix(0.96843194,0,0,0.96843194,-57.438311,-0.66527687)"
       clip-path="url(#clipPath9)" /><path
       style="display:inline;fill:#eaf961;fill-opacity:1;stroke:none;stroke-width:0.546416;stroke-linecap:square;stroke-linejoin:round"
       d="m 148.74924,21.416649 293.05583,45.002164 -293.07372,44.456197 0.0179,1e-5"
       id="path7"
       sodipodi:nodetypes="cccc"
       inkscape:label="light"
       transform="matrix(0.96843194,0,0,0.96843194,-57.438311,-0.66527687)"
       clip-path="url(#clipPath8)" /></g><g
     id="g13"
     inkscape:label="O"
     style="stroke:#ffffff"
     transform="matrix(2.1913864,0,0,2.1913864,-85.95478,-72.771535)"><ellipse
       style="display:inline;fill:#eaf961;fill-opacity:1;stroke:#000000;stroke-width:0.456332;stroke-linecap:square;stroke-linejoin:round;stroke-dasharray:none;stroke-opacity:1"
       id="path45"
       cx="117.1742"
       cy="63.392456"
       rx="23.493252"
       ry="22.692225" /><g
       id="g48"
       inkscape:label="curves"
       transform="matrix(0.45633212,0,0,0.45633212,39.223927,33.207989)"
       style="display:inline;stroke:#ffffff"><path
         style="opacity:1;fill:none;stroke:#000000;stroke-width:0.92031;stroke-dasharray:none"
         d="m 122.652,81.325078 c 37.47929,-11.208113 30.20604,-111.341173 47.55828,-33.10751 5.72171,25.796662 7.62895,34.395543 7.62895,34.395543 l -7.62895,-34.395543 v 0 0 0"
         id="path35"
         sodipodi:nodetypes="csscccc" /><path
         style="opacity:1;fill:none;stroke:#000000;stroke-width:0.92031;stroke-dasharray:none"
         d="m 125.05485,88.923659 c 37.47929,-11.208113 35.70357,-113.793844 53.05581,-35.560181 5.72171,25.796662 7.62894,34.395543 7.62894,34.395543 l -7.62894,-34.395543 v 0 0 0"
         id="path36"
         sodipodi:nodetypes="csscccc" /><path
         style="opacity:1;fill:none;stroke:#000000;stroke-width:0.92031;stroke-dasharray:none"
         d="m 129.68866,96.053923 c 37.47928,-11.208114 38.36215,-115.034142 55.71438,-36.800479 5.72172,25.796662 7.62896,34.395543 7.62896,34.395543 l -7.62896,-34.395543 v 0 0 0"
         id="path37"
         sodipodi:nodetypes="csscccc" /><path
         style="opacity:1;fill:none;stroke:#000000;stroke-width:0.92031;stroke-dasharray:none"
         d="m 134.93713,101.80531 c 37.4793,-11.208111 39.61113,-115.991794 56.96337,-37.758131 5.72172,25.796662 7.62896,34.395543 7.62896,34.395543 L 191.9005,64.047179 v 0 0 l 2.36471,10.661411"
         id="path38"
         sodipodi:nodetypes="csscccc" /><path
         style="opacity:1;fill:none;stroke:#000000;stroke-width:0.92031;stroke-dasharray:none"
         d="m 141.56275,107.06346 c 37.4793,-11.208114 38.26338,-116.7816384 55.61562,-38.547975 l 7.62896,34.395545 -7.62896,-34.395545 v 0 0 0"
         id="path46"
         sodipodi:nodetypes="csscccc" /><path
         style="opacity:1;fill:#000000;stroke:#000000;stroke-width:1;stroke-dasharray:none"
         d="m 177.83923,82.61311 26.9681,20.29792 v 0 0 0"
         id="path47" /></g></g><g
     id="g15"
     inkscape:label="P"
     transform="matrix(1.1479844,0,0,1.1479844,6.410886,-6.9312028)"><path
       style="font-size:48.0659px;font-family:'Dela Gothic One';-inkscape-font-specification:'Dela Gothic One';text-align:center;text-anchor:middle;stroke:#000000;stroke-width:1.93686;stroke-linecap:square;stroke-linejoin:round;stroke-dasharray:none"
       d="m 74.865132,46.256967 q 9.565114,0 13.314254,3.412679 3.74914,3.364613 3.74914,9.517048 0,4.229799 -1.490043,7.209885 -1.490042,2.93202 -5.239183,4.614326 -3.74914,1.634241 -10.334168,1.634241 h -9.997707 v 8.459598 H 53.043214 q 0.384527,-9.324784 0.384527,-17.447921 0,-8.123137 -0.384527,-17.447922 h 11.824211 v 0.04807 z"
       id="path14"
       clip-path="url(#clipath_lpe_path-effect17)"
       inkscape:label="P"
       inkscape:path-effect="#path-effect17"
       inkscape:original-d="m 74.865132,46.256967 q 9.565114,0 13.314254,3.412679 3.74914,3.364613 3.74914,9.517048 0,4.229799 -1.490043,7.209885 -1.490042,2.93202 -5.239183,4.614326 -3.74914,1.634241 -10.334168,1.634241 h -9.997707 v 8.459598 H 53.043214 q 0.384527,-9.324784 0.384527,-17.447921 0,-8.123137 -0.384527,-17.447922 h 11.824211 v 0.04807 z" /><path
       style="font-size:48.0659px;font-family:'Dela Gothic One';-inkscape-font-specification:'Dela Gothic One';text-align:center;text-anchor:middle;display:block;fill:none;stroke:#000000;stroke-width:1.93686;stroke-linecap:square;stroke-linejoin:round;stroke-dasharray:none"
       d="m 71.500518,63.368427 q 3.989472,0 5.960173,-0.288396 2.018766,-0.336459 2.787823,-1.15358 0.817118,-0.81712 0.817118,-2.403295 0,-1.586175 -0.769054,-2.355231 -0.720988,-0.817118 -2.739755,-1.105514 -1.970703,-0.288395 -6.056305,-0.288395 h -6.633094 v 7.594411 z"
       id="path15"
       inkscape:label="h" /></g><path
     style="font-size:48.0659px;font-family:'Dela Gothic One';-inkscape-font-specification:'Dela Gothic One';text-align:center;text-anchor:middle;stroke:#000000;stroke-width:2.22349;stroke-linecap:square;stroke-linejoin:round;stroke-dasharray:none"
     d="m 16.318375,81.706284 q 1.876082,-2.814124 3.090017,-5.241997 1.269116,-2.427871 2.427873,-5.628246 3.917701,2.262334 9.104519,3.531448 5.186817,1.269115 9.656307,1.269115 4.579848,0 6.455932,-0.772504 1.876081,-0.827684 1.876081,-1.765725 0,-3.365913 -10.263275,-3.365913 -11.256495,0 -16.332955,-2.317514 -5.076458,-2.372692 -5.076458,-7.614688 0,-7.449152 6.180037,-10.980601 6.180037,-3.53145 16.05706,-3.53145 5.738605,0 11.753105,1.489831 6.069679,1.434651 10.925422,3.97288 -1.600187,3.641807 -3.365913,8.883803 -0.331073,1.103578 -0.551788,1.655368 -2.814124,-2.262336 -8.497551,-3.752165 -5.683427,-1.54501 -10.04256,-1.54501 -5.241995,0 -7.062899,0.717324 -1.820903,0.662148 -1.820903,1.986443 0,1.324292 2.48305,2.151976 2.53823,0.772504 7.283615,0.772504 11.697927,0 16.9951,2.703767 5.297176,2.648587 5.297176,8.166478 0,7.725044 -5.628249,11.146136 -5.628248,3.365914 -17.05028,3.365914 -6.124856,0 -12.470431,-1.324295 -6.345574,-1.379471 -11.422032,-3.972879 z"
     id="path16"
     inkscape:label="S" /></svg>
