<?xml version="1.0" encoding="UTF-8" standalone="no"?>
<!-- Created with Inkscape (http://www.inkscape.org/) -->

<svg
   width="1500"
   height="500"
   viewBox="0 0 1500 500"
   version="1.1"
   id="svg5"
   inkscape:version="1.2.1 (9c6d41e410, 2022-07-14, custom)"
   sodipodi:docname="koshka.svg"
   inkscape:export-filename="../rasters/koshka.png"
   inkscape:export-xdpi="96"
   inkscape:export-ydpi="96"
   xmlns:inkscape="http://www.inkscape.org/namespaces/inkscape"
   xmlns:sodipodi="http://sodipodi.sourceforge.net/DTD/sodipodi-0.dtd"
   xmlns="http://www.w3.org/2000/svg"
   xmlns:svg="http://www.w3.org/2000/svg">
  <sodipodi:namedview
     id="namedview7"
     pagecolor="#ffffff"
     bordercolor="#000000"
     borderopacity="0.25"
     inkscape:showpageshadow="2"
     inkscape:pageopacity="0.0"
     inkscape:pagecheckerboard="0"
     inkscape:deskcolor="#d1d1d1"
     inkscape:document-units="px"
     showgrid="false"
     inkscape:zoom="1.1853333"
     inkscape:cx="549.63442"
     inkscape:cy="250.14061"
     inkscape:window-width="1920"
     inkscape:window-height="1080"
     inkscape:window-x="1920"
     inkscape:window-y="0"
     inkscape:window-maximized="1"
     inkscape:current-layer="g2418"
     showguides="false" />
  <defs
     id="defs2">
    <inkscape:path-effect
       effect="envelope"
       id="path-effect2277"
       is_visible="true"
       lpeversion="1"
       yy="true"
       xx="false"
       bendpath1="m 837.75463,-716.18526 c 58.43736,-13.36328 245.98677,101.38461 301.69657,25.39181"
       bendpath2="m 1140.521,-671.74822 v 27.74698"
       bendpath3="m 826.2868,-637.53598 c 93.68944,13.20628 211.7123,64.3746 327.4174,-16.05927"
       bendpath4="m 834.16873,-671.74822 v 27.74698"
       bendpath3-nodetypes="cc"
       bendpath1-nodetypes="cc" />
    <inkscape:path-effect
       effect="envelope"
       id="path-effect1461"
       is_visible="true"
       lpeversion="1"
       yy="true"
       xx="false"
       bendpath1="M 612.44751,75.868827 C 766.00344,-21.619272 910.65531,1.6482776 1025.2835,51.761166"
       bendpath2="M 1025.1821,45.206071 V 102.52288"
       bendpath3="m 616.7542,102.52288 c 150.69626,36.50008 275.54259,8.16927 408.4279,0"
       bendpath4="M 616.7542,45.206071 V 102.52288"
       bendpath1-nodetypes="cc"
       bendpath3-nodetypes="cc" />
    <inkscape:path-effect
       effect="envelope"
       id="path-effect1385"
       is_visible="true"
       lpeversion="1"
       yy="true"
       xx="false"
       bendpath1="m 275.03484,110.5482 c 241.02699,-208.130664 491.43257,37.74731 741.17976,-4.48816"
       bendpath2="M 1012.5412,104.01615 V 207.16724"
       bendpath3="M 280.74952,209.96472 C 530.17046,169.67121 265.72288,333.0445 1014.879,213.67318"
       bendpath4="M 273.92622,104.01615 V 207.16724"
       bendpath1-nodetypes="cc"
       bendpath3-nodetypes="cc" />
    <inkscape:path-effect
       effect="envelope"
       id="path-effect3257"
       is_visible="true"
       lpeversion="1"
       yy="true"
       xx="false"
       bendpath1="M 247.43561,697.08384 C 524.28916,427.67406 549.32006,805.1123 749.67606,700.09596"
       bendpath2="m 751.8324,696.33113 v 74.29555"
       bendpath3="M 247.16105,782.64548 C 375.04281,897.7859 634.26822,832.2927 756.41101,758.46404"
       bendpath4="m 247.11167,696.33113 v 74.29555"
       bendpath1-nodetypes="cc"
       bendpath3-nodetypes="cc" />
    <inkscape:path-effect
       effect="envelope"
       id="path-effect1587"
       is_visible="true"
       lpeversion="1"
       yy="true"
       xx="false"
       bendpath1="M 66.667142,57.629957 C 457.23551,-312.62939 517.67321,236.66826 760.45276,39.946786"
       bendpath2="M 775.56781,57.629957 V 157.11368"
       bendpath3="m 66.667142,157.11368 c 238.219058,194.44721 601.532958,184.33794 708.900668,0"
       bendpath4="M 66.667142,57.629957 V 157.11368"
       bendpath1-nodetypes="cc"
       bendpath3-nodetypes="cc" />
    <inkscape:path-effect
       effect="envelope"
       id="path-effect1585"
       is_visible="true"
       lpeversion="1"
       yy="true"
       xx="true"
       bendpath1="M 66.667142,57.629957 H 775.56781"
       bendpath2="M 775.56781,57.629957 V 157.11368"
       bendpath3="M 66.667142,157.11368 H 775.56781"
       bendpath4="M 66.667142,57.629957 V 157.11368" />
  </defs>
  <g
     inkscape:label="Layer 1"
     inkscape:groupmode="layer"
     id="layer1">
    <rect
       style="fill:#800000;stroke:none;stroke-width:14.3905;stroke-dasharray:none"
       id="rect3320"
       width="1500"
       height="500"
       x="0"
       y="0" />
    <text
       xml:space="preserve"
       style="font-size:126.449px;fill:none;stroke:#000000;stroke-width:0;stroke-dasharray:none"
       x="360.77942"
       y="172.81119"
       id="text3139"><tspan
         sodipodi:role="line"
         id="tspan3137"
         x="360.77942"
         y="172.81119"
         style="font-style:normal;font-variant:normal;font-weight:bold;font-stretch:normal;font-family:'Fredoka One';-inkscape-font-specification:'Fredoka One';text-align:center;text-anchor:middle;fill:#000000;stroke-width:0;stroke-dasharray:none" /></text>
    <text
       xml:space="preserve"
       style="font-size:24px;font-family:Oi;-inkscape-font-specification:Oi;text-align:center;text-anchor:middle;fill:#ffffff;stroke:#000000;stroke-width:1.5"
       x="283.53595"
       y="-152.82066"
       id="text616"><tspan
         sodipodi:role="line"
         id="tspan614"
         x="283.53595"
         y="-152.82066" /></text>
    <text
       xml:space="preserve"
       style="font-size:24px;font-family:Oi;-inkscape-font-specification:Oi;text-align:center;text-anchor:middle;opacity:0.51196;fill:#ffffff;stroke:#000000;stroke-width:1.5;stroke-dasharray:none"
       x="86.581131"
       y="-133.94769"
       id="text1446"><tspan
         sodipodi:role="line"
         id="tspan1444"
         x="86.581131"
         y="-133.94769" /></text>
    <g
       id="g2418">
      <path
         d="m 174.63129,122.35176 c -4.9959,2.50474 14.98577,12.49138 14.98577,12.49138 4.17766,2.22574 71.19188,-17.48146 58.70049,-19.97324 -12.48621,-2.50479 -68.69231,4.99008 -73.68626,7.48186"
         style="fill:#aa8800;fill-opacity:1;fill-rule:nonzero;stroke:#000000;stroke-width:1.5;stroke-dasharray:none"
         id="path200" />
      <path
         d="m 551.4496,366.14483 c 10.92947,14.34074 21.85442,20.48589 38.25481,31.41341 16.39001,10.94053 17.75854,23.23074 32.10256,33.47045 14.34465,10.25269 38.9342,12.30321 36.88367,-9.55835 -2.04535,-21.85509 -9.56093,-24.58698 -21.17306,-33.47046 -11.60888,-8.88347 -36.20428,-25.27478 -36.88564,-32.78261 -0.6846,-7.51431 6.83101,-84.70786 25.27676,-96.9981 18.44313,-12.2967 -90.85431,7.5143 -98.36732,8.18918 0,0 17.75854,32.11422 16.39522,52.6001 -1.3666,20.4924 -3.41713,32.78261 7.513,47.13638"
         style="fill:#aa8800;fill-opacity:1;fill-rule:nonzero;stroke:#000000;stroke-width:1.5;stroke-dasharray:none"
         id="path202" />
      <path
         d="m 749.99462,263.00158 c 0,0 35.78054,86.69353 32.3608,99.66511 -3.41321,12.98457 -27.08524,21.77073 -60.47131,33.98956 -26.92951,9.85037 -50.48925,21.31649 -50.48925,41.80885 0,21.17373 26.3176,17.27385 37.16726,13.14682 12.56925,-4.8019 26.6375,-14.42516 38.24639,-19.21406 11.61537,-4.77593 70.84079,-23.09446 92.9035,-32.78261 19.09723,-8.38381 30.05072,-16.39779 28.68803,-30.74504 -1.18099,-12.40053 -4.10106,-61.46413 6.15162,-75.13655 0,0 -30.51793,-64.89682 -124.55704,-30.73208"
         style="fill:#aa8800;fill-opacity:1;fill-rule:nonzero;stroke:#000000;stroke-width:1.5;stroke-dasharray:none"
         id="path204" />
      <path
         d="m 1184.0657,367.40369 c 50.9259,37.20812 92.5855,39.51821 118.0615,62.46346 25.4824,22.94521 36.0077,67.57682 54.0407,56.63629 18.0265,-10.92104 -16.2421,-71.57404 -35.1706,-91.24232 -18.922,-19.66828 -85.6812,-49.37506 -101.6183,-64.95524 C 1190.652,302.20834 1138.1687,226.44237 1116.8652,177.26197 1095.5552,128.10102 1025.0778,65.812777 987.37651,51.063199 949.6752,36.307138 917.23005,8.2420496 834.94259,11.726681 699.81488,17.437018 574.1917,52.672477 538.2814,49.427954 503.90184,46.313228 463.30252,35.541431 438.71752,40.466612 414.13058,45.378828 391.12953,53.327871 374.37483,62.535805 350.7353,75.520377 306.5138,85.260427 285.86764,93.676688 c -24.38971,9.934742 -54.08937,26.222222 -72.11912,29.505672 -18.02786,3.28346 -65.89165,12.36159 -74.08665,17.28029 -8.19758,4.92518 41.30661,12.95861 51.1414,23.24374 0,0 -7.52534,37.99328 3.81229,56.68171 12.48882,20.61567 12.08844,39.82321 18.64625,54.57927 6.55458,14.7431 32.16876,12.07611 45.28115,10.43438 13.1124,-1.63524 26.26567,-13.93846 32.24208,-27.8185 6.86927,-15.95005 20.56505,-22.81545 33.09667,-27.81849 18.73254,-7.49483 30.46861,-12.99754 38.09323,-5.61303 7.62202,7.36507 48.12984,52.28216 53.04787,76.86914 4.91739,24.58045 1.98693,89.78228 -9.33319,111.08577 -11.3279,21.31649 -21.85765,24.35987 -21.85765,24.35987 0,0 -28.97486,-4.04916 -38.80962,7.42344 -9.83285,11.46613 -7.86082,22.73759 0.83836,26.94248 8.89711,4.30872 45.46675,5.00304 55.8492,0 11.799,-5.67141 37.62083,-27.3448 45.81583,-43.72962 8.195,-16.38482 23.69017,-54.12503 36.22243,-74.94185 12.52644,-20.81685 13.42649,-35.28091 19.98431,-41.84133 6.55458,-6.56039 18.1537,-26.51419 26.35131,-31.43289 8.19761,-4.91218 97.15775,-13.10785 123.97367,-9.83736 26.8205,3.27697 99.60345,8.06587 145.6756,1.3043 27.61087,-4.04916 51.21148,19.519 64.31933,29.3564 13.11433,9.83088 62.139,41.11452 94.92161,53.08031 32.78261,11.95927 60.653,20.99851 65.5717,32.47112 4.9122,11.46612 -11.2455,58.23261 -24.3598,68.06348 0,0 -20.10955,-3.48459 -29.53811,7.72846 -10.88211,12.95212 -6.66426,26.2287 12.05662,26.96196 18.31209,0.72025 50.11479,3.32887 60.57509,-14.70417 14.3862,-24.80108 48.9988,-96.08315 45.7218,-141.97361 0,0 -6.0348,-7.0471 -27.3448,-25.07364 -21.3035,-18.02652 -42.7368,-42.7757 -49.6022,-80.86637 -4.3736,-24.24952 1.2524,-56.20152 -6.515,-79.84109 0,0 42.1139,42.98987 67.0902,89.82774 16.2161,30.40762 71.4313,102.77982 111.4362,132.01942"
         style="fill:#ffcc00;fill-opacity:1;fill-rule:nonzero;stroke:#000000;stroke-width:1.5;stroke-dasharray:none"
         id="path206" />
      <g
         aria-label="кошка"
         id="text645"
         style="font-size:134.662px;font-family:Oi;-inkscape-font-specification:Oi;text-align:center;text-anchor:middle;opacity:1;fill:#ffffff;stroke:#000000;stroke-width:1.5"
         transform="translate(-22.939088,17.813623)">
        <path
           d="m 284.26378,206.54368 c 0.28229,-3.29942 0.9069,-7.11609 1.72523,-11.54703 0.89796,-4.41433 1.84804,-8.7905 2.81282,-13.11351 0.97067,-4.34945 1.81699,-7.89412 2.74969,-10.85745 1.93257,-1.1875 3.84541,-3.28634 5.59667,-6.3129 1.8328,-3.05473 2.81455,-7.47963 2.47349,-12.97275 -0.28905,-4.6554 -1.28223,-7.97071 -2.61153,-9.93245 -1.25972,-2.01174 -2.63306,-3.1781 -3.99613,-3.55886 -1.29057,-0.42276 -2.33355,-0.43987 -3.10632,-0.0989 -1.40809,-2.25868 -2.78387,-4.97707 -4.35606,-8.20471 -1.51228,-3.32069 -3.01286,-6.6816 -4.46203,-10.06991 -1.39099,-3.4769 -2.43319,-6.44711 -2.95773,-9.16063 3.56849,-2.3384 7.94671,-5.22376 12.69784,-8.26523 4.88587,-3.244669 9.393,-6.22819 13.63576,-9.142355 6.51675,-4.476063 12.6253,-8.606213 18.2386,-12.518626 5.63945,-4.058353 10.11231,-7.182935 13.32102,-9.503598 3.17426,4.467766 5.48938,8.853637 7.01672,13.00533 1.48102,4.047481 2.51897,8.050809 3.14373,11.970658 0.70998,3.884161 1.34219,7.942881 1.85886,12.171991 0.57499,4.10859 1.37543,8.52906 2.31959,13.4429 1.55425,-5.28408 2.18653,-11.5301 1.55588,-18.61063 -0.11476,-1.32161 -0.27386,-2.67276 -0.47987,-4.052166 -1.25356,-8.874378 -4.69229,-19.536076 -11.28977,-31.215591 2.4281,-1.017827 5.11415,-1.983143 8.04888,-2.850994 3.07271,-0.925507 6.63165,-2.110304 11.01875,-3.563642 0.60214,-0.199472 1.22341,-0.40869 1.86448,-0.627446 2.38909,-0.813172 5.02756,-1.748817 7.95954,-2.797981 2.31164,-0.828107 3.9506,-1.418364 6.26224,-2.246471 1.58048,-0.565928 3.0633,-1.102216 4.46299,-1.621333 3.25513,-1.204284 5.96054,-2.295478 8.18153,-3.357299 2.80425,-1.340654 5.23603,-2.543418 7.33428,-3.64501 0.27059,-0.142426 0.53525,-0.283045 0.79402,-0.421881 2.26447,-1.394714 4.74799,-2.768246 7.45582,-4.091626 2.4194,3.274472 5.08113,7.553888 7.80071,12.771452 2.6509,5.056641 5.04345,10.510366 7.12206,16.297371 2.16201,5.770558 3.84939,11.314414 5.11657,16.565254 1.30026,5.071672 2.00116,9.351859 2.22563,12.731973 -3.09223,1.93611 -5.88911,3.90629 -8.32963,5.95934 -0.40568,0.33497 -0.80067,0.67351 -1.18476,1.01561 -2.62592,2.42496 -5.02645,5.01774 -7.17926,7.7701 4.50645,11.31029 8.394,20.55129 12.62657,28.31682 -0.01,-0.0178 0.63818,1.1266 0.62813,1.10883 3.98436,7.06523 7.54997,13.19707 11.03715,18.22854 0.37419,3.30684 0.43966,7.48938 0.0527,12.41595 -0.31105,4.96337 -0.9824,10.20057 -2.08062,15.63585 -0.99297,5.31661 -2.35506,10.37246 -4.05741,15.12496 -1.69958,4.74473 -3.48588,8.56054 -5.17658,11.41041 -2.5691,-2.00207 -6.14065,-4.83516 -9.36472,-7.26716 -0.28164,-0.21239 -0.56591,-0.42567 -0.85269,-0.63965 -3.5545,-2.65212 -8.36438,-5.27862 -14.32223,-7.30698 -0.37521,-0.12736 -0.75512,-0.25236 -1.13973,-0.37489 -3.47546,-1.1073 -6.73706,-1.90128 -9.68402,-2.45989 -3.02071,-0.57326 -5.77364,-0.91079 -8.18203,-1.07995 -0.13033,-0.009 -0.25973,-0.0177 -0.3882,-0.0259 -4.77566,-0.30332 -8.91226,-0.25574 -12.04468,-0.0839 -3.09801,0.31182 -6.04728,0.65599 -8.6524,0.97169 1.33077,-4.69789 2.37938,-8.99489 3.20569,-12.86519 0.84849,-4.00295 1.43751,-7.66913 1.8142,-10.98578 0.60868,-5.3594 0.7666,-10.22391 0.57211,-14.57605 -0.1947,-4.35692 -1.1079,-8.36298 -2.67311,-11.95759 -0.36099,-0.82905 -0.77622,-1.63951 -1.24467,-2.42953 -1.54224,-2.6306 -3.67404,-5.03744 -6.3587,-7.14555 0.43176,5.27482 0.62435,10.61503 0.57778,16.02063 1.62138,-0.23534 3.24815,-0.45674 4.88027,-0.66352 0.45047,1.71945 0.75672,3.86828 0.87419,6.43452 0,0 0,0 0,0 0.0446,0.95512 0.063,1.96963 0.0523,3.04264 0.0597,3.82717 -0.19371,7.95881 -0.8078,12.38497 -0.43387,3.67437 -1.11254,7.24928 -2.01299,10.70942 0,0 0,0 0,0 -0.18299,0.70448 -0.37517,1.40416 -0.57637,2.09894 -1.16445,3.97223 -2.45766,7.27696 -3.76028,9.84827 -3.68768,-0.52745 -8.33238,-1.08953 -13.8569,-1.5216 -5.47996,-0.31429 -11.35225,-0.10785 -17.65244,0.59258 -8.79288,0.97755 -16.35971,2.40533 -22.12367,3.82735 -5.72009,1.41916 -10.55592,2.76409 -14.14914,3.86976 z"
           id="path1374" />
        <path
           d="m 480.61253,247.28558 c -4.19037,-1.03866 -8.08658,-2.51531 -11.6641,-4.3831 -2.84114,-1.48354 -5.4726,-3.20947 -7.88844,-5.15182 0,0 0,0 0,0 -7.17933,-5.77229 -12.36694,-13.40767 -15.86672,-22.18461 -5.45005,-13.66889 -7.12101,-30.22997 -8.40152,-49.47381 -0.62516,-9.31133 -1.17409,-19.36933 -2.03238,-30.43418 -0.91142,-11.74979 -2.18159,-23.21061 -3.09623,-32.87934 -1.64492,-17.287915 -2.39635,-31.553283 0.19388,-43.419892 0.53647,-2.409913 1.2014,-4.715203 2.00942,-6.910576 3.03538,-8.237211 8.16175,-14.81976 15.62885,-19.32989 2.50294,-1.510768 5.25414,-2.776943 8.2381,-3.77686 0,0 1e-5,-10e-7 1e-5,-10e-7 3.95544,-1.32555 8.31203,-2.182903 13.01771,-2.526853 1.61125,-0.11777 3.20079,-0.177038 4.76651,-0.17866 0,0 0,0 0,0 14.47766,-0.01497 26.68263,4.862014 36.07095,13.869473 4.09624,3.927222 7.66455,8.63634 10.71931,14.091153 10.90569,19.139072 16.25633,47.121336 17.46497,83.346436 1.36165,40.81101 -2.23395,70.67462 -12.02578,88.80392 -2.47794,4.53564 -5.34736,8.40496 -8.6148,11.58787 -8.54601,8.33726 -19.90735,11.97834 -33.36646,9.97557 0,0 0,0 0,0 -1.68946,-0.25139 -3.40857,-0.59237 -5.15328,-1.02483 z m 1.30857,-94.06979 c 2.00011,0.20849 4.01976,0.414 6.05747,0.61786 -0.29114,-10.52117 -0.77962,-21.05807 -1.46545,-31.61068 -2.05747,-0.10431 -4.09773,-0.20164 -6.11955,-0.29278 0.74158,10.44814 1.25075,20.87667 1.52753,31.2856 z"
           id="path1376" />
        <path
           d="m 547.20478,253.35174 c -1.22646,-7.04462 -2.23821,-15.16153 -3.05234,-24.37255 -0.7256,-9.18652 -1.16308,-18.19897 -1.33279,-26.9497 -0.16986,-8.75795 -0.0232,-16.02324 0.428,-21.7516 1.87738,-1.05834 3.51199,-4.02394 4.90946,-8.89433 1.39159,-5.07598 1.854,-13.56883 1.45964,-25.52044 -0.33521,-10.15919 -1.01833,-18.04586 -2.09983,-23.70347 -1.00259,-5.84676 -2.07833,-10.00549 -3.24214,-12.49183 -1.16234,-2.48324 -2.17069,-3.86009 -3.0208,-4.12928 -1.0343,-6.640385 -1.85899,-14.482889 -2.45837,-23.477037 -0.51871,-9.182404 -0.733,-18.2772 -0.60837,-27.206736 0.21431,-8.94132 0.81162,-16.234024 1.80957,-21.915877 2.97445,1.089228 6.18788,2.133643 9.64387,3.145148 1.62914,0.476882 3.31191,0.946261 5.04881,1.409435 5.42514,1.248383 10.95946,2.286591 16.64184,3.1283 5.68212,0.84167 11.31422,1.358988 16.93756,1.559351 5.62593,0.200456 10.56677,0.164149 14.86291,-0.150154 0.30553,5.109008 0.31974,11.876713 0.15545,20.524978 -0.16348,8.605458 -0.46897,17.482863 -0.88068,26.603272 -0.3244,9.15764 -0.71759,17.0096 -1.26332,23.65451 -0.0602,18.84555 0.36966,37.73596 1.28967,56.67123 1.60182,0.11048 3.20593,0.22137 4.8123,0.33277 -0.9326,-18.83874 -1.35196,-37.63047 -1.25809,-56.37521 -0.48969,-6.71258 -0.74216,-14.695788 -0.66785,-23.833128 0.16267,-9.135995 0.61337,-17.962748 1.33921,-26.442505 0.72493,-8.469182 1.6469,-15.129648 2.65108,-19.897653 1.0483,0.569996 2.14914,1.133366 3.30262,1.690706 2.5778,1.24554 5.41683,2.460141 8.51837,3.650967 4.48985,1.723857 8.85819,3.063043 13.1237,4.029266 2.41112,0.546165 4.82829,1.015537 7.25372,1.410207 1.95572,0.318401 3.91643,0.588251 5.88327,0.810761 4.42479,0.31894 8.47448,0.306682 12.15731,-0.03865 0.0813,4.785916 -0.1839,11.04596 -0.65194,19.082805 -0.46505,7.985541 -1.0363,16.202785 -1.67433,24.653236 -0.55168,8.502529 -1.09058,15.742319 -1.74755,21.912909 -0.35132,17.50226 -0.004,35.07261 1.0427,52.71103 1.62621,0.10936 3.25341,0.21849 4.88162,0.32736 -1.05634,-17.50181 -1.39988,-34.93415 -1.03062,-52.29701 -0.39698,-6.2326 -0.51006,-13.64443 -0.21852,-22.108317 0.38076,-8.461705 1.0922,-16.620527 2.10827,-24.443531 1.0138,-7.80546 2.20522,-13.940088 3.40412,-18.291049 4.0334,2.108364 8.75831,4.208216 14.17575,6.312425 5.50841,2.127811 11.00673,3.902303 16.50858,5.347154 5.59162,1.468427 11.08084,2.665401 16.47688,3.606226 5.42024,0.780952 10.32851,1.282137 14.72802,1.504613 0.42143,4.836339 0.2893,10.720788 -0.24141,17.796096 -0.52941,7.058005 -1.21281,14.121613 -2.03544,21.227413 -0.81202,6.96239 -1.73573,12.91654 -2.9016,17.95112 -0.80997,0.0314 -1.88015,0.89084 -3.18358,2.59801 -1.21016,1.71515 -2.36969,4.81941 -3.37319,9.30553 -0.90987,4.3214 -1.33467,10.63471 -1.03405,18.79205 0.35388,9.60281 1.74842,16.63376 3.77762,20.85536 2.11767,4.09129 4.25367,6.62849 6.31649,7.64187 1.19941,4.80648 2.30473,10.70104 3.49004,17.86689 1.18092,7.13934 2.2662,14.29379 3.25165,21.48685 0.98819,7.21297 1.62874,13.3836 1.80038,18.63234 -4.93006,-0.15517 -15.73612,-0.44522 -20.66617,-0.6004 -8.42083,-0.0889 -17.67683,-0.10203 -29.77638,-0.16061 -10.38218,0.10172 -22.2119,0.40654 -36.21792,0.82542 -0.23987,0.007 -5.45738,0.1657 -5.69725,0.1729 -8.19588,0.251 -15.86588,0.49167 -23.12176,0.74617 -13.25847,0.46276 -25.38022,1.00126 -35.43187,1.61439 -10.25472,0.76038 -18.98455,1.47383 -25.88823,2.22633 -3.58147,0.39064 -6.71761,0.79578 -9.41409,1.23367 z"
           id="path1378" />
        <path
           d="m 740.46221,245.46435 c -0.15235,-0.36874 -0.30416,-0.7429 -0.4554,-1.12247 0,0 0,0 0,0 -1.89179,-4.74781 -3.70178,-10.3642 -5.32513,-16.79232 -1.66436,-6.95147 -2.89278,-13.91855 -3.68671,-20.86262 -0.79238,-6.93045 -0.99175,-12.69765 -0.73593,-17.20784 0.23946,-0.10657 0.47463,-0.23622 0.7056,-0.38885 1.67121,-1.10435 3.10992,-3.4008 4.38769,-6.86238 1.55538,-3.96418 1.95353,-10.45136 1.60205,-19.65848 -0.29895,-7.83115 -0.84983,-13.85998 -1.90916,-18.3097 -0.9639,-4.41551 -2.04694,-7.63655 -3.34609,-9.68804 -0.99915,-1.68434 -1.88161,-2.77645 -2.6645,-3.26967 -0.16195,-0.10193 -0.31944,-0.1781 -0.47252,-0.22842 -0.71721,-5.23763 -1.04551,-11.41428 -0.86216,-18.4422 0.28549,-7.17398 1.0593,-14.207347 2.31175,-21.056108 1.31559,-6.69058 2.9519,-12.113284 4.74968,-16.212855 0.0347,-0.0792 0.0695,-0.157925 0.10439,-0.236165 4.08425,2.066164 8.87122,4.217742 14.34563,6.431535 5.5924,2.090296 10.88447,3.757046 15.86654,5.029367 2.16937,0.554016 4.3007,1.071477 6.39397,1.553263 5.33699,1.228405 10.42723,2.225031 15.26702,3.003476 6.85885,0.970395 12.24959,1.639029 16.18551,2.024373 -0.5123,6.076049 -1.2056,11.483584 -2.17355,16.311494 -0.94811,4.6905 -1.98873,9.14827 -3.15056,13.40122 -1.06924,4.2649 -2.06915,8.7586 -2.97073,13.47525 -0.80232,4.59387 -1.2587,9.79606 -1.28824,15.56438 3.07021,-6.15222 5.52927,-13.85188 7.78738,-23.24232 2.40615,-9.6903 4.41185,-21.01545 7.05077,-35.291359 2.50559,0.863299 5.16466,1.885045 7.99348,3.056768 2.91443,1.189964 6.54483,2.453354 10.87383,3.757051 0.28137,0.0847 0.56758,0.1695 0.85863,0.25428 4.18122,1.21827 9.39623,2.44907 15.59604,3.63517 5.43322,1.03944 9.97051,1.66723 13.54504,1.93242 3.58134,0.26571 6.71009,0.43441 9.36961,0.51797 2.77871,-0.0155 5.72641,0.0491 8.85741,0.18361 0.28971,2.47932 0.35272,5.52443 0.24854,9.17432 -0.0862,3.53429 -0.37355,7.24481 -0.84121,11.16097 -0.37358,3.9269 -0.83155,7.65595 -1.39847,11.21712 -0.46364,3.4581 -1.05429,6.33018 -1.83037,8.6481 -4.80934,1.25724 -8.92896,2.73589 -12.37968,4.4673 -3.35331,1.73621 -6.3528,3.6943 -8.99313,5.88594 2.29671,9.08188 5.91822,16.27627 10.39249,21.47628 4.56997,5.09679 9.43281,9.00028 14.42928,11.76299 0.90064,2.2236 1.65051,5.04376 2.31645,8.49959 0.75919,3.45032 1.42193,7.11511 2.02385,11.03199 0.67412,3.79553 1.17386,7.49427 1.49554,11.12154 0.32207,3.63155 0.44537,6.65819 0.31315,9.11514 -3.808,0.0221 -8.07875,-0.0336 -12.76991,-0.18794 -4.68879,-0.15428 -10.41347,0.13402 -17.1029,0.88234 -7.43947,0.83223 -13.42175,1.66537 -18.0429,2.55704 9e-5,-2e-5 -0.61957,0.12001 -0.61949,0.11999 -4.32827,0.84197 -7.90326,1.60664 -10.74183,2.29797 -2.84911,0.84514 -5.47698,1.60625 -7.90311,2.28334 -0.98184,-4.8189 -1.8038,-9.25644 -2.50129,-13.24268 -0.73406,-4.15992 -1.39085,-7.8878 -2.03708,-11.36022 -1.03862,-5.58089 -2.01893,-10.63176 -3.02962,-15.27486 -1.0072,-4.62712 -2.42663,-8.98843 -4.29464,-13.1405 -1.86777,-4.15154 -4.56109,-8.2285 -8.09291,-12.31667 0.36148,6.06539 0.89275,12.14177 1.59381,18.22914 1.64523,0.0181 3.29159,0.0346 4.93912,0.0495 0.9531,2.6883 1.79184,6.13917 2.60832,10.41802 0.88747,4.14004 1.70788,8.53381 2.50071,13.22555 0.88356,4.68519 1.60222,9.18123 2.13601,13.52057 0.50382,4.21218 0.77954,7.68759 0.76064,10.47959 -3.88023,-0.13084 -8.9017,-0.3208 -14.75022,-0.59803 -5.44367,-0.14007 -11.14148,0.0247 -17.07213,0.52416 0,0 0,0 0,0 -0.35775,0.0301 -0.71638,0.0615 -1.07588,0.094 -8.95847,0.81177 -16.19942,1.8105 -21.81572,3.08199 -5.51155,1.26041 -9.93464,2.4394 -13.27676,3.53654 z"
           id="path1380" />
        <path
           d="m 929.2636,226.49521 c -1.47936,0.21464 -2.92242,0.39311 -4.33013,0.53477 0,0 0,0 0,0 -8.85896,0.89154 -16.3142,0.32031 -22.44145,-1.83847 -6.99324,-2.50738 -12.49452,-6.42612 -16.29297,-11.67664 -3.79924,-5.25161 -6.18287,-11.17722 -6.99778,-17.61913 -1.23838,-9.78944 1.17344,-17.79181 6.81993,-23.77714 5.69195,-6.03351 15.11408,-8.78548 28.21498,-9.04768 1.30029,-0.0289 2.60157,-0.0607 3.90381,-0.0953 8.92702,-0.23402 17.89542,-0.62419 26.89221,-1.18604 0.009,-2.60273 0.044,-5.20731 0.10606,-7.81375 -2.67583,0.11361 -5.3492,0.21033 -8.01977,0.29058 -0.0326,1.34273 -0.0575,2.685 -0.0748,4.02681 -6.37321,0.48439 -12.67558,0.88445 -18.89162,1.21143 -3.44349,0.18249 -6.86308,0.34586 -10.25594,0.49197 -9.50184,0.40919 -18.92709,0.11231 -28.22241,-0.96367 -2.28154,-17.3489 -0.31832,-34.11437 5.45513,-49.85444 2.75416,0.37314 5.9014,0.83839 9.76364,1.40761 9.64222,1.41439 2.62242,0.38604 12.26464,1.80044 4.38745,0.52475 8.686,0.98404 12.90162,1.38213 0.61989,0.0585 1.22985,0.11519 1.82972,0.17004 3.47055,0.31741 6.62989,0.57554 9.42333,0.78976 -1.66453,2.98828 -2.78081,6.00752 -3.33305,9.0514 -0.4568,3.04619 -0.33555,6.00748 0.36662,8.86342 1.24687,-8.41457 5.08773,-14.12074 10.97196,-17.16615 5.94211,-3.07535 13.79354,-4.43718 23.75784,-4.64124 12.84018,-0.26295 22.47859,0.85974 29.17115,3.94445 6.68422,2.98418 11.15739,7.82868 13.32829,14.82019 1.0891,3.3076 1.5152,6.97973 1.2576,11.04001 -0.1585,3.95298 -0.5051,7.83155 -1.0421,11.65354 -0.537,3.82137 -0.8168,7.2246 -0.8435,10.22398 -0.051,5.71035 0.8599,9.65156 2.6871,11.80207 1.9264,2.04382 3.9457,3.27185 6.0633,3.68111 0.8355,2.57969 1.2627,5.91689 1.2903,10.02795 0.123,4.09691 -0.049,8.22942 -0.4938,12.4173 -0.4444,4.18123 -1.1507,7.8508 -2.0937,10.98921 -3.9864,1.5678 -8.123,2.82956 -12.42801,3.78652 -4.30358,1.05051 -7.79498,1.78434 -10.48645,2.20336 -6.817,1.06128 -12.22281,1.04277 -16.27955,-0.0753 -4.05419,-1.11738 -6.37476,-3.97361 -6.79909,-8.54034 -0.15027,-1.61732 -0.0239,-3.36837 0.39109,-5.24896 0.50846,-1.89285 1.11572,-3.93818 1.83019,-6.13514 -1.26853,-0.46514 -2.53919,-0.93411 -3.81228,-1.40745 -1.424,4.40343 -3.43332,8.70462 -5.98993,12.93118 -2.46064,4.20869 -6.04019,7.89361 -10.73452,11.04378 -4.59421,3.13079 -10.84744,5.34401 -18.82765,6.50181 z m 8.23068,-45.28651 c 2.64518,-0.18645 5.29294,-0.38438 7.94306,-0.59402 -0.14319,-3.08316 -0.24862,-6.16895 -0.31629,-9.25735 -2.66646,0.17605 -5.33039,0.3385 -7.99154,0.48764 0.08,3.12373 0.20154,6.24497 0.36477,9.36373 z"
           id="path1382" />
      </g>
      <g
         aria-label="Koshka"
         id="text1389"
         style="font-size:68.2343px;font-family:Oi;-inkscape-font-specification:Oi;text-align:center;text-anchor:middle;opacity:1;fill:#ffffff;stroke:#000000;stroke-width:1.5;stroke-dasharray:none"
         transform="rotate(9.8216178,808.01474,268.96237)">
        <path
           d="m 618.61051,101.99531 c 0.2766,-0.65858 0.74666,-1.41642 1.35422,-2.29441 0.60483,-0.874047 1.23805,-1.726937 1.88379,-2.579514 0.7076,-0.871103 1.32512,-1.682984 1.8759,-2.447959 0.59433,-0.764824 1.10101,-1.381309 1.60548,-1.882768 0.72313,-0.142832 1.46336,-0.3891 2.19783,-0.749967 0.74239,-0.385516 1.43452,-0.998294 1.97645,-1.833894 0.54017,-0.851528 0.85933,-2.060833 0.65531,-3.494099 -0.2213,-1.554714 -0.95646,-2.638684 -1.78861,-3.221438 -0.8149,-0.624473 -1.68391,-0.926051 -2.48868,-0.947933 -0.77925,-0.0556 -1.41959,0.01179 -1.89768,0.173513 -0.64758,-0.229263 -1.3155,-0.596723 -2.09391,-1.098262 -0.77457,-0.499062 -1.5989,-1.047465 -2.48689,-1.643789 -0.87977,-0.636531 -1.74056,-1.263667 -2.57277,-1.916903 -0.86418,-0.670175 -1.55476,-1.304281 -2.01595,-1.943088 1.1918,-0.642359 2.81141,-1.491366 4.77126,-2.472825 1.93507,-1.006215 4.09354,-2.115413 6.45096,-3.300781 2.32813,-1.211938 4.67252,-2.444706 7.03622,-3.710168 3.08253,-1.650304 5.58238,-3.066011 7.57035,-4.350853 0.54999,-0.353985 4.88147,-3.139979 5.43146,-3.493963 1.03876,0.77129 2.17866,1.824889 3.33066,3.155002 1.16683,1.274141 2.22054,2.688961 3.13097,4.231123 0.95122,1.524715 1.6779,2.998497 2.2146,4.393986 0.51655,1.350304 0.76773,2.444337 0.82476,3.225637 -0.68126,0.191366 -1.36188,0.383458 -2.04185,0.576265 0.73564,2.032153 1.28265,4.091595 1.64083,6.17837 1.51153,-2.250792 2.17495,-4.67672 1.91037,-7.108783 -0.26405,-2.427185 -1.07202,-5.001045 -2.53063,-7.603388 -0.68355,-1.21953 -1.55165,-2.512905 -2.63304,-3.852918 -1.03932,-1.35814 -2.27855,-2.784881 -3.74995,-4.253186 1.25154,-0.517278 2.64669,-1.041139 4.17713,-1.557451 1.57809,-0.538703 3.55452,-1.28305 5.96097,-2.222549 2.45467,-0.96148 5.54783,-2.275491 9.35954,-3.936346 2.33997,-1.019583 4.21553,-1.908481 5.65882,-2.712135 1.48168,-0.819147 2.81263,-1.570527 3.99764,-2.260463 1.15507,-0.743745 2.39464,-1.489503 3.71789,-2.232134 0.9431,1.043096 1.95416,2.445029 2.97644,4.19928 1.02322,1.75584 1.91669,3.657264 2.66673,5.689782 0.77151,1.959924 1.37207,3.902955 1.81322,5.811457 0.48309,1.893468 0.7092,3.509978 0.72433,4.811753 -1.78323,0.629954 -3.22508,1.51728 -4.33794,2.62694 -1.07225,1.101092 -1.97381,2.345985 -2.7298,3.729285 1.85565,6.170472 3.09645,10.730568 4.75915,14.231707 1.65582,3.339648 3.62429,5.888152 6.18436,7.5898 0.24851,1.278073 0.35676,2.922021 0.27364,4.90853 -0.0399,1.989134 -0.22917,4.087997 -0.58674,6.281847 -0.30486,2.13363 -0.77384,4.20962 -1.40088,6.21149 -0.62641,1.99982 -1.3114,3.65307 -2.00115,4.93679 -1.79255,-0.46207 -3.75604,-1.0058 -5.911,-1.6311 -2.15898,-0.62646 -4.87425,-1.11881 -8.19736,-1.53192 -4.16505,-0.51778 -7.54887,-0.88775 -10.15515,-1.09038 -2.57355,-0.19724 -4.64823,-0.34994 -6.28736,-0.44405 -1.60297,-0.0371 -3.07083,-0.0922 -4.38929,-0.15772 0.93974,-1.68342 1.70261,-3.23116 2.32257,-4.6258 0.63828,-1.44276 1.12302,-2.77321 1.48157,-3.9776 0.56589,-1.900822 0.89597,-3.678775 1.03195,-5.31508 0.18719,-1.682482 -0.0122,-3.25608 -0.56026,-4.677085 -0.50648,-1.424144 -1.50997,-2.692408 -2.9765,-3.751554 0.0145,1.931423 -0.12492,3.886695 -0.41816,5.865816 0.78089,-0.01404 1.56228,-0.02856 2.34417,-0.04353 0.0599,0.780683 -0.002,1.875034 -0.25039,3.252513 -0.20694,1.382698 -0.56822,2.895517 -1.11926,4.523464 -0.55143,1.62926 -1.21671,3.19956 -1.97564,4.69887 -0.75786,1.49728 -1.54909,2.72191 -2.29612,3.64439 -1.18383,-0.35141 -2.35304,-0.72343 -3.50881,-1.1133 -1.13581,-0.33847 -2.53175,-0.71847 -4.19547,-1.14406 -1.62865,-0.42033 -3.74411,-0.85116 -6.41226,-1.33388 -4.40582,-0.79709 -8.24542,-1.43231 -11.40732,-1.88916 -3.12638,-0.41398 -5.84226,-0.80517 -7.89469,-1.09942 0,0 -3e-5,0 -3e-5,0 z"
           id="path1448"
           style="stroke-width:1.5;stroke-dasharray:none" />
        <path
           d="m 721.36848,118.70825 c -10.48968,-0.76614 -17.55797,-4.98685 -21.65194,-11.38602 -4.18869,-6.54724 -5.30893,-15.077186 -6.03787,-26.441658 -0.79646,-12.417162 -1.14179,-21.480534 2.04498,-29.005852 3.13459,-7.313554 9.57148,-13.214146 20.0074,-16.277385 1.27374,-0.373879 2.52183,-0.685631 3.7439,-0.934243 0,0 0,0 0,0 3.1479,-0.640138 6.11325,-0.859237 8.8825,-0.646911 5.44872,0.416763 10.08915,2.502318 13.79556,6.235961 6.32068,6.249722 10.42647,17.03372 11.46576,31.736063 1.16996,16.550999 -1.63989,29.061165 -7.22283,36.643485 -3.16164,4.25163 -7.24586,7.16971 -12.15405,8.75915 -2.68433,0.86911 -5.60483,1.33824 -8.74864,1.42058 0,0 0,0 0,0 -1.33653,0.035 -2.71159,4e-5 -4.12477,-0.10317 z M 722.053,82.65977 c 1.16536,-0.09129 2.33148,-0.182325 3.49832,-0.273081 -0.16482,-3.998065 -0.45025,-7.981422 -0.85629,-11.950072 -1.16438,0.152826 -2.3278,0.307153 -3.49026,0.462946 0.40809,3.904492 0.69083,7.824561 0.84823,11.760207 z"
           id="path1450"
           style="stroke-width:1.5;stroke-dasharray:none" />
        <path
           d="m 795.38629,120.01639 c -5.85257,0.12874 -10.33105,-1.21922 -13.40045,-3.92815 -3.02734,-2.71243 -4.52294,-7.51401 -4.68809,-14.41645 -0.50294,2.9133 -0.67665,5.64221 -0.50442,8.1972 0.21745,2.46858 0.53458,4.94131 0.9555,7.41669 -4.50941,0.28611 -8.60369,0.53177 -12.30286,0.75279 -3.69184,0.22056 -6.75581,0.25114 -9.15957,0.12152 -0.26712,-6.07756 -0.41626,-12.146 -0.46457,-18.08496 -0.004,-5.938843 0.13778,-12.272478 0.3677,-18.880345 3.195,-0.219648 6.2946,0.307013 9.29985,1.624807 3.04435,1.231185 5.7736,3.388117 8.16542,6.494832 0.39015,-0.993458 0.77717,-1.988823 1.16128,-2.986005 -1.34178,-1.71234 -2.74223,-3.069502 -4.19578,-4.076632 -1.41327,-1.094038 -2.91073,-2.046313 -4.49127,-2.857651 -2.12799,-1.192253 -4.10014,-2.79233 -5.93787,-4.788862 -1.79367,-1.999855 -3.28602,-4.573636 -4.51926,-7.721452 -1.2333,-3.148002 -2.09029,-7.04596 -2.63849,-11.722902 -0.58581,-4.997892 -0.61333,-9.677602 0.002,-14.090892 0.66045,-4.422096 2.15147,-8.163846 4.57205,-11.214449 2.40425,-3.128837 5.89021,-5.137757 10.44444,-5.873847 5.90405,-0.954262 10.64514,-0.132607 14.12287,2.393321 3.51752,2.436554 5.658,7.400291 6.39141,14.824423 0.32678,-3.080394 0.28087,-5.912475 -0.14652,-8.484435 -0.38948,-2.661693 -1.01063,-5.434674 -1.87562,-8.300378 3.25241,-0.461225 6.16532,-0.850199 8.49644,-1.160278 2.40839,-0.406575 4.5961,-0.729122 6.55153,-0.975699 1.95042,-0.334186 3.83991,-0.562622 5.66638,-0.687193 1.02866,5.736723 1.7495,11.99482 2.1827,18.742436 0.43265,6.739612 0.58371,13.664983 0.46052,20.698732 -3.25682,0.09398 -6.0278,-0.394608 -8.32646,-1.472119 -2.29962,-1.077956 -4.57103,-2.800389 -6.8412,-5.159446 0.0307,-0.106721 -0.95875,3.321398 -0.928,3.214677 1.2056,1.305507 2.29757,2.361653 3.28516,3.168031 0.98342,0.72006 1.86505,1.358121 2.65773,1.920754 2.83611,2.003172 5.18314,4.237413 7.04188,6.680772 1.85491,2.356571 3.28815,5.316502 4.29979,8.872388 1.00675,3.465506 1.63148,7.841055 1.86303,13.107192 0.28186,6.410118 -0.0862,11.53164 -1.10965,15.35646 -1.02375,3.82616 -2.46401,6.69464 -4.31676,8.60652 -1.80924,1.82175 -3.81025,3.02641 -5.99052,3.61471 -2.13257,0.67437 -4.1854,1.03067 -6.15041,1.07389 z"
           id="path1452"
           style="stroke-width:1.5;stroke-dasharray:none" />
        <path
           d="m 816.47866,117.34644 c -0.5532,-2.35441 -1.01516,-5.36784 -1.39332,-9.04939 -0.33641,-3.76774 -0.54388,-7.63489 -0.6266,-11.589714 -0.0866,-4.043871 -0.022,-7.569314 0.19643,-10.571973 0.64574,-0.471051 1.25083,-1.336276 1.81476,-2.595983 0.56401,-1.259905 0.97318,-3.436373 1.22749,-6.530889 0.24997,-3.179896 0.2384,-7.67498 -0.0366,-13.471724 -0.23347,-4.920819 -0.57568,-8.822222 -1.02974,-11.706708 -0.4134,-2.974657 -0.88534,-5.239744 -1.41625,-6.798623 -0.48988,-1.648499 -1.00352,-2.810472 -1.53925,-3.486509 -0.49022,-0.678309 -0.92727,-1.182775 -1.30983,-1.513654 -0.60966,-2.870468 -1.11475,-6.190244 -1.51385,-9.951629 -0.35294,-3.763799 -0.54947,-7.497971 -0.57871,-11.1934 0.0127,-3.789964 0.2277,-6.969883 0.65653,-9.5521778 2.43474,0.3829296 5.13948,0.6831288 8.12857,0.9183568 1.2088,0.05964 2.47042,0.101007 3.78683,0.125714 1.93453,0.03631 3.98162,0.03653 6.15092,0.0064 1.53489,-0.02131 3.02831,-0.06586 4.48238,-0.134866 1.90777,-0.09059 3.74548,-0.223321 5.51698,-0.4006789 3.17116,-0.4061375 5.64918,-0.7170807 7.726,-1.0063565 0.43125,2.4466724 0.73299,5.3134614 0.92269,8.6145714 0.23672,3.298363 0.16209,6.070549 -0.2226,8.314621 -1.07956,1.539081 -2.24383,3.5627 -3.4742,6.075181 -1.18476,2.513851 -2.27419,5.516127 -3.25906,9.010266 0.0309,0.02996 1.70564,1.656647 1.73654,1.68661 1.32941,-4.621651 2.99174,-8.611525 4.9821,-11.963549 2.03647,-3.437739 4.26043,-6.05751 6.64141,-7.86605 2.42744,-1.806543 4.86313,-2.630449 7.26205,-2.497536 2.72785,0.151138 5.01623,0.729031 6.85103,1.700284 1.84006,0.887602 3.33421,2.43168 4.4909,4.612199 1.15936,2.185562 1.98287,5.287255 2.53432,9.325868 0.52491,3.448239 0.7295,6.950808 0.63231,10.518664 -0.0959,3.483717 -0.24581,7.014109 -0.44454,10.581569 -0.19938,3.485792 -0.24813,6.982324 -0.14858,10.475911 0.10894,3.822751 0.4399,6.869548 0.94534,9.102247 0.50259,2.154145 1.10559,3.763416 1.79126,4.824732 0.73075,1.060924 1.42439,1.787538 2.07492,2.182709 0.57656,2.798494 1.02956,6.083951 1.39268,9.878197 0.40059,3.705762 0.70626,7.339763 0.90728,10.899423 0.19254,3.48437 0.21952,6.34727 0.0435,8.62443 -1.76253,-0.18445 -3.9132,-0.42735 -6.4161,-0.73246 -2.49864,-0.22211 -5.60523,-0.19298 -9.32468,0.0873 -3.35792,0.25302 -6.46418,0.69382 -9.33145,1.33187 -2.81032,0.71984 -5.02737,1.31026 -6.63249,1.76878 -0.42606,-2.3162 -0.86211,-5.38607 -1.2847,-9.18347 -0.42942,-3.8866 -0.75533,-7.915831 -0.97472,-12.074089 -0.17464,-4.158472 -0.19997,-7.768956 -0.0936,-10.806317 -0.31672,-5.97493 -0.57977,-11.950847 -0.78913,-17.92775 -0.82599,0.01752 -1.65185,0.036 -2.47756,0.05544 0.21595,5.990995 0.48123,11.980951 0.79585,17.96987 0.47138,3.026691 0.85123,6.616162 1.15724,10.778424 0.35041,4.156576 0.60656,8.194003 0.76024,12.102273 0.14754,3.8291 0.16835,6.91174 0.0413,9.28099 -1.11255,-0.18678 -2.34208,-0.41129 -3.68612,-0.67457 -1.29284,-0.17932 -2.8779,-0.34165 -4.75836,-0.49047 -0.58734,-0.0193 -1.21851,-0.0276 -1.89371,-0.0253 -1.47932,0.005 -3.16747,0.0617 -5.06919,0.16796 -1.75871,0.0982 -3.4227,0.24654 -4.99393,0.44608 -1.47059,0.18676 -2.85925,0.41827 -4.1671,0.69531 -2.65978,0.57083 -4.91456,1.1133 -6.76396,1.63356 0,0 10e-6,0 10e-6,0 z"
           id="path1454"
           style="stroke-width:1.5;stroke-dasharray:none" />
        <path
           d="m 886.26564,112.61234 c -0.57597,-1.60878 -1.13346,-3.6837 -1.65078,-6.21402 -0.52696,-2.61363 -0.95313,-5.36212 -1.27304,-8.237923 -0.27493,-2.877546 -0.46179,-5.596718 -0.56939,-8.147407 -0.0692,-2.633404 0.0116,-4.782502 0.22026,-6.429585 0.63924,-0.510753 1.23494,-1.345968 1.79406,-2.503281 0.55587,-1.242358 0.95191,-3.283198 1.23059,-6.138701 0.27721,-2.959097 0.32034,-7.092936 0.25135,-12.561835 -0.0711,-5.632068 -0.25798,-9.77075 -0.7115,-12.588433 -0.40442,-2.791669 -0.91265,-4.734023 -1.56579,-5.840269 -0.6035,-1.182274 -1.14675,-1.995211 -1.63555,-2.437056 -0.36397,-1.416068 -0.59318,-3.410574 -0.66199,-5.966095 -0.0651,-2.638438 -0.008,-5.483418 0.18586,-8.519654 0.24041,-3.033324 0.59777,-5.934882 1.06875,-8.696982 0.47089,-2.761703 1.04831,-5.015992 1.7098,-6.754866 1.36755,0.336226 3.06406,0.802404 5.07535,1.403148 2.01416,0.601601 4.19022,1.194004 6.53577,1.787222 2.40193,0.520523 4.73633,0.967589 7.00905,1.34252 3.36171,0.55458 6.42939,0.940039 9.21709,1.149488 2.7922,0.139654 5.34108,0.286043 7.32072,0.396452 0.0482,2.160628 0.0128,4.217433 -0.10682,6.173856 -0.10789,1.88302 -0.29615,3.783142 -0.5597,5.705091 -0.37596,2.741729 -0.99181,5.832878 -1.79981,9.339587 -0.76107,3.507782 -1.46419,7.030392 -2.11161,10.573589 -0.64654,3.538403 -0.971,6.758753 -1.01852,9.606748 -0.0113,0.675643 -0.0199,1.35142 -0.026,2.027331 1.51677,-3.522404 2.72887,-7.918567 3.80445,-13.249758 1.13154,-5.428321 2.08123,-11.999664 3.17216,-19.979714 1.27661,0.38324 2.6321,0.859457 4.06755,1.427582 1.48381,0.577654 3.30974,1.18321 5.49005,1.832165 0.39123,0.116447 0.80061,0.233231 1.22831,0.35057 1.95929,0.537498 4.28169,1.080878 6.99988,1.658485 2.70995,0.575858 4.94985,0.967399 6.72982,1.164102 1.78212,0.196941 3.32641,0.354421 4.65064,0.466317 1.38071,0.05782 2.84648,0.18006 4.39698,0.367917 0.0714,1.427578 0.0117,3.16415 -0.14319,5.245593 -0.14266,2.014061 -0.38474,4.122258 -0.70861,6.342801 -0.27858,2.228346 -0.58376,4.347385 -0.9267,6.364428 -0.29189,1.963203 -0.62337,3.588584 -1.02962,4.894519 -2.3032,0.587776 -4.28857,1.356592 -5.95224,2.29318 -1.61871,0.941703 -3.0714,2.031322 -4.35298,3.264282 1.01289,5.230341 2.68833,9.407696 4.7987,12.478874 2.15655,3.013631 4.47305,5.366743 6.87076,7.089093 0.43875,1.305094 0.81272,2.95062 1.16104,4.963137 0.39279,2.01007 0.75194,4.14815 1.09357,6.427766 0.37549,2.212322 0.67493,4.368221 0.88841,6.476836 0.21403,2.11393 0.32318,3.8668 0.29246,5.28817 -1.92474,-0.0995 -4.07313,-0.25209 -6.43123,-0.46384 -2.35641,-0.21159 -5.21868,-0.18492 -8.57172,0.0991 -3.47515,0.29438 -6.33195,0.63282 -8.58492,1.02072 0,0 -10e-6,0 -10e-6,0 -0.15961,0.0275 -0.31616,0.0552 -0.46963,0.0832 -2.31661,0.42218 -4.22883,0.81536 -5.7304,1.17468 -1.44517,0.42969 -2.77946,0.81532 -4.01239,1.1571 -0.34942,-2.69617 -0.64156,-5.18039 -0.89049,-7.4157 -0.26161,-2.321832 -0.50662,-4.434558 -0.75246,-6.37387 -0.3965,-3.12785 -0.7895,-5.976531 -1.20869,-8.577297 -0.41848,-2.596297 -1.05072,-5.042889 -1.90922,-7.354809 -0.85824,-2.311193 -2.12769,-4.567328 -3.81418,-6.786416 0.12036,3.387304 0.30591,6.777961 0.55664,10.17197 0.80493,-0.008 1.60987,-0.01552 2.41483,-0.02239 0.42615,1.497543 0.78392,3.43031 1.10845,5.824049 0.36161,2.314785 0.68014,4.7793 0.96808,7.402156 0.33289,2.620482 0.57951,5.13622 0.72802,7.55549 0.13706,2.34843 0.17101,4.28243 0.0736,5.82769 -1.93902,-0.12451 -4.43215,-0.29006 -7.34354,-0.49772 -2.87518,-0.13627 -5.89778,-0.0743 -9.07189,0.19821 -2.17689,0.18688 -4.38693,0.45549 -6.63264,0.80926 -2.18807,0.42982 -4.24398,0.85086 -6.16237,1.26128 -1.90644,0.49137 -3.48519,0.91706 -4.72347,1.27186 z"
           id="path1456"
           style="stroke-width:1.5;stroke-dasharray:none" />
        <path
           d="m 981.17978,105.72448 c -5.48082,0.47897 -10.061,-0.0471 -13.75209,-1.74628 -3.62924,-1.69517 -6.46066,-4.133939 -8.42498,-7.290562 -1.96068,-3.150782 -3.18224,-6.642669 -3.62418,-10.379572 -0.67044,-5.669005 0.47867,-10.22364 3.15362,-13.454242 2.67495,-3.230601 7.14697,-4.438756 13.21714,-3.780817 4.73149,0.500077 9.45949,1.044841 14.18458,1.635 0.0201,-1.396961 0.0728,-2.789495 0.15817,-4.177603 -1.22532,-0.2025 -2.45098,-0.402098 -3.67697,-0.598789 -0.0434,0.725342 -0.0784,1.451782 -0.10506,2.179322 -4.55495,-0.447069 -9.04623,-0.826008 -13.47248,-1.142387 -4.4289,-0.31657 -8.82159,-0.898872 -13.19525,-1.822645 -0.87162,-9.949408 0.46855,-19.567311 3.89353,-28.211935 1.32093,0.340118 2.90902,0.786838 4.75811,1.343295 1.89589,0.568969 3.87052,1.199633 5.92693,1.892397 2.11514,0.646893 4.18307,1.291747 6.20092,1.931855 2.0133,0.638669 3.81272,1.225913 5.36966,1.745908 -1.03801,1.438676 -1.78553,2.976889 -2.24488,4.587216 -0.41444,1.622227 -0.5289,3.261526 -0.3532,4.89324 1.03254,-4.488045 3.29742,-7.206126 6.37878,-8.089024 3.10707,-0.890262 7.05272,-0.476846 11.81102,1.147455 6.12135,2.089577 10.46835,4.737483 13.06865,7.522794 2.6485,2.777858 3.9387,5.849884 4.2495,9.32237 0.1751,1.659569 0.079,3.338887 -0.252,5.089102 -0.2811,1.719203 -0.558,3.393977 -0.8434,5.034302 -0.2849,1.638661 -0.375,3.158663 -0.3118,4.5253 0.1207,2.606118 0.8071,4.558428 1.8138,5.747165 1.0522,1.158345 2.1277,1.936668 3.1757,2.349646 0.64,1.26089 1.1963,2.803772 1.7601,4.685077 0.6074,1.878621 1.1777,3.766623 1.7072,5.680426 0.5315,1.920883 0.9194,3.588928 1.1013,5.042816 -1.8057,0.55109 -3.7715,0.97852 -5.8999,1.26039 -2.1148,0.32967 -3.84,0.55001 -5.2149,0.6469 -3.4749,0.2449 -6.3516,0.005 -8.6553,-0.79074 -2.2917,-0.79169 -3.87262,-2.4581 -4.61296,-4.952751 -0.26133,-0.880593 -0.3886,-1.816089 -0.37769,-2.797386 0.056,-0.98118 0.15302,-2.033922 0.29905,-3.147147 -0.66166,-0.333308 -1.32077,-0.669902 -1.97739,-1.009792 -0.32206,2.246521 -0.89351,4.43998 -1.74479,6.610961 -0.8057,2.16849 -2.22412,4.033435 -4.33087,5.599835 -2.05988,1.56214 -5.10392,2.56465 -9.15767,2.9189 z m 1.49209,-25.057251 c 1.22927,0.07765 2.45851,0.15751 3.68774,0.239598 -0.16357,-1.68595 -0.28101,-3.365646 -0.35232,-5.039088 -1.22693,-0.123493 -2.45397,-0.244523 -3.68112,-0.363107 0.0696,1.714881 0.18485,3.435747 0.3457,5.162597 z"
           id="path1458"
           style="stroke-width:1.5;stroke-dasharray:none" />
      </g>
      <g
         aria-label="Meow-ster of catalogs!"
         transform="rotate(45.367628,-53.544375,10.13296)"
         id="text2191"
         style="font-size:27.6916px;font-family:Oi;-inkscape-font-specification:Oi;text-align:center;text-anchor:middle;opacity:1;fill:#ffffff;stroke:#000000;stroke-width:1.5;stroke-dasharray:none">
        <path
           d="m 858.29111,-708.83383 c 0.0643,0.84724 0.0705,1.60442 0.0196,2.27002 -0.0322,0.66753 -0.11542,1.63845 -0.25085,2.90919 -1.63476,15.33804 -3.46102,30.64588 -5.47877,45.92352 -0.50194,3.80045 -1.16957,5.96282 -1.99205,6.49774 -0.41081,0.26719 -0.89538,0.353 -1.45236,0.25939 -0.55687,-0.0936 -0.97833,-0.30357 -1.26421,-0.63074 -0.2859,-0.32719 -0.48646,-0.69566 -0.60236,-1.10623 -0.11595,-0.41069 -0.16929,-0.97855 -0.16091,-1.70457 0.0403,-0.94704 0.19904,-2.37133 0.47112,-4.28822 1.30049,-9.16268 2.4903,-18.33891 3.56942,-27.5287 -0.68549,1.71693 -1.62081,4.21873 -2.99268,7.90436 -1.32422,3.52189 -2.22405,5.82351 -2.57157,6.68217 -0.2174,0.53717 -0.39359,0.97338 -0.53368,1.32315 0,0 0,0 0,0 -0.0948,0.23655 -0.17126,0.42915 -0.22986,0.57923 -0.13706,0.31604 -0.43471,0.77988 -0.8931,1.39039 -0.4324,0.55827 -0.8592,0.81309 -1.27693,0.7672 -0.39957,-0.0439 -0.73047,-0.35439 -0.99294,-0.92974 -0.23652,-0.62725 -0.38593,-1.21666 -0.45028,-1.76919 9.6e-4,0.0103 -0.0859,-0.91962 -0.085,-0.90935 -0.1998,-1.70919 -0.41123,-3.97014 -0.89601,-8.69693 -0.44353,-4.4464 -0.7229,-6.78125 -0.77085,-7.10128 -1.03707,8.97216 -2.35774,17.9409 -3.96202,26.90622 -0.21867,1.22199 -0.40877,2.15465 -0.56274,2.78716 -0.12656,0.58284 -0.33207,1.23911 -0.61896,1.96608 -0.54654,1.40539 -1.40062,2.03155 -2.53758,1.90289 -1.10102,-0.1246 -1.61364,-0.90321 -1.56837,-2.34185 0.0196,-0.74623 0.0797,-1.43464 0.17872,-2.06482 0.11903,-0.64403 0.30359,-1.55593 0.56166,-2.82525 2.94868,-14.5034 4.80822,-28.94914 5.57863,-43.33722 0.0646,-1.20566 0.11166,-2.06205 0.1553,-2.64885 0.0622,-0.62837 0.17832,-1.3468 0.34911,-2.15369 0.31489,-1.39782 1.03155,-2.23527 2.17435,-2.41481 0.48897,-0.0768 0.89914,0.0508 1.22487,0.37904 0.34681,0.27298 0.56356,0.59418 0.65025,0.95495 0.045,0.15393 0.0897,0.30809 0.13431,0.46246 1.5434,7.59965 2.74226,15.95105 3.79393,24.03587 1.0183,-2.7098 2.00892,-5.37659 2.85639,-7.6672 0,0 0,0 0,0 2.89289,-7.82301 4.865,-13.25299 5.98369,-16.23445 0.46264,-1.45783 1.28642,-2.14565 2.47217,-2.02752 1.20431,0.11997 1.86238,0.95636 1.9705,2.47958 z"
           style="font-family:'Fredoka One';-inkscape-font-specification:'Fredoka One';stroke-width:1.5;stroke-dasharray:none"
           id="path2236" />
        <path
           d="m 871.65575,-674.36359 c -0.3677,3.3913 -0.93309,5.85679 -1.70337,7.40344 -0.74481,1.49412 -1.47099,2.16925 -2.17496,2.02701 -2.25413,-0.45544 -4.508,-0.89221 -6.76215,-1.30637 -0.18344,1.55169 -0.0242,2.91054 0.48207,4.0822 0.50616,1.17151 1.07644,1.81898 1.70809,1.94091 1.11035,0.21435 2.01899,0.0538 2.72506,-0.48707 0.005,-0.004 0.34758,-0.2663 0.35282,-0.27032 0.52718,-0.5193 0.94275,-0.74791 1.2482,-0.68608 0.61089,0.12365 0.99761,1.48133 1.1664,4.07322 0.086,1.55225 0.0729,2.85617 -0.0415,3.91257 -0.53621,4.95346 -2.86453,6.98493 -7.02593,6.17062 -1.4419,-0.28215 -2.6447,-1.22114 -3.59993,-2.81555 -0.0991,-0.17566 -0.19481,-0.35576 -0.28702,-0.54031 0,0 0,0 0,0 -0.77107,-1.54489 -1.29667,-3.39975 -1.58309,-5.5709 -0.64241,-4.68756 -0.59927,-9.78419 0.0754,-15.30268 0.84946,-6.9478 2.25355,-12.40035 4.23736,-16.30104 0.67071,-1.31984 1.35535,-2.39837 2.05569,-3.2347 1.402,-1.67142 2.8617,-2.37255 4.38291,-2.09064 2.5995,0.48172 4.20048,3.59519 4.82169,9.29315 0.32032,3.02036 0.29566,6.25815 -0.0778,9.70254 z m -6.23946,1.21582 c 0.71811,0.13811 1.17661,-0.67923 1.37621,-2.45653 0.14341,-1.27697 0.089,-2.33783 -0.1621,-3.18043 -0.23236,-0.83903 -0.65847,-1.31792 -1.27871,-1.43455 -0.60152,-0.11311 -1.2877,0.52503 -2.06203,1.91256 -0.76784,1.33187 -1.24996,2.83056 -1.44358,4.49271 1.19024,0.2151 2.38028,0.43739 3.57021,0.66624 z"
           style="font-family:'Fredoka One';-inkscape-font-specification:'Fredoka One';stroke-width:1.5;stroke-dasharray:none"
           id="path2238" />
        <path
           d="m 872.5072,-668.81205 c 0.7115,-6.66395 2.09962,-12.01169 4.13219,-15.9914 2.0354,-3.98525 4.05449,-5.73701 6.0658,-5.25652 2.01296,0.48088 3.55737,3.08276 4.67513,7.7834 1.12249,4.64178 1.37904,10.29131 0.77105,16.93265 -0.42096,4.59833 -1.19046,8.60158 -2.33398,12.01991 -1.13875,3.36313 -2.38234,5.77091 -3.74023,7.22777 -1.33245,1.40445 -2.64635,1.9675 -3.93279,1.68733 -1.28612,-0.2801 -2.45026,-1.43964 -3.47759,-3.47863 -1.02232,-2.0956 -1.76529,-4.97989 -2.22592,-8.65991 -0.4355,-3.73046 -0.40847,-7.81755 0.0663,-12.2646 z m 5.33567,7.30135 c 0.47728,1.46974 1.03391,2.27517 1.66469,2.41663 0.63081,0.14147 1.32882,-0.41101 2.09094,-1.65618 0.76264,-1.24602 1.27022,-3.226 1.53298,-5.94642 0.26262,-2.71891 0.16859,-4.8136 -0.28299,-6.28187 -0.4517,-1.46868 -1.01394,-2.28225 -1.69101,-2.43923 -0.67699,-0.15697 -1.37783,0.39223 -2.10432,1.64832 -0.72601,1.25527 -1.23148,3.24741 -1.50902,5.96964 -0.27204,2.66816 -0.17315,4.76337 0.29873,6.28911 z"
           style="font-family:'Fredoka One';-inkscape-font-specification:'Fredoka One';stroke-width:1.5;stroke-dasharray:none"
           id="path2240" />
        <path
           d="m 910.28591,-681.5109 c 1.0567,1.84771 1.49701,3.88318 1.3181,6.11019 -0.0743,0.92435 -0.34259,2.37779 -0.80231,4.36747 -0.455,1.93307 -0.84277,3.64211 -1.16249,5.11378 -1.5767,7.04162 -3.11738,14.11857 -4.63305,21.23101 -0.43847,2.34939 -1.02385,3.94214 -1.7662,4.78038 -0.31549,0.3196 -0.69796,0.42959 -1.14696,0.32944 -0.15851,-0.0354 -0.31227,-0.12878 -0.46114,-0.28032 -0.27258,-0.27772 -0.52882,-0.75064 -0.76753,-1.41885 -0.34601,-1.08361 -0.55313,-2.13724 -0.62303,-3.15983 -1.2e-4,-0.001 -0.13826,-1.45677 -0.13837,-1.45801 -0.0579,-0.81926 -0.38849,-5.88316 -0.76199,-13.28596 -0.29151,1.26749 -0.74909,3.38782 -1.35818,6.32181 -0.59015,2.9048 -0.9611,4.69848 -1.13613,5.4582 -0.14902,0.69747 -0.25152,1.17455 -0.31052,1.44392 -0.0352,0.21641 -0.14434,0.6404 -0.32739,1.27224 -0.0412,0.1421 -0.083,0.27979 -0.12555,0.41309 -0.14681,0.45944 -0.30176,0.86654 -0.465,1.22136 -0.56154,1.22067 -1.14577,1.76413 -1.75123,1.62825 -0.60548,-0.13588 -1.0794,-0.72018 -1.41865,-1.75369 -0.33511,-1.08881 -0.53138,-2.14732 -0.59051,-3.17481 -0.68218,-10.53931 -1.22143,-21.02543 -1.65554,-31.57 -0.0273,-1.70379 -0.0145,-2.80862 0.0342,-3.30448 0.21728,-2.2108 0.92445,-3.81873 2.11254,-4.81462 0.66765,-0.56409 1.18737,-0.79672 1.55967,-0.69984 0.37235,0.0969 0.64564,0.42276 0.82048,0.97698 0.19889,0.50399 0.32097,1.01607 0.36608,1.53621 0.0505,0.46504 0.0798,0.95276 0.0882,1.46318 0.10548,2.2863 0.26427,7.6373 0.58699,16.05048 0.94322,-4.33117 1.89368,-8.64591 2.85623,-12.95777 0.13642,-0.68389 0.30618,-1.30157 0.50892,-1.8528 0.11438,-0.31145 0.23927,-0.60172 0.37462,-0.87076 0.68881,-1.45032 1.31204,-2.09889 1.86953,-1.94958 0.55751,0.14933 0.99011,0.71524 1.30031,1.69621 0.32881,0.98596 0.52904,1.93664 0.59993,2.8524 -9e-5,-0.001 0.10001,1.45719 0.0999,1.45577 0.124,3.81432 0.24646,6.91204 0.34355,9.12919 0.10377,2.3626 0.18505,3.87736 0.22761,4.447 0.93025,-4.40518 1.87262,-8.79785 2.82943,-13.17789 0.74674,-3.37487 1.57207,-4.93483 2.4628,-4.69064 0.35264,0.0967 0.69969,0.47069 1.0427,1.12129 z"
           style="font-family:'Fredoka One';-inkscape-font-specification:'Fredoka One';stroke-width:1.5;stroke-dasharray:none"
           id="path2242" />
        <path
           d="m 919.89495,-647.30065 c -2.2897,-0.53034 -4.57855,-1.06427 -6.86679,-1.60013 -1.07714,-0.25224 -1.66847,-1.32976 -1.76684,-3.23451 -0.0363,-1.00402 -0.007,-2.26994 0.0907,-3.79545 0.0973,-1.5251 0.23553,-2.73778 0.41092,-3.6344 0.17549,-0.89719 0.39992,-1.50542 0.67173,-1.82443 0.374,-0.40428 0.84457,-0.5346 1.41217,-0.39201 2.25164,0.56562 4.50338,1.13144 6.75552,1.69573 1.05965,0.2655 1.63224,1.31013 1.72566,3.13149 0.0614,0.99669 0.0528,2.24766 -0.0233,3.7554 -0.0761,1.50821 -0.19266,2.73235 -0.35354,3.67626 -0.13906,0.89396 -0.33172,1.50294 -0.57985,1.82728 -0.36827,0.4053 -0.86059,0.53739 -1.47637,0.39477 z"
           style="font-family:'Fredoka One';-inkscape-font-specification:'Fredoka One';stroke-width:1.5;stroke-dasharray:none"
           id="path2244" />
        <path
           d="m 923.71236,-638.92476 c -0.34755,-0.72742 -0.4955,-1.79259 -0.44216,-3.19397 0.0533,-1.4008 0.50536,-3.44798 1.35725,-6.1266 0.25044,-0.86456 0.60614,-1.24194 1.06586,-1.13448 0.47988,0.11218 1.09098,0.93242 1.84714,2.45632 0.75798,1.46992 1.47055,2.27598 2.12563,2.42299 1.17729,0.26421 1.78356,-0.24599 1.82573,-1.52289 0.0334,-1.01145 -0.5843,-1.90318 -1.85003,-2.68069 -1.18888,-0.75961 -2.33731,-2.29554 -3.42406,-4.61463 -0.50765,-1.09662 -0.89184,-2.70889 -1.14392,-4.83481 -0.24925,-2.17952 -0.28919,-4.6914 -0.11577,-7.52884 0.51834,-8.48079 2.89078,-12.09471 6.88539,-10.97363 1.31626,0.3694 2.60437,1.64721 3.8885,3.8186 0.5987,1.02011 0.86266,2.15897 0.79132,3.42038 -0.0714,1.26163 -0.36135,2.75804 -0.86908,4.49503 -0.50779,1.73717 -0.97562,2.55438 -1.40831,2.444 -0.22533,-0.0575 -0.63002,-0.56185 -1.20792,-1.51532 -0.55924,-0.94881 -1.19307,-1.51764 -1.90575,-1.70362 -1.1056,-0.28851 -1.69395,0.15043 -1.75967,1.32207 -0.0896,1.59725 0.49559,2.79871 1.75454,3.60049 1.22668,0.68606 2.38407,1.99606 3.48879,3.92253 0.51804,0.87495 0.91945,2.27872 1.21417,4.21317 0.31566,1.88597 0.43208,4.20008 0.35665,6.94959 -0.0755,2.751 -0.31907,5.06215 -0.74693,6.9438 -0.40714,1.83169 -0.95703,3.1566 -1.65819,3.97465 -1.27902,1.39244 -2.87347,1.90312 -4.77602,1.51093 -1.88121,-0.3878 -3.66467,-2.26877 -5.29316,-5.66507 z"
           style="font-family:'Fredoka One';-inkscape-font-specification:'Fredoka One';stroke-width:1.5;stroke-dasharray:none"
           id="path2246" />
        <path
           d="m 946.76105,-657.85299 c -0.60979,-0.25219 -1.21924,-0.50524 -1.82836,-0.75912 -0.12723,3.58298 -0.22852,7.17209 -0.30386,10.76735 -0.0295,1.40657 0.0296,2.44104 0.17296,3.09948 0.16267,0.66308 0.46621,1.04152 0.90895,1.1358 0.46195,0.0984 0.8078,0.22387 1.03759,0.37668 0.24974,0.10492 0.50679,0.39351 0.77251,0.86521 0.43661,0.76751 0.64182,2.54948 0.63688,5.35429 -0.006,3.2746 -0.26143,5.22185 -0.80951,5.85227 -0.2924,0.31011 -0.55624,0.49576 -0.79143,0.55641 -0.21569,0.0121 -0.53983,-0.022 -0.97181,-0.10275 -1.71865,-0.32134 -3.09061,-1.45408 -4.09792,-3.40561 -0.1901,-0.36816 -0.36716,-0.76535 -0.53105,-1.19155 -1.03226,-2.68446 -1.50018,-6.99012 -1.34232,-12.87615 0.10429,-3.88899 0.23686,-7.77113 0.39771,-11.64641 -0.36476,0.068 -0.75474,0.0505 -1.16962,-0.0529 -0.41477,-0.10341 -0.74492,-0.63676 -0.98665,-1.60138 -0.2227,-0.95898 -0.28335,-2.51869 -0.17235,-4.67076 0.11084,-2.14908 0.24593,-3.69068 0.39238,-4.60548 0.14996,-0.97049 0.3222,-1.64243 0.51409,-2.01506 0.33763,-0.59899 0.72926,-0.83587 1.17445,-0.7129 -0.002,-0.001 0.90227,0.56771 0.9002,0.56641 0.15635,-2.68622 0.3264,-5.36911 0.51014,-8.04868 0.0819,-1.19401 0.15474,-2.08061 0.21398,-2.64429 0.0779,-0.56093 0.21513,-1.15727 0.41177,-1.78828 0.29169,-1.06963 0.90262,-1.53561 1.82911,-1.40177 0,0 0,0 0,0 0.1365,0.0197 0.27987,0.0524 0.43014,0.0982 1.24371,0.37838 1.91198,1.55797 2.01812,3.53413 0.0346,0.8539 -0.009,2.1772 -0.12459,3.98469 -0.16109,2.5277 -0.3091,5.0585 -0.44403,7.59238 0.82753,0.0156 1.44557,0.0793 1.85366,0.19029 0.42681,0.11603 0.73971,0.25317 0.93867,0.41137 0.22022,0.11183 0.45898,0.41101 0.71761,0.89697 0.45045,0.79773 0.59491,2.83614 0.4653,6.12617 -0.12768,3.24077 -0.43773,5.15703 -0.97206,5.7585 -0.29426,0.29254 -0.5562,0.46343 -0.78592,0.51207 -0.20911,0.002 -0.53085,-0.0501 -0.96474,-0.15532 0,0 0,-2e-4 0,-2e-4 z"
           style="font-family:'Fredoka One';-inkscape-font-specification:'Fredoka One';stroke-width:1.5;stroke-dasharray:none"
           id="path2248" />
        <path
           d="m 964.62675,-651.90168 c -0.019,3.04711 -0.30367,5.25587 -0.89191,6.64458 -0.56794,1.33916 -1.20536,1.94438 -1.91686,1.80393 -2.27629,-0.44934 -4.55108,-0.91081 -6.82456,-1.38298 -0.007,1.43165 0.30837,2.69919 0.94718,3.79605 0.63875,1.09672 1.28111,1.70384 1.91947,1.82617 1.12197,0.215 1.99963,0.0757 2.63127,-0.41078 -3.6e-4,2.8e-4 0.31609,-0.24342 0.31574,-0.24314 0.45796,-0.46835 0.84121,-0.67212 1.14987,-0.6135 0.61751,0.11726 1.15735,1.35066 1.64668,3.69506 0.27821,1.40453 0.43243,2.58192 0.45695,3.53925 0.11416,4.45817 -1.87291,6.42295 -6.09323,5.72772 -1.45937,-0.2404 -2.77666,-1.09996 -3.93692,-2.58777 -1.14132,-1.53569 -2.03124,-3.45023 -2.66304,-5.73911 -1.24323,-4.41806 -1.8121,-9.233 -1.71418,-14.3917 0.12325,-6.49314 1.0801,-11.49342 2.73776,-14.92773 1.68402,-3.4924 3.66943,-4.89732 5.92991,-4.29773 2.58401,0.6854 4.36184,3.63788 5.46803,8.81113 0.57832,2.74532 0.85718,5.65676 0.83784,8.75055 z m -6.02741,0.87881 c 0.72359,0.15862 1.08931,-0.57302 1.11097,-2.18665 0.0156,-1.16051 -0.139,-2.1319 -0.46537,-2.91702 -0.30744,-0.78057 -0.77056,-1.24495 -1.39218,-1.39147 -0.60281,-0.14209 -1.2219,0.3981 -1.85553,1.62983 -0.63244,1.18072 -0.96433,2.53948 -0.9886,4.06956 1.19656,0.26799 2.39345,0.53331 3.59071,0.79575 z"
           style="font-family:'Fredoka One';-inkscape-font-specification:'Fredoka One';stroke-width:1.5;stroke-dasharray:none"
           id="path2250" />
        <path
           d="m 976.72992,-663.53973 c 0.34908,0.37367 0.62927,0.94714 0.84312,1.7204 0.23346,0.73019 0.34037,1.86131 0.32973,3.40037 -0.0106,1.53857 -0.19294,3.18354 -0.54612,4.9425 -0.35308,1.75847 -0.86387,2.57632 -1.54843,2.43804 -0.34145,-0.069 -0.67491,-0.33043 -0.99874,-0.78569 -0.30481,-0.45126 -0.71223,-0.73083 -1.22332,-0.83777 -0.51082,-0.10689 -0.99385,0.2547 -1.44711,1.09099 -0.4341,0.83985 -0.64949,1.92525 -0.63926,3.25173 0.0398,5.15897 0.15787,10.3335 0.35421,15.52359 0.0431,1.13885 0.0598,1.99762 0.0458,2.58755 0.004,0.54139 -0.0564,1.17174 -0.17967,1.89221 -0.23578,1.24415 -0.97294,1.78475 -2.21752,1.60464 -0.94758,-0.13714 -1.64687,-0.66251 -2.09369,-1.57695 -0.34231,-0.74877 -0.55924,-1.85419 -0.64541,-3.3126 -0.0156,-0.48321 -0.0397,-1.24407 -0.0663,-2.17716 -0.25008,-8.78023 -0.2914,-17.51739 -0.12394,-26.21148 0.0219,-1.13614 0.0511,-1.98186 0.0826,-2.51845 0.0516,-0.58475 0.15199,-1.20732 0.30136,-1.86683 0.29775,-1.27108 1.0451,-1.75032 2.23558,-1.45179 1.11678,0.28004 1.79931,1.01684 2.05345,2.20842 0.18748,0.83209 0.27419,1.66275 0.25958,2.49393 0.0996,-0.32011 0.23822,-0.70472 0.41597,-1.15267 0.19639,-0.44338 0.59306,-1.01072 1.18952,-1.697 0.59646,-0.68628 1.10962,-0.9742 1.53782,-0.86955 0.44707,0.10927 0.81814,0.27257 1.11326,0.48961 0.29625,0.16882 0.61835,0.44041 0.96743,0.81404 0,0 10e-6,-8e-5 10e-6,-8e-5 z"
           style="font-family:'Fredoka One';-inkscape-font-specification:'Fredoka One';stroke-width:1.5;stroke-dasharray:none"
           id="path2252" />
        <path
           d="m 986.4374,-643.15861 c -0.20785,-5.65974 0.5383,-10.18584 2.09333,-13.48581 0.17502,-0.37141 0.3534,-0.71866 0.53494,-1.04181 1.43577,-2.55686 3.0644,-3.6035 4.85587,-3.21903 2.02749,0.43512 3.79762,2.58287 5.43822,6.37173 1.64034,3.74555 2.59314,8.24619 2.94004,13.61814 0.24,3.71711 0.1018,6.98392 -0.472,9.84402 -0.5778,2.81418 -1.3863,4.88937 -2.47023,6.21627 -1.06675,1.28005 -2.25745,1.88189 -3.56967,1.77683 -1.31155,-0.105 -2.66051,-0.95661 -4.01704,-2.57793 -0.51022,-0.62559 -0.99971,-1.35071 -1.4666,-2.1755 -0.77804,-1.37399 -1.49368,-3.02512 -2.13654,-4.95124 -1.01215,-3.12682 -1.59163,-6.59933 -1.73032,-10.37567 z m 6.28892,5.95074 c 0.68713,1.19635 1.35786,1.82945 1.99952,1.90803 0.64166,0.0786 1.24274,-0.42161 1.80583,-1.48809 0.56412,-1.06842 0.76896,-2.71288 0.64626,-4.94748 -0.12262,-2.23335 -0.49136,-3.93724 -1.12653,-5.1278 -0.63482,-1.18991 -1.28841,-1.84757 -1.97397,-1.96458 -0.6844,-0.11681 -1.30536,0.34643 -1.85789,1.40244 -0.55147,1.05397 -0.79049,2.72536 -0.68741,5.00062 0.10104,2.23025 0.50443,3.97442 1.19419,5.21686 z"
           style="font-family:'Fredoka One';-inkscape-font-specification:'Fredoka One';stroke-width:1.5;stroke-dasharray:none"
           id="path2254" />
        <path
           d="m 1011.6091,-656.59934 c 1.3029,0.22571 2.0856,1.1616 2.3711,2.80535 0.1431,0.82416 0.2418,1.88929 0.3053,3.20469 0.064,1.31565 0.057,2.36462 -0.029,3.15597 -0.069,0.75004 -0.2248,1.27894 -0.4711,1.58697 -0.3692,0.46174 -0.9368,0.64809 -1.7035,0.55247 -0.6188,-0.16237 -1.2373,-0.32684 -1.8553,-0.49338 0.3491,5.79621 0.8719,11.61268 1.5685,17.44942 0.1978,1.65748 0.2603,2.89044 0.1705,3.7141 -0.076,0.77836 -0.2926,1.29217 -0.6551,1.53946 -0.3424,0.24797 -0.8227,0.36068 -1.4397,0.33442 -0.6171,-0.0263 -1.1319,-0.18153 -1.5437,-0.46608 -0.3975,-0.32789 -0.7141,-0.80801 -0.9481,-1.43951 -0.2393,-0.67572 -0.4085,-1.28292 -0.5092,-1.81902 -0.081,-0.5321 -0.1796,-1.31708 -0.289,-2.33635 -0.632,-5.88884 -1.0995,-11.7562 -1.4025,-17.60206 -0.3442,-0.0492 -0.6883,-0.0988 -1.0324,-0.14885 -0.5015,-0.16089 -0.868,-0.47953 -1.0984,-0.95589 -0.4002,-0.89679 -0.6546,-2.55632 -0.7264,-4.95495 -0.1093,-3.65193 0.4476,-5.351 1.5483,-5.14239 0.3106,0.0589 0.6213,0.11744 0.932,0.1757 -0.019,-1.16376 -0.032,-2.32666 -0.038,-3.4887 -0.017,-3.37594 0.5373,-6.31206 1.6205,-8.76183 1.0869,-2.49937 2.6157,-3.47317 4.5399,-3.00497 0.4263,0.10373 0.7402,0.22246 0.9414,0.35645 0.2213,0.0961 0.4654,0.34699 0.7339,0.75149 0.4877,0.6726 0.6843,2.34749 0.6548,5.05468 -0.022,2.03126 -0.1747,3.45391 -0.4902,4.28531 -0.2592,0.62713 -0.6685,0.93135 -1.231,0.90766 0.1698,0.0329 -0.9577,-0.18621 -0.7879,-0.15331 -0.6929,-0.13547 -1.0395,0.33084 -1.0279,1.40745 0.013,1.18266 0.033,2.36618 0.06,3.55055 -0.01,2.9e-4 1.8394,-0.0652 1.8309,-0.0648 z"
           style="font-family:'Fredoka One';-inkscape-font-specification:'Fredoka One';stroke-width:1.5;stroke-dasharray:none"
           id="path2256" />
        <path
           d="m 1028.7922,-638.42111 c 0.1955,1.68073 0.639,3.01554 1.3147,3.98962 0.6707,0.93461 1.3154,1.40227 1.9209,1.41347 0.626,0.0116 1.1496,-0.33567 1.5744,-1.03176 0.4387,-0.73479 0.8261,-1.09525 1.1568,-1.08877 0.5846,0.0115 1.4344,1.05758 2.6073,3.09636 0.086,0.15223 0.168,0.30216 0.2455,0.44984 0,0 0,0 0,0 0.4901,0.93501 0.8057,1.77888 0.9421,2.54216 0.1455,0.81493 0.1221,1.60395 -0.073,2.3724 -0.1546,0.60769 -0.4168,1.20263 -0.7878,1.78585 -0.8263,1.59215 -2.0574,2.44678 -3.7105,2.50546 -1.8458,0.0655 -3.8994,-1.218 -6.044,-3.94661 -1.0218,-1.30189 -1.9504,-3.04987 -2.7561,-5.23766 -0.8114,-2.22884 -1.3602,-4.66905 -1.6362,-7.2938 -0.2803,-2.66448 -0.2376,-5.0446 0.097,-7.11253 0.3319,-2.10958 0.8652,-3.76301 1.5702,-4.95852 1.4267,-2.47358 3.0589,-3.54693 4.8392,-3.32378 0.7219,0.0905 1.4349,0.39261 2.1429,0.90026 0.7061,0.46882 1.2332,0.91046 1.5812,1.33128 0.1645,0.20934 0.3293,0.41813 0.4946,0.62638 0.3779,0.50317 0.6626,0.88234 0.8772,1.17472 0.1037,0.15297 0.1992,0.30895 0.2864,0.46802 0,0 0,0 0,0 0.3768,0.68804 0.5995,1.4335 0.6695,2.24218 0.075,0.86528 6e-4,1.8272 -0.2199,2.89385 0,0 0,0 0,0 -0.024,0.11373 -0.049,0.22866 -0.076,0.34479 -0.4776,2.07196 -1.0145,3.10957 -1.652,3.07736 -0.3658,-0.0185 -0.9393,-0.47252 -1.7036,-1.37533 -0.4164,-0.6869 -0.9491,-1.05584 -1.6036,-1.10296 -0.6345,-0.0457 -1.1874,0.3828 -1.6509,1.29891 -0.4627,0.91461 -0.6068,2.23877 -0.4068,3.95881 z"
           style="font-family:'Fredoka One';-inkscape-font-specification:'Fredoka One';stroke-width:1.5;stroke-dasharray:none"
           id="path2258" />
        <path
           d="m 1047.602,-649.22691 c -0.071,-2.0132 0.6257,-2.95784 2.0205,-2.87906 0.7483,0.0423 1.3136,0.17665 1.6959,0.40475 0.3825,0.22821 0.6632,0.60656 0.8454,1.13605 0.2015,0.5304 0.3336,1.00383 0.3948,1.42332 0.077,0.38723 0.1559,0.9762 0.2455,1.78051 0.6795,6.10281 1.7118,12.19399 3.097,18.27355 0.1825,0.80125 0.3063,1.40642 0.3672,1.82967 0.072,0.38431 0.102,0.84411 0.093,1.38137 -0.053,0.93322 -0.6183,1.47248 -1.7096,1.59453 -1.0706,0.11973 -1.8511,-0.0359 -2.3393,-0.46321 -0.4765,-0.46456 -0.8534,-1.16264 -1.1229,-2.08987 -0.3017,1.95621 -1.2921,3.04437 -3.0223,3.19253 -1.6996,0.14552 -3.6449,-1.18379 -5.686,-4.0985 -2.0391,-2.91191 -3.3515,-6.41067 -3.8915,-10.36919 -0.545,-3.99502 -0.1823,-7.45556 0.9804,-10.28097 1.1816,-2.86896 2.6715,-4.17732 4.366,-4.04473 0.6506,0.0509 1.2589,0.31461 1.8285,0.78607 0.5699,0.47166 0.9777,0.9083 1.2228,1.31677 0.242,0.37224 0.4469,0.7407 0.6147,1.10641 z m -3.9057,11.23801 c 0.1801,1.22115 0.609,2.33209 1.2836,3.31767 0.6687,0.9492 1.3725,1.40587 2.0964,1.38156 0.7254,-0.0244 1.2311,-0.53897 1.5291,-1.52755 0.3178,-0.99004 0.3817,-2.05433 0.1995,-3.20404 -0.1879,-1.18571 -0.5828,-2.27808 -1.1873,-3.29119 -0.5848,-1.01237 -1.2563,-1.53204 -2.0308,-1.54876 -0.7534,-0.0163 -1.3114,0.47833 -1.6614,1.50135 -0.3303,1.02273 -0.4093,2.14982 -0.2291,3.37096 z"
           style="font-family:'Fredoka One';-inkscape-font-specification:'Fredoka One';stroke-width:1.5;stroke-dasharray:none"
           id="path2260" />
        <path
           d="m 1064.6457,-643.09461 c -0.6432,-0.0274 -1.2861,-0.0585 -1.9286,-0.0932 0.3581,2.26766 0.7709,4.53146 1.2384,6.79137 0.1828,0.88387 0.4015,1.51545 0.6447,1.89016 0.2634,0.3734 0.6219,0.53366 1.073,0.48186 0.4708,-0.0541 0.8312,-0.0637 1.0816,-0.0276 0.2625,0.002 0.5606,0.11401 0.8958,0.3354 0.5497,0.35913 1.0267,1.39596 1.4776,3.11425 0.5259,2.00467 0.6101,3.27326 0.187,3.81618 -0.2313,0.27495 -0.4556,0.4655 -0.6739,0.57071 -0.2073,0.0695 -0.529,0.14205 -0.9628,0.2153 -1.608,0.27147 -3.0483,0.007 -4.3073,-0.80993 -0.3486,-0.22576 -0.6827,-0.49363 -1.0018,-0.80356 -1.4706,-1.42851 -2.6685,-4.06475 -3.4219,-7.85629 -0.4978,-2.50513 -0.9324,-5.01337 -1.3039,-7.52471 -0.3541,0.11196 -0.745,0.17366 -1.1723,0.18355 -0.4271,0.01 -0.83,-0.27374 -1.2023,-0.85529 -0.352,-0.58022 -0.6249,-1.58353 -0.7926,-2.99847 -0.1673,-1.41149 -0.2221,-2.43945 -0.1875,-3.05397 0.032,-0.65344 0.1241,-1.11588 0.2721,-1.38577 0.2675,-0.43853 0.6333,-0.64812 1.095,-0.63413 0.3236,0.0781 0.6474,0.1551 0.9714,0.23105 -0.1594,-1.75263 -0.2881,-3.50675 -0.3863,-5.26238 -0.044,-0.78074 -0.061,-1.36667 -0.058,-1.73714 0.021,-0.37258 0.1,-0.7753 0.2368,-1.2069 0.2032,-0.78049 0.8478,-1.14771 1.9264,-1.12256 0,0 0,0 0,0 0.076,0.002 0.1546,0.006 0.2352,0.0113 1.2986,0.0919 2.088,0.75494 2.3937,1.99187 0.1213,0.53809 0.2099,1.37838 0.2851,2.53915 0.105,1.62094 0.2376,3.23992 0.3979,4.85694 0.8358,-0.1297 1.4659,-0.19701 1.8907,-0.19926 0.4441,-0.002 0.7756,0.0271 0.9948,0.0897 0.2353,0.0299 0.5108,0.17246 0.8285,0.42544 0.5478,0.41044 0.9287,1.6387 1.2087,3.68741 0.2757,2.01669 0.2199,3.26177 -0.2325,3.74511 -0.2554,0.2436 -0.4942,0.40554 -0.7173,0.48497 -0.2084,0.0458 -0.5375,0.0831 -0.9848,0.1096 0,0 -4e-4,-10e-5 -4e-4,-10e-5 z"
           style="font-family:'Fredoka One';-inkscape-font-specification:'Fredoka One';stroke-width:1.5;stroke-dasharray:none"
           id="path2262" />
        <path
           d="m 1077.928,-649.80806 c -0.044,-0.58576 0.011,-1.07762 0.1596,-1.47322 0.278,-0.73669 0.8816,-1.13654 1.8046,-1.22033 0.7587,-0.0689 1.3346,-0.0376 1.7283,0.0983 0.3938,0.13596 0.6886,0.41194 0.8875,0.82933 0.2184,0.41527 0.3647,0.7928 0.4376,1.13575 0.088,0.31325 0.1832,0.79621 0.2938,1.45768 0.839,5.02069 1.9947,9.98063 3.467,14.87984 0.194,0.64543 0.3261,1.1359 0.3928,1.48242 0.077,0.31234 0.1137,0.69465 0.1126,1.14868 -0.039,0.79395 -0.5903,1.3392 -1.6677,1.61127 -1.0575,0.26702 -1.8334,0.25417 -2.3261,-0.0326 -0.1476,-0.098 -0.2865,-0.21581 -0.4164,-0.3535 -0.2943,-0.3117 -0.5429,-0.72548 -0.7428,-1.23997 -0.2565,1.69424 -1.2121,2.76625 -2.9224,3.14653 -1.6807,0.3737 -3.6482,-0.46922 -5.7749,-2.65943 -2.1247,-2.1881 -3.5537,-4.98774 -4.217,-8.27278 -0.6697,-3.31737 -0.4052,-6.28568 0.69,-8.81008 1.1128,-2.56258 2.5835,-3.84108 4.3,-3.9438 0.659,-0.0394 1.2814,0.10394 1.8702,0.42551 0.5893,0.32176 1.0132,0.63379 1.2722,0.9441 0.2546,0.2802 0.4717,0.5619 0.6511,0.84624 z m -3.6405,9.98417 c 0.2142,1.00608 0.6755,1.88629 1.3784,2.62519 0.6962,0.70907 1.4128,0.99579 2.1372,0.87281 0.7257,-0.1232 1.2196,-0.62993 1.4949,-1.50508 0.2951,-0.87936 0.3348,-1.78426 0.1246,-2.72547 -0.2169,-0.97092 -0.6403,-1.83315 -1.2744,-2.60118 -0.6141,-0.77004 -1.3046,-1.11514 -2.0858,-1.02495 -0.7603,0.0878 -1.3098,0.57752 -1.6351,1.48599 -0.3053,0.90531 -0.3542,1.86641 -0.1398,2.87269 z"
           style="font-family:'Fredoka One';-inkscape-font-specification:'Fredoka One';stroke-width:1.5;stroke-dasharray:none"
           id="path2264" />
        <path
           d="m 1084.2492,-659.91804 c -0.054,-0.65909 -0.08,-1.15507 -0.082,-1.47108 0.014,-0.34883 0.075,-0.74464 0.1831,-1.18669 0.2222,-0.80084 0.9496,-1.23103 2.173,-1.32981 1.1666,-0.0942 1.9142,0.2147 2.2576,0.94186 0.1844,0.40476 0.3011,0.77228 0.3485,1.10566 0.066,0.33231 0.1275,0.81622 0.1892,1.45838 0.6196,6.45076 1.739,12.7814 3.3582,18.99193 0.2514,0.96434 0.4833,1.56696 0.6743,1.802 0.1848,0.20985 0.4742,0.26295 0.8671,0.15861 0.4128,-0.10961 0.695,-0.15764 0.8477,-0.14219 0.1451,-0.0109 0.3418,0.0491 0.5911,0.17864 0.4937,0.23408 0.9516,1.10502 1.4256,2.6147 0.5151,1.64021 0.6656,2.69081 0.3982,3.1815 -0.3436,0.62248 -1.5274,1.10335 -3.5465,1.35548 -1.5934,0.18314 -2.8067,-0.23207 -3.6147,-1.23174 -0.9687,-1.18366 -1.9154,-3.27765 -2.6785,-6.24329 -1.7006,-6.60959 -2.8312,-13.33758 -3.3917,-20.18396 z"
           style="font-family:'Fredoka One';-inkscape-font-specification:'Fredoka One';stroke-width:1.5;stroke-dasharray:none"
           id="path2266" />
        <path
           d="m 1096.3117,-644.02035 c -0.7945,-3.15161 -0.4952,-5.97473 0.7572,-8.40267 1.2552,-2.43353 2.9612,-3.87316 5.0434,-4.43119 2.0896,-0.55998 4.1054,-0.12387 6.1376,1.25587 2.0294,1.35687 3.4131,3.41742 4.2,6.30419 0.5435,1.99394 0.6409,3.92242 0.282,5.81368 -0.3656,1.86387 -1.0094,3.41315 -1.9562,4.63612 -0.9356,1.19163 -2.0299,2.04044 -3.3027,2.52867 -1.2728,0.4882 -2.6472,0.5578 -4.1213,0.18212 -1.4825,-0.40066 -2.9103,-1.27494 -4.2444,-2.63414 -1.3227,-1.39124 -2.2669,-3.15511 -2.7956,-5.25265 z m 6.8984,0.96585 c 0.7974,0.39904 1.5209,0.48221 2.1657,0.26069 0.6453,-0.22166 1.1981,-0.7568 1.6671,-1.59848 0.4696,-0.84263 0.5354,-1.8621 0.2151,-3.067 -0.3206,-1.20574 -0.8478,-2.00294 -1.6,-2.40334 -0.7515,-0.40004 -1.476,-0.4977 -2.1805,-0.28437 -0.7038,0.21309 -1.288,0.72074 -1.7451,1.53336 -0.4566,0.81147 -0.5355,1.845 -0.2131,3.08954 0.3157,1.21854 0.8868,2.04576 1.6908,2.4696 z"
           style="font-family:'Fredoka One';-inkscape-font-specification:'Fredoka One';stroke-width:1.5;stroke-dasharray:none"
           id="path2268" />
        <path
           d="m 1125.9395,-647.60501 c -0.3746,1.53441 -1.3366,2.71131 -2.9022,3.49035 -1.0173,0.50617 -2.1154,0.6111 -3.2955,0.3084 -0.6361,-0.16539 -1.2967,-0.44974 -1.9785,-0.85482 -1.9354,-1.18895 -3.262,-3.0265 -3.9271,-5.46362 -0.6666,-2.44298 -0.4925,-4.86518 0.4499,-7.27649 0.3212,-0.82165 0.6837,-1.54406 1.085,-2.1673 0.7776,-1.20899 1.6996,-2.05278 2.7681,-2.54925 0.6343,-0.2947 1.2494,-0.41795 1.8502,-0.36854 0.595,0.0259 1.0189,0.11545 1.2753,0.2784 0.268,0.12984 0.4867,0.2702 0.6565,0.4226 -0.127,-0.68203 -0.079,-1.26751 0.1407,-1.75762 0.2315,-0.52391 0.7008,-0.97307 1.406,-1.36406 0.7059,-0.39137 1.2348,-0.61691 1.6,-0.6664 0.3641,-0.0494 0.6611,0.0599 0.8921,0.33128 0.2418,0.2376 0.4107,0.47717 0.5061,0.72018 0.1131,0.23203 0.251,0.61382 0.4123,1.14436 1.4518,4.77728 2.8527,9.5855 4.2026,14.42466 0.7496,2.68716 0.6006,5.28856 -0.3845,7.71436 -0.9779,2.44748 -2.3386,4.13479 -4.1335,5.07484 -1.2733,0.66686 -2.6217,0.92975 -4.0611,0.78403 -0.1052,-0.0107 -0.211,-0.0236 -0.3173,-0.0386 -1.5612,-0.22152 -2.4789,-0.69362 -2.7189,-1.38762 -0.3126,-0.90414 -0.302,-1.83622 0.034,-2.79824 0.1972,-0.65448 0.3636,-1.1219 0.4925,-1.39551 0.1182,-0.22592 0.2737,-0.40149 0.466,-0.52701 0.049,-0.0322 0.1006,-0.0611 0.1545,-0.0868 0.2653,-0.12641 0.584,-0.11887 0.9552,0.0217 1.1774,0.41741 2.2847,0.35769 3.3265,-0.17587 0.7073,-0.36225 1.1771,-1.00958 1.4167,-1.93803 0.2397,-0.92868 0.2185,-1.88251 -0.067,-2.85579 0,-6e-5 -0.305,-1.04354 -0.305,-1.0436 z m -7.1405,-4.61133 c 0.2097,0.75163 0.6431,1.32221 1.297,1.70384 0.6728,0.37248 1.3543,0.38941 2.0403,0.05 0.7053,-0.34888 1.1971,-0.94654 1.4781,-1.78478 0.2746,-0.86196 0.3077,-1.65533 0.102,-2.37632 -0.2125,-0.74452 -0.6245,-1.31727 -1.2359,-1.72528 -0.618,-0.43138 -1.2935,-0.4644 -2.0336,-0.10552 -0.7399,0.35879 -1.2549,0.95601 -1.5409,1.80399 -0.2861,0.84774 -0.3235,1.65806 -0.107,2.43405 z"
           style="font-family:'Fredoka One';-inkscape-font-specification:'Fredoka One';stroke-width:1.5;stroke-dasharray:none"
           id="path2270" />
        <path
           d="m 1133.2187,-650.95153 c -0.4247,-0.0727 -0.7222,-0.41481 -0.8924,-1.02443 -0.171,-0.61271 -0.08,-1.74036 0.2591,-3.41464 0.087,-0.52293 0.3483,-0.92143 0.7842,-1.19926 0.3723,-0.23728 0.9054,-0.34641 1.5955,-0.32738 0,0 0,0 0,0 0.1508,0.004 0.3091,0.0138 0.4748,0.03 0.9168,0.0666 1.6745,-0.10459 2.2769,-0.51919 1.0794,-0.74296 1.5293,-1.41894 1.3638,-1.99382 -0.1324,-0.46018 -0.8107,-0.36382 -2.0558,0.24685 -0.7928,0.37904 -1.6344,0.59209 -2.523,0.64259 -0.4292,0.0234 -0.8692,0.009 -1.3196,-0.0438 -0.6488,-0.0808 -1.2781,-0.45649 -1.8881,-1.12057 -0.6178,-0.68819 -1.1118,-1.64473 -1.491,-2.86917 -0.7982,-2.57669 -0.3646,-4.80892 1.2014,-6.85121 0.6599,-0.86273 1.5184,-1.69307 2.5695,-2.51527 1.1587,-0.90628 2.474,-1.49153 3.9618,-1.74486 0.6953,-0.11514 1.154,0.0951 1.373,0.64726 0.2181,0.54969 0.312,1.38559 0.2594,2.49889 -0.052,1.11417 -0.2792,1.82826 -0.6591,2.1364 -0.1979,0.16057 -0.6325,0.28681 -1.3048,0.37326 -0.6562,0.0733 -1.3034,0.35632 -1.9487,0.84203 -1.0022,0.75428 -1.4312,1.36947 -1.2634,1.87815 0.2274,0.68906 0.9701,0.73214 2.2088,0.0716 1.185,-0.67945 2.4142,-1.07927 3.6926,-1.17499 0.5936,-0.0566 1.1877,0.20045 1.776,0.78552 0.5965,0.54686 1.0956,1.45561 1.4756,2.73238 0.38,1.27696 0.52,2.51689 0.4268,3.69521 -0.083,1.14076 -0.3738,2.15711 -0.866,3.03748 -0.9121,1.56213 -2.2261,2.90861 -3.951,4.03574 -0.7087,0.46309 -1.4411,0.79677 -2.1971,1.0054 -1.0645,0.29198 -2.1774,0.33602 -3.3392,0.1398 z"
           style="font-family:'Fredoka One';-inkscape-font-specification:'Fredoka One';stroke-width:1.5;stroke-dasharray:none"
           id="path2272" />
        <path
           d="m 1145.1612,-663.89076 c 0.016,-0.63436 0.1593,-1.17433 0.4311,-1.62441 0.2882,-0.4641 0.7789,-0.9942 1.4666,-1.59969 0.7032,-0.61916 1.2765,-0.83035 1.7306,-0.6143 0.47,0.20175 0.8723,0.83326 1.188,1.90708 0.062,0.20953 0.1227,0.41957 0.1832,0.63013 0.1812,0.63045 0.2974,1.12499 0.3521,1.46988 0.063,0.30612 0.088,0.72813 0.07,1.26345 -0.057,0.99283 -0.5925,1.89208 -1.6044,2.68463 -0.9954,0.77952 -1.7327,1.03947 -2.1903,0.80704 -0.4515,-0.2733 -0.8553,-1.12403 -1.2475,-2.53939 -0.2732,-0.98576 -0.4026,-1.77396 -0.3787,-2.38471 -10e-5,10e-5 -3e-4,2e-4 -4e-4,2.9e-4 z m 1.7903,-7.18893 c -0.2486,0.40056 -0.623,0.83259 -1.1255,1.29156 -0.5021,0.45866 -0.9298,0.75949 -1.2738,0.90603 -0.3449,0.14691 -0.6364,0.11784 -0.8736,-0.0834 -0.2214,-0.21543 -0.3907,-0.42834 -0.508,-0.63995 -0.1023,-0.22734 -0.2416,-0.58758 -0.4262,-1.089 -1.3874,-3.76994 -2.9522,-7.38782 -4.6941,-10.85364 -0.2316,-0.46081 -0.3964,-0.80122 -0.4954,-1.03421 -0.096,-0.26722 -0.1635,-0.5979 -0.2049,-0.99314 -0.042,-0.39485 0.033,-0.78159 0.2233,-1.1643 0.1783,-0.40435 0.4723,-0.83952 0.8789,-1.31372 0.407,-0.4745 0.7602,-0.7936 1.0722,-0.95398 0.2984,-0.18106 0.5793,-0.17871 0.8438,0.0126 0.264,0.15467 0.4718,0.34225 0.6225,0.56325 0.1497,0.18334 0.3581,0.50365 0.6163,0.95891 1.9528,3.44439 3.6937,7.09113 5.2227,10.94023 0.2022,0.50918 0.334,0.90551 0.3976,1.17942 0.079,0.26013 0.1179,0.61038 0.1152,1.04903 -0.012,0.4143 -0.1421,0.82354 -0.391,1.22426 z"
           style="font-family:'Fredoka One';-inkscape-font-specification:'Fredoka One';stroke-width:1.5;stroke-dasharray:none"
           id="path2274" />
      </g>
    </g>
  </g>
</svg>
