<?xml version="1.0" encoding="UTF-8" standalone="no"?>
<!-- Created with Inkscape (http://www.inkscape.org/) -->

<svg
   width="1500"
   height="500"
   viewBox="0 0 1500 500"
   version="1.1"
   id="svg5"
   inkscape:version="1.2.1 (9c6d41e410, 2022-07-14, custom)"
   sodipodi:docname="koshka_new.svg"
   xmlns:inkscape="http://www.inkscape.org/namespaces/inkscape"
   xmlns:sodipodi="http://sodipodi.sourceforge.net/DTD/sodipodi-0.dtd"
   xmlns="http://www.w3.org/2000/svg"
   xmlns:svg="http://www.w3.org/2000/svg">
  <sodipodi:namedview
     id="namedview7"
     pagecolor="#ffffff"
     bordercolor="#000000"
     borderopacity="0.25"
     inkscape:showpageshadow="2"
     inkscape:pageopacity="0.0"
     inkscape:pagecheckerboard="0"
     inkscape:deskcolor="#d1d1d1"
     inkscape:document-units="px"
     showgrid="false"
     inkscape:zoom="1.1786667"
     inkscape:cx="750"
     inkscape:cy="249.8586"
     inkscape:window-width="1910"
     inkscape:window-height="1070"
     inkscape:window-x="1920"
     inkscape:window-y="0"
     inkscape:window-maximized="1"
     inkscape:current-layer="layer1" />
  <defs
     id="defs2">
    <inkscape:path-effect
       effect="envelope"
       id="path-effect3257"
       is_visible="true"
       lpeversion="1"
       yy="true"
       xx="false"
       bendpath1="M 247.43561,697.08384 C 524.28916,427.67406 549.32006,805.1123 749.67606,700.09596"
       bendpath2="m 751.8324,696.33113 v 74.29555"
       bendpath3="M 247.16105,782.64548 C 375.04281,897.7859 634.26822,832.2927 756.41101,758.46404"
       bendpath4="m 247.11167,696.33113 v 74.29555"
       bendpath1-nodetypes="cc"
       bendpath3-nodetypes="cc" />
    <inkscape:path-effect
       effect="envelope"
       id="path-effect1587"
       is_visible="true"
       lpeversion="1"
       yy="true"
       xx="false"
       bendpath1="M 66.667142,57.629957 C 457.23551,-312.62939 517.67321,236.66826 760.45276,39.946786"
       bendpath2="M 775.56781,57.629957 V 157.11368"
       bendpath3="m 66.667142,157.11368 c 238.219058,194.44721 601.532958,184.33794 708.900668,0"
       bendpath4="M 66.667142,57.629957 V 157.11368"
       bendpath1-nodetypes="cc"
       bendpath3-nodetypes="cc" />
    <inkscape:path-effect
       effect="envelope"
       id="path-effect1585"
       is_visible="true"
       lpeversion="1"
       yy="true"
       xx="true"
       bendpath1="M 66.667142,57.629957 H 775.56781"
       bendpath2="M 775.56781,57.629957 V 157.11368"
       bendpath3="M 66.667142,157.11368 H 775.56781"
       bendpath4="M 66.667142,57.629957 V 157.11368" />
  </defs>
  <g
     inkscape:label="Layer 1"
     inkscape:groupmode="layer"
     id="layer1">
    <rect
       style="fill:#800000;stroke:none;stroke-width:14.3905;stroke-dasharray:none"
       id="rect3320"
       width="1500"
       height="500"
       x="0"
       y="0" />
    <text
       xml:space="preserve"
       style="font-size:126.449px;fill:none;stroke:#000000;stroke-width:0;stroke-dasharray:none"
       x="360.77942"
       y="172.81119"
       id="text3139"><tspan
         sodipodi:role="line"
         id="tspan3137"
         x="360.77942"
         y="172.81119"
         style="font-style:normal;font-variant:normal;font-weight:bold;font-stretch:normal;font-family:'Fredoka One';-inkscape-font-specification:'Fredoka One';text-align:center;text-anchor:middle;fill:#000000;stroke-width:0;stroke-dasharray:none" /></text>
    <g
       id="g4419"
       transform="matrix(1.0535787,0,0,1.0535787,-40.205664,-13.086112)">
      <path
         d="m 1043.4467,72.266827 c 0,0 24.7364,21.828211 29.1019,29.110643 4.3658,7.27288 7.2758,18.9076 7.2758,24.72972 0,5.82213 10.1859,14.55533 10.1859,14.55533 0,0 7.2748,1.45076 4.3647,10.18395 -2.9102,8.73318 -2.9102,8.73318 -2.9102,8.73318 0,0 0,1.45077 -1.4545,8.72843 -1.4557,7.27479 -4.3656,10.18491 -4.3656,10.18491 l -2.9102,5.82117 c 0,0 -24.7363,8.73032 -34.9223,10.18491 -10.1858,1.45553 -16.0059,13.09595 -16.0059,23.28182 0,10.1849 9.4576,54.56575 -12.3678,74.93651 -21.82727,20.37172 -39.28782,24.73736 -52.38391,43.65451 -13.09583,18.91714 -21.82625,37.83428 -18.91612,52.38007 2.91003,14.55531 7.27568,33.47244 8.7303,36.38352 1.45552,2.90151 11.64146,2.90151 11.64146,2.90151 0,0 17.46059,0 20.37074,5.82213 2.90996,5.82213 0,17.46638 0,17.46638 h -11.64044 l -1.45565,4.36184 h -5.82015 c 0,0 8.73132,17.46638 -1.4545,18.91713 -10.18594,1.45076 -13.09608,0 -13.09608,0 h -7.27568 -21.82637 c 0,0 -11.64045,1.45076 -17.46161,-13.09501 -5.82016,-14.55533 -14.55046,-33.47247 -23.28089,-45.10717 -8.7303,-11.64426 -11.64031,-18.91715 -11.64031,-18.91715 l -23.28189,20.36789 c 0,0 -2.91015,5.82214 2.91013,5.82214 5.82016,0 17.46162,0 17.46162,7.27289 0,7.28243 4.36464,13.09502 -4.36565,16.00607 -8.73031,2.91106 -17.46073,2.91106 -17.46073,2.91106 h -16.00699 c 0,0 11.64133,5.82215 8.73132,11.64427 -2.91015,5.82213 -13.09602,17.45684 -18.91619,13.09501 -5.82118,-4.36183 -8.73033,1.45076 -8.73033,1.45076 l -5.82117,-2.90151 h -5.82024 c 0,0 1.45551,-4.37137 -10.18586,-4.37137 -11.64045,0 -14.55055,-2.91108 -39.28696,0 -24.73641,2.91106 -39.28696,0 -39.28696,0 0,0 -48.01824,11.64425 -71.30006,-1.45076 0,0 -13.09598,0 -18.91619,2.91105 -5.82022,2.91108 -62.56879,2.91108 -112.0416,0 -49.47302,-2.91105 -46.90793,-2.17613 -61.45886,-7.98871 -14.55121,-5.82213 -46.56282,-36.38354 -45.10766,-66.93538 1.45479,-30.5614 23.28146,-62.57357 24.73622,-46.56747 1.45554,16.00607 -5.82032,49.47852 11.64092,61.11323 17.46075,11.64426 18.91629,21.82822 61.11353,24.73927 42.19802,2.91107 17.80617,0.71584 17.80617,0.71584 0,0 66.93443,0 81.48497,-7.28243 14.55152,-7.27288 20.37172,-23.27896 18.9162,-55.29112 -1.45458,-32.01215 5.82021,-62.56687 5.82021,-62.56687 0,0 21.82631,-64.02338 71.30006,-97.49106 49.47282,-33.46673 75.66476,-34.92226 101.85578,-33.46673 26.19191,1.45457 32.01215,-4.36565 32.01215,-4.36565 l 27.64646,1.45457 c 0,0 10.18582,7.27576 20.37176,0 10.18581,-7.27478 36.37683,-23.278 49.47279,-56.75047 13.09595,-33.462906 46.56264,-48.018228 46.56264,-48.018228 0,0 14.55155,-21.818672 18.91625,-23.278968 4.3656,-1.450763 10.18587,0 11.64037,7.272883 1.4556,7.282438 1.4556,11.644262 1.4556,11.644262 l 11.6414,-5.822131 c 0,0 11.6404,-13.095014 18.9152,-20.367908 7.2758,-7.282426 20.3718,-20.377444 20.3718,-17.466378 0,2.911062 -2.9102,11.64426 -7.2758,20.37745 -4.3657,8.723646 -11.6405,24.729718 -8.003,28.366165"
         style="fill:#ffcc00;fill-opacity:1;fill-rule:nonzero;stroke:#000000;stroke-width:1.5;stroke-dasharray:none"
         id="path46" />
      <g
         aria-label="Кошка"
         transform="rotate(-38.51184,9.8753563,5.0752499)"
         id="text2699"
         style="font-size:91.7229px;font-family:Oi;-inkscape-font-specification:Oi;text-align:center;text-anchor:middle;fill:#ffffff;stroke:#000000;stroke-width:1.5;stroke-dasharray:none">
        <path
           d="m 251.81311,781.16606 c 1.27654,-1.92527 2.9006,-4.04166 4.85199,-6.57543 1.92038,-2.49348 3.80487,-4.95701 5.59032,-7.4188 1.88707,-2.5111 3.48644,-4.88449 4.85805,-7.14458 1.41616,-2.24273 2.49375,-4.07802 3.41328,-5.52769 0.88074,-0.2613 1.85339,-0.84481 2.86567,-1.78775 1.0278,-1.01009 2.14298,-2.77149 3.0664,-5.25941 0.92536,-2.53073 1.66559,-6.30155 1.46192,-10.94404 -0.22089,-5.03482 -1.45366,-8.83398 -2.69322,-11.04397 -1.24329,-2.35068 -2.5645,-3.72822 -3.62044,-4.17539 -1.05729,-0.55017 -1.88036,-0.64987 -2.4142,-0.36353 -1.043,-1.08173 -2.22329,-2.60463 -3.81151,-4.6611 -1.57906,-2.04459 -3.35654,-4.25283 -5.41367,-6.66879 -2.05928,-2.50871 -4.23158,-5.02305 -6.38572,-7.51541 -2.25618,-2.5953 -4.19562,-4.91433 -5.73984,-7.11929 1.54562,-1.21104 3.64726,-2.78941 6.20733,-4.61536 2.43709,-1.87064 5.30187,-4.07485 8.25598,-6.32549 2.93447,-2.38181 5.85891,-4.85581 8.78467,-7.4437 3.80412,-3.36481 6.86151,-6.39399 9.18812,-9.22634 2.38965,-2.88976 4.50891,-5.43667 6.44026,-7.74835 1.99625,2.54033 4.25655,5.91923 6.56323,10.0822 2.30348,4.01317 4.41557,8.39326 6.26782,13.10114 1.90098,4.67108 3.36113,9.13782 4.46406,13.32721 1.06097,4.04258 1.63217,7.30808 1.86978,9.58028 -0.80679,0.35423 -1.61133,0.7095 -2.41363,1.06573 1.37755,6.14343 2.306,12.32469 2.78472,18.54371 1.71106,-6.2067 2.25869,-13.08805 1.43282,-20.19426 -0.82436,-7.09315 -2.57681,-14.73792 -5.51581,-22.62132 -1.37781,-3.69574 -3.10052,-7.6572 -5.23825,-11.81061 -2.08584,-4.1908 -4.57794,-8.63538 -7.55686,-13.26434 1.6447,-0.992 3.50047,-1.9571 5.55487,-2.86542 1.10076,-0.49649 2.3381,-1.11507 3.71882,-1.85188 1.26789,-0.67657 2.65166,-1.45007 4.16142,-2.31931 3.23347,-1.87114 7.21663,-4.50487 12.19225,-7.92465 3.04413,-2.09226 5.48088,-3.97928 7.32484,-5.75083 1.89701,-1.80489 3.60884,-3.46913 5.13479,-5.00638 1.46942,-1.69175 3.06953,-3.36358 4.80179,-5.00301 1.59875,3.07346 3.3558,7.14153 5.14735,12.166 1.79378,5.03076 3.38511,10.4296 4.74818,16.15751 1.37983,5.53509 2.4723,10.99358 3.30384,16.3261 0.88426,5.29678 1.35039,9.80035 1.49481,13.38 -2.25281,1.33009 -4.01765,3.44556 -5.33657,6.2684 -1.2682,2.80941 -2.29703,6.06079 -3.14825,9.75436 2.75691,17.35675 4.0732,30.94946 5.76726,40.73281 1.75613,9.64954 3.81761,16.9943 6.8508,22.07471 0.1252,3.57791 10e-4,8.16973 -0.47617,13.67087 -0.42223,5.51776 -1.10165,11.32688 -2.07955,17.37919 -0.89414,5.89086 -2.0431,11.60894 -3.43754,17.11138 -1.39266,5.49539 -2.82353,10.03571 -4.17449,13.55018 -2.37014,-1.37008 -4.95231,-2.9983 -7.7334,-4.88477 -2.79224,-1.89402 -6.36827,-3.472 -10.7887,-4.92417 -5.55282,-1.82416 -9.99467,-3.21846 -13.4907,-4.08699 -1.89133,-0.46521 -3.55274,-0.87666 -5.06925,-1.24084 -1.2393,-0.29749 -2.34684,-0.55503 -3.33627,-0.76881 -2.18417,-0.30719 -4.17343,-0.65891 -5.95207,-1.02716 2.35856,-4.7277 4.30086,-9.09559 5.90375,-13.04076 1.65389,-4.08105 2.97644,-7.86721 4.02775,-11.30421 1.6594,-5.42498 2.84314,-10.54173 3.64508,-15.27956 0.88183,-4.86319 1.15717,-9.48874 0.91342,-13.74616 -0.19407,-4.25968 -1.08349,-8.17865 -2.58637,-11.62318 -0.32651,5.68357 -1.01965,11.40179 -2.0794,17.15469 0.92397,0.10985 1.85137,0.21646 2.78209,0.31987 -0.19544,2.28398 -0.66533,5.48973 -1.54491,9.45521 -0.83297,3.99624 -1.97896,8.34674 -3.51745,12.9923 -1.5402,4.65079 -3.28944,9.10905 -5.19949,13.34315 -1.90611,4.22542 -3.77556,7.66195 -5.41481,10.22039 -1.39938,-1.18542 -2.75175,-2.43691 -4.05791,-3.74711 -1.31935,-1.16145 -2.94042,-2.48022 -4.88018,-4.00235 -1.89732,-1.50191 -4.40878,-3.11604 -7.60423,-5.02814 -5.2856,-3.16282 -9.7857,-5.80301 -13.60621,-7.84353 -3.80928,-1.89958 -7.04723,-3.67161 -9.52244,-5.03321 0,0 -2e-5,-10e-6 -2e-5,-10e-6 z"
           id="path3244"
           style="fill:#ffffff;stroke:#000000;stroke-width:1.5;stroke-dasharray:none" />
        <path
           d="m 385.16177,839.20293 c -8.32927,-1.12226 -14.99921,-5.26136 -19.90271,-11.86188 -6.86034,-9.23641 -10.01211,-22.71724 -11.27339,-40.29706 -1.08481,-14.96864 -0.79916,-31.99836 -0.95867,-52.90183 -0.17187,-22.523 -1.03822,-41.09352 -0.61339,-56.7523 0.21919,-8.30992 0.79036,-15.73071 1.9463,-22.38927 1.44949,-8.21949 3.73548,-15.37153 7.11756,-21.35066 4.49975,-7.95356 10.95469,-13.79555 19.36958,-16.4966 0.11696,-0.0376 0.23379,-0.0744 0.35051,-0.11053 15.36812,-4.75855 27.80459,2.70625 35.55273,20.45959 0.1445,0.33137 0.28743,0.66628 0.42878,1.0047 7.80573,18.3581 11.42159,46.58125 12.10026,83.48943 0.75891,41.27267 -1.87777,71.79234 -9.06016,90.97344 -0.0588,0.15684 -0.11793,0.31292 -0.17734,0.46826 -7.20241,18.63714 -19.00549,27.51373 -34.04205,25.86707 -0.27843,-0.0305 -0.55778,-0.0646 -0.83801,-0.10236 z m 3.83465,-95.79706 c 0.76634,-0.0323 1.53304,-0.0636 2.30007,-0.0937 0.72794,-0.028 1.45598,-0.0555 2.18408,-0.0826 -0.0356,-10.62705 -0.26485,-21.23654 -0.6878,-31.82847 -0.7271,0.0785 -1.45392,0.15876 -2.1804,0.24073 -0.76554,0.0869 -1.53049,0.17627 -2.29484,0.2681 0.43932,10.47738 0.66562,20.97601 0.67889,31.49589 z"
           id="path3246"
           style="fill:#ffffff;stroke:#000000;stroke-width:1.5;stroke-dasharray:none" />
        <path
           d="m 433.22568,839.4114 c -0.48211,-4.49242 -0.89236,-9.42023 -1.239,-14.79784 -0.20345,-3.15628 -0.38476,-6.46402 -0.54578,-9.92529 -0.37375,-9.32693 -0.5581,-18.52868 -0.57905,-27.44187 -0.0158,-6.70544 0.072,-12.56816 0.2617,-17.55272 0,0 0,0 0,0 0.0631,-1.65763 0.13755,-3.2205 0.22342,-4.68828 1.25977,-1.19853 2.36463,-4.3252 3.31124,-9.38646 0.94355,-5.26987 1.27887,-13.97971 1.06299,-26.17573 -0.18343,-10.36342 -0.6048,-18.39198 -1.29855,-24.10294 -0.64188,-5.91375 -1.34177,-10.09054 -2.10794,-12.55168 -0.76485,-2.45692 -1.43364,-3.79061 -1.99817,-4.00267 -0.30001,-2.9448 -0.57498,-6.12471 -0.82499,-9.53684 -0.31996,-4.3668 -0.59988,-9.12606 -0.83809,-14.25987 -0.3697,-9.32848 -0.55268,-18.622 -0.5076,-27.74474 0.0446,-3.81265 0.1356,-7.33921 0.27628,-10.58593 0.1969,-4.54438 0.49053,-8.52587 0.88706,-11.95897 3.11606,1.27588 6.55401,2.44617 10.37254,3.62043 1.95806,0.49767 3.92837,0.9592 5.92028,1.39091 1.88622,0.40745 3.78719,0.78712 5.71005,1.14239 3.95878,0.73142 7.85492,1.22943 11.7548,1.50198 3.906,0.27298 7.29987,0.39017 10.28488,0.25643 -0.005,0.25873 -0.0102,0.52195 -0.0164,0.78967 0,0 0,0 0,0 -0.11802,5.11538 -0.48941,11.58717 -1.00951,19.90012 -0.36679,5.86262 -1.35384,20.93876 -1.72063,26.80138 -0.53516,9.27599 -0.98484,17.12489 -1.47386,23.88834 -0.42659,19.06088 -0.21968,38.21698 0.62074,57.4683 1.02892,0.0695 2.05854,0.14286 3.08889,0.21999 -0.88468,-19.12662 -1.09421,-38.14451 -0.6286,-57.05367 -0.16671,-6.76233 -0.11459,-14.83664 0.26738,-24.02774 0.43947,-9.19525 1.1338,-18.07468 2.06584,-26.57113 0.93045,-8.48182 1.97198,-15.14642 2.97059,-19.87186 2.20103,2.03612 4.75325,4.0515 7.64965,6.10012 2.89725,2.04922 5.70546,3.7443 8.46189,5.10228 1.0106,0.49789 2.02291,0.96924 3.0379,1.41497 1.81083,0.79489 3.62852,1.5076 5.45807,2.14356 2.88519,0.8199 5.53717,1.31552 7.98314,1.47431 -0.44509,4.75704 -1.19741,10.48421 -2.1574,18.30405 -0.93955,7.65329 -1.84419,15.48292 -2.67171,23.6032 -0.59639,6.29038 -1.30225,14.79303 -1.89864,21.08341 -0.61919,16.96952 -0.23321,34.16026 1.15791,51.57221 1.05009,0.12984 2.10127,0.26111 3.15359,0.39356 -1.44471,-17.20707 -1.86073,-34.18422 -1.24804,-50.93142 -0.11305,-6.03777 0.0519,-13.21888 0.65928,-21.33308 0.66422,-8.11117 1.65979,-15.88485 2.94378,-23.27224 1.27898,-7.35844 2.66266,-13.11019 3.89232,-17.09473 2.40512,2.58496 5.24699,5.27063 8.50441,8.0741 0.43816,0.3755 0.87643,0.74538 1.31485,1.10974 2.87627,2.39551 5.75758,4.55502 8.65734,6.50345 3.39656,2.28225 6.74033,4.31878 10.05147,6.13299 3.34533,1.6748 6.38696,3.02958 9.14903,4.06481 -0.28468,4.39532 -0.97168,9.48421 -1.87086,15.66584 -0.89282,6.13784 -1.72987,12.23977 -2.50489,18.41001 -0.76784,6.08235 -1.40692,11.1571 -2.1481,15.55652 -0.50462,-0.0597 -1.17717,0.58925 -1.98533,1.98396 -0.74673,1.40542 -1.46257,4.09076 -1.99981,8.04947 -0.47987,3.80154 -0.58005,9.54288 0.0518,16.98926 0.74518,8.78215 2.2586,15.35998 3.95834,19.29529 1.75197,3.83432 3.432,6.22258 4.89163,7.19568 1.34126,4.52093 2.7385,9.79591 4.57555,16.53066 1.81139,6.64072 3.69279,13.30202 5.64476,20.09541 1.96605,6.84242 3.59355,12.64458 4.77259,17.75011 -3.96131,0.13104 -9.08275,0.30991 -14.91395,0.43443 -7.90316,0.38074 -10.26016,0.52104 -18.16332,0.90177 -0.99715,0.0472 -2.014,0.0944 -3.05033,0.14122 -7.74044,0.51196 -16.75742,1.28732 -27.29707,2.24262 -0.0642,0.006 -2.16584,0.19673 -2.22999,0.20254 -8.3577,0.76052 -15.75838,1.44517 -22.74306,2.17351 -6.78204,0.70351 -12.85917,1.40248 -18.35613,2.16571 -3.23445,0.51127 -6.23541,1.00703 -9.01202,1.49784 -6.65894,1.17526 -11.98659,2.30957 -16.00923,3.52915 0,0 1.1e-4,0 1.1e-4,0 z"
           id="path3248"
           style="fill:#ffffff;stroke:#000000;stroke-width:1.5;stroke-dasharray:none" />
        <path
           d="m 569.68795,823.97433 c -2.50397,-4.64648 -5.0759,-10.26617 -7.52723,-16.7497 -2.39182,-6.49646 -4.34855,-12.98676 -5.88199,-19.40748 -1.52743,-6.39551 -2.37313,-11.70863 -2.72431,-15.79556 1.19792,-0.75888 1.9956,-2.92235 2.52416,-6.41005 0.60011,-3.555 0.16788,-9.20314 -0.70106,-17.38587 -0.73931,-6.96207 -1.316,-12.1805 -2.13134,-16.22251 -0.74591,-3.96305 -1.46218,-6.87723 -2.30089,-8.82524 -0.77679,-1.91422 -1.42381,-3.05826 -1.98559,-3.41761 -0.45828,-4.68932 -0.59105,-10.18714 -0.22481,-16.33997 0.43543,-6.27151 1.32781,-12.34067 2.65238,-18.13881 1.37631,-5.75149 3.00685,-10.28129 4.63393,-13.52849 2.35019,2.59521 5.15385,5.39907 8.39295,8.35588 2.64114,2.28202 5.20111,4.28656 7.67493,6.03523 0.64676,0.45738 1.28777,0.89733 1.9229,1.32016 4.73887,3.15483 9.25613,5.79933 13.55987,7.99074 4.04871,1.95809 7.33294,3.43706 9.85452,4.48674 0.2151,0.0896 0.42446,0.17597 0.62804,0.25913 -0.87548,4.62587 -1.65159,8.60576 -2.50941,12.17462 -0.8269,3.41775 -1.60638,6.60782 -2.40258,9.68674 2e-5,-7e-5 -0.027,0.10419 -0.0269,0.10412 -0.74028,3.1185 -1.3635,6.43933 -1.82831,9.96506 -0.40222,3.44057 -0.47738,7.42119 -0.10152,11.8866 0.54046,-1.49345 1.04028,-3.11619 1.51909,-4.87373 0.9599,-3.52286 1.80772,-7.47458 2.76013,-12.04366 1.42605,-6.60354 3.20338,-15.73442 6.07938,-25.72484 1.6094,1.1419 3.30455,2.40973 5.13634,3.80894 1.8771,1.4199 4.27194,3.01543 7.16411,4.69262 2.01606,1.16912 4.45801,2.42156 7.3047,3.69046 0.59305,0.2644 1.20494,0.53007 1.83529,0.79623 0.68601,0.28976 1.39473,0.58016 2.12567,0.8701 3.78761,1.50242 7.03581,2.49778 9.59758,3.08789 2.57193,0.59246 4.84599,1.02552 6.78167,1.33131 2.04575,0.2532 4.16699,0.54327 6.48853,0.86079 0.17196,1.65557 0.1914,3.6404 0.13705,6.00559 -0.0417,2.29029 -0.18714,4.65601 -0.41332,7.14596 -0.15524,2.50506 -0.32869,4.84404 -0.55687,7.09309 -0.15532,2.18178 -0.4022,3.97498 -0.81731,5.427 -3.5549,0.69415 -6.51089,1.49497 -8.94286,2.49406 -2.35253,1.00321 -4.39331,2.16204 -6.1235,3.50933 2.55333,6.14453 6.21333,10.93046 10.30285,14.21676 4.1522,3.22339 8.45018,5.48811 12.67474,6.89263 1.05438,1.3276 2.10197,3.01493 3.24481,5.10531 3e-5,6e-5 0.0611,0.10489 0.0611,0.10495 0,0 0,0 0,0 0,0 0,0 0,0 1.19384,2.05185 2.38138,4.2162 3.63349,6.55898 0.80078,1.41439 1.56126,2.81188 2.28453,4.20474 0.44989,0.86616 0.88468,1.72915 1.30495,2.59141 1.09934,2.25551 1.95157,4.15939 2.50041,5.76698 -2.73866,0.6155 -5.84921,1.22789 -9.28893,1.78306 -3.42625,0.553 -7.53474,1.50741 -12.16646,2.8514 -1.57031,0.45566 -3.03889,0.88908 -4.41826,1.30778 -0.61583,0.18714 -1.21219,0.37093 -1.78976,0.55187 -2.38114,0.74574 -4.42492,1.43774 -6.15643,2.09867 -3.0903,1.1796 -5.59413,2.20068 -7.54608,3.08335 -1.82806,0.96724 -3.51008,1.846 -5.08077,2.6444 -2.06489,-3.86963 -3.82427,-7.39818 -5.3283,-10.5581 -1.55542,-3.25832 -2.93898,-6.26148 -4.16438,-8.94473 -1.97505,-4.32475 -3.73783,-8.34299 -5.30169,-11.90502 -1.57865,-3.59571 -3.30912,-6.97656 -5.23939,-10.24239 -1.33867,-2.26491 -2.90506,-4.52425 -4.70141,-6.83104 -0.79292,-1.01769 -1.63012,-2.04342 -2.51149,-3.08132 0.98461,4.7664 2.22487,9.57091 3.72078,14.41354 0.63208,0.0221 1.26515,0.0433 1.89923,0.0638 0.49711,0.0164 0.99502,0.0322 1.49371,0.0473 1.11614,2.12775 2.29846,4.81666 3.70581,8.19153 1.42462,3.25311 2.92214,6.72212 4.54225,10.44355 1.68786,3.72438 3.28484,7.29825 4.78252,10.81718 1.44531,3.42113 2.57964,6.2502 3.34387,8.5973 -0.29519,0.0269 -0.59807,0.054 -0.90838,0.0813 -2.69845,0.23746 -6.04545,0.49508 -9.90445,0.7063 -4.19429,0.33939 -8.49677,0.95305 -12.88528,1.89976 -2.0741,0.44743 -4.00444,0.89459 -5.8015,1.35061 -3.59376,0.91213 -6.61927,1.85081 -9.11207,2.86376 -3.67069,1.50453 -6.58978,2.87196 -8.76342,4.10955 0,0 2e-5,-10e-6 2e-5,-10e-6 z"
           id="path3250"
           style="fill:#ffffff;stroke:#000000;stroke-width:1.5;stroke-dasharray:none" />
        <path
           d="m 700.65209,786.39928 c -1.58296,0.69372 -3.12124,1.31065 -4.61935,1.84886 0,0 0,10e-6 0,10e-6 -5.33428,1.91545 -10.15216,2.82695 -14.5673,2.65411 -5.57777,-0.24371 -10.47066,-1.78371 -14.4054,-4.52216 -3.92053,-2.72857 -6.89477,-6.17047 -8.65127,-10.06669 -2.68025,-5.94527 -1.95585,-10.97898 1.61089,-14.87323 3.65209,-3.98743 10.56892,-5.97764 20.6767,-7.63582 0.32283,-0.0535 0.64567,-0.10787 0.96853,-0.16311 3.3575,-0.58405 6.69257,-1.25698 10.0013,-2.01492 4.08924,-0.93857 8.13526,-2.00395 12.12998,-3.18964 -0.2344,-1.39957 -0.44248,-2.80768 -0.62424,-4.22433 -1.96723,0.53814 -3.94692,1.04519 -5.93801,1.5202 0.0953,0.73748 0.19842,1.47267 0.30931,2.20557 -2.07113,0.57604 -4.14557,1.11738 -6.22218,1.62421 -3.32846,0.81091 -6.65953,1.53095 -9.98942,2.16088 -1.95409,0.36405 -3.89963,0.69545 -5.83518,0.99556 -7.28232,1.12913 -14.59924,1.50391 -21.82593,1.01938 -3.52204,-10.66733 -2.73877,-21.19313 1.58791,-31.06764 1.97707,0.33988 4.47604,0.75739 7.30205,1.14283 2.92763,0.39762 6.01475,0.74104 9.24395,0.99026 3.11962,0.17659 6.1867,0.23213 9.19309,0.17822 0.18652,-0.003 0.37278,-0.007 0.55877,-0.0117 3.16602,-0.0736 6.02139,-0.25497 8.46579,-0.46311 -1.0855,1.88695 -1.75607,3.72728 -1.98816,5.52089 -0.15993,1.78343 0.12394,3.44975 0.85486,4.97499 0.13585,-1.87536 0.60543,-3.58082 1.36462,-5.10098 1.21955,-2.44172 3.17511,-4.39506 5.75722,-5.92632 4.24523,-2.51754 9.88103,-4.36436 17.06938,-6.33541 -0.0225,0.006 0.88216,-0.24151 0.85969,-0.23535 0,0 0,0 0,0 8.86943,-2.42479 15.21934,-3.94774 19.94522,-3.9086 4.78295,-0.0115 7.99819,1.39891 9.81742,4.51113 0.89887,1.45183 1.37961,3.2561 1.45294,5.42516 0.13167,2.08849 0.15074,4.18143 0.0567,6.28544 -0.094,2.10366 -0.0347,3.92292 0.16636,5.46346 0.38296,2.93352 1.28725,4.70094 2.62862,5.30496 1.39778,0.52415 2.78475,0.59852 4.15789,0.22783 0.73852,1.06878 1.28542,2.62093 1.66632,4.65892 0.43971,2.0031 0.71543,4.098 0.83927,6.28798 0.12376,2.18851 0.0475,4.19087 -0.2318,6.00675 -2.39563,1.93968 -4.94231,3.75978 -7.64442,5.44831 -2.68546,1.73083 -4.91289,3.06468 -6.63031,4.00047 -4.36671,2.37934 -7.96411,3.7691 -10.80143,4.21849 -2.83869,0.44962 -4.74897,-0.46643 -5.54662,-2.73203 -0.28254,-0.8025 -0.38898,-1.74138 -0.30688,-2.81639 0.14485,-1.10389 0.34585,-2.30934 0.611,-3.61902 -0.91865,0.0613 -1.84333,0.11791 -2.7737,0.16933 -0.20936,1.04124 -0.48015,2.096 -0.81008,3.16539 0,0 -1e-5,0 -1e-5,0 -0.50364,1.6264 -1.14269,3.28249 -1.90787,4.97383 -1.2027,2.76848 -3.20159,5.53863 -5.9868,8.27305 -2.06689,2.05346 -4.85428,4.05876 -8.39345,5.92293 -1.11745,0.58858 -2.31602,1.1661 -3.59602,1.72705 0,0 10e-6,3e-5 10e-6,3e-5 z m -0.45127,-26.14424 c 1.92906,-0.58509 3.84742,-1.19441 5.7543,-1.82747 -0.42977,-1.61461 -0.82235,-3.24129 -1.17774,-4.88004 -1.93732,0.60101 -3.88679,1.17552 -5.84751,1.72289 0.38125,1.67403 0.80489,3.33557 1.27095,4.98462 z"
           id="path3252"
           style="fill:#ffffff;stroke:#000000;stroke-width:1.5;stroke-dasharray:none" />
      </g>
    </g>
  </g>
</svg>
