<?xml version="1.0" encoding="UTF-8" standalone="no"?>
<!-- Created with Inkscape (http://www.inkscape.org/) -->

<svg
   sodipodi:docname="pabo.svg"
   inkscape:version="1.2.1 (9c6d41e410, 2022-07-14, custom)"
   id="svg5"
   version="1.1"
   viewBox="0 0 132.29167 396.87501"
   height="1500"
   width="500"
   inkscape:export-filename="../rasters/pabo.png"
   inkscape:export-xdpi="96"
   inkscape:export-ydpi="96"
   xmlns:inkscape="http://www.inkscape.org/namespaces/inkscape"
   xmlns:sodipodi="http://sodipodi.sourceforge.net/DTD/sodipodi-0.dtd"
   xmlns="http://www.w3.org/2000/svg"
   xmlns:svg="http://www.w3.org/2000/svg">
  <sodipodi:namedview
     id="namedview7"
     pagecolor="#ffffff"
     bordercolor="#000000"
     borderopacity="0.25"
     inkscape:showpageshadow="2"
     inkscape:pageopacity="0.0"
     inkscape:pagecheckerboard="0"
     inkscape:deskcolor="#d1d1d1"
     inkscape:document-units="px"
     showgrid="false"
     inkscape:zoom="0.58008659"
     inkscape:cx="-159.45895"
     inkscape:cy="750.74998"
     inkscape:window-width="1920"
     inkscape:window-height="1080"
     inkscape:window-x="1920"
     inkscape:window-y="0"
     inkscape:window-maximized="1"
     inkscape:current-layer="layer1" />
  <defs
     id="defs2">
    <inkscape:path-effect
       effect="perspective-envelope"
       up_left_point="44.868828,126.34301"
       up_right_point="87.422839,126.34301"
       down_left_point="27.449676,294.70468"
       down_right_point="104.84199,294.70468"
       id="path-effect16440"
       is_visible="true"
       lpeversion="1"
       deform_type="perspective"
       horizontal_mirror="false"
       vertical_mirror="false"
       overflow_perspective="false" />
    <inkscape:path-effect
       effect="perspective-envelope"
       up_left_point="161.56578,27.651743"
       up_right_point="235.3092,27.651743"
       down_left_point="131.4182,110.59796"
       down_right_point="265.45679,110.59796"
       id="path-effect14160"
       is_visible="true"
       lpeversion="1"
       deform_type="perspective"
       horizontal_mirror="false"
       vertical_mirror="false"
       overflow_perspective="false" />
  </defs>
  <g
     inkscape:label="Layer 1"
     inkscape:groupmode="layer"
     id="layer1">
    <rect
       style="opacity:0.264643;fill:#ffffff;stroke:#000000;stroke-width:0.396875;stroke-dasharray:none"
       id="rect12101"
       width="396.875"
       height="132.29167"
       x="-396.875"
       y="-8.7646487e-07"
       transform="rotate(-90)" />
    <text
       xml:space="preserve"
       style="font-style:normal;font-variant:normal;font-weight:normal;font-stretch:normal;font-size:14.4896px;font-family:'Kirang Haerang';-inkscape-font-specification:'Kirang Haerang';text-align:center;text-anchor:middle;opacity:1;fill:#000000;stroke:#000000;stroke-width:0;stroke-dasharray:none"
       x="-180.81412"
       y="126.25532"
       id="text14792"
       transform="rotate(-90)"><tspan
         sodipodi:role="line"
         id="tspan14790"
         style="font-style:normal;font-variant:normal;font-weight:500;font-stretch:normal;font-family:scientifica;-inkscape-font-specification:'scientifica Medium';text-align:start;text-anchor:start;fill:#000000;stroke:#000000;stroke-width:0;stroke-dasharray:none"
         x="-180.81412"
         y="126.25532">Binary parsing for dummies!</tspan></text>
    <g
       id="g16951"
       transform="translate(-0.00141536,-16.06753)">
      <g
         aria-label="바 보"
         id="g16926"
         style="font-size:128.027px;line-height:95.7316px;font-family:'JetBrainsMonoExtraBold Nerd Font Mono';-inkscape-font-specification:'JetBrainsMonoExtraBold Nerd Font Mono';opacity:1;fill:#000000;stroke:#000000;stroke-width:0.352113;stroke-dasharray:none"
         transform="matrix(1.1271224,0,0,1.1271224,-7.5101155,-6.709544)">
        <path
           d="m 76.16633,134.75836 c -0.0104,-0.2221 -0.04515,-0.44374 -0.104174,-0.66492 l -0.03377,-0.72665 c -0.131276,-0.74351 -0.187359,-1.43854 -0.169019,-2.08602 0.06614,-0.64351 0.03436,-1.32561 -0.09435,-2.04549 -0.06692,-0.42116 -0.108913,-0.81968 -0.126135,-1.19583 l -0.05979,-1.30583 0.202918,-0.18522 c 0.420785,-0.0411 0.770965,-0.0822 1.050581,-0.12328 0.324247,-0.0821 0.604702,-0.10263 0.84163,-0.0616 0.711352,0.12321 1.419676,0.18487 2.124333,0.18487 h 0.775123 l 1.066271,0.12344 c 0.153526,0.16481 0.236677,0.32988 0.249283,0.49522 0.0095,0.12418 -0.0031,0.26924 -0.03764,0.43528 -0.06303,0.41626 -0.08048,0.81326 -0.05208,1.19077 0.07608,0.37888 0.130199,0.78032 0.162256,1.20455 0.0036,0.68238 0.03135,1.36921 0.08335,2.06056 l 0.163072,2.16787 c 0.06684,0.88858 0.109672,1.78458 0.128191,2.6881 0.0648,0.8654 0.106977,1.76081 0.12626,2.68688 0.08361,1.12172 0.142846,2.25499 0.177331,3.4 0.08584,1.15693 0.14513,2.30149 0.177446,3.4331 0.01828,0.24752 0.01262,0.52041 -0.01708,0.81886 l 0.06063,0.82482 c -0.0077,0.60365 -0.01349,1.23588 -0.01751,1.89712 -0.0078,0.61378 0.03704,1.23085 0.13482,1.85125 0.105931,0.72803 0.130999,1.43441 0.07445,2.11872 -0.0035,0.68834 0.04847,1.40747 0.156414,2.15792 0.330277,0.1076 0.576166,0.16144 0.737441,0.16144 0.922454,0.10774 1.841258,0.16165 2.755778,0.16165 0.914521,0 1.823923,-0.0539 2.727586,-0.16165 0.311762,-0.10765 0.645099,0 1.000958,0.32354 l 0.193309,1.87771 c 0.06796,0.66015 0.163583,1.32397 0.287098,1.9915 0.0952,0.39111 0.141638,0.83967 0.139061,1.3463 -0.0084,0.45213 0.03542,0.87755 0.131796,1.27596 -0.09889,0.11407 -0.228487,0.1997 -0.388762,0.25681 -0.166121,0 -0.326513,0.0572 -0.481286,0.17152 -0.09948,0.11447 -0.232431,0.17175 -0.398782,0.17175 -0.171915,-0.0573 -0.335466,-0.0286 -0.490822,0.086 -0.37749,0.11472 -0.732897,0.17212 -1.065953,0.17212 -0.33306,0 -0.696411,-0.0287 -1.089917,-0.0861 -0.509136,-0.11469 -1.008309,-0.11469 -1.498226,0 -0.494896,0.0574 -1.015587,0.14352 -1.562285,0.25846 -0.03426,0.28781 -0.03863,0.60519 -0.01299,0.95238 l 0.07089,0.95986 c 0.129834,0.99688 0.232508,2.00188 0.307685,3.01512 0.0758,1.02158 0.09508,2.0516 0.05714,3.09016 l 0.02031,0.27636 c 0.02401,1.11152 0.07951,2.2642 0.16693,3.45903 0.142076,1.14236 0.256052,2.29499 0.341549,3.45804 0.01432,0.19486 0.0015,0.42257 -0.03853,0.68331 l 0.04307,0.58857 0.329327,4.50094 c 0.07474,1.02146 0.119654,2.05085 0.134399,3.08824 0.07614,1.04552 0.122117,2.09923 0.137575,3.16125 0.03096,0.42715 0.093,0.85566 0.186265,1.28552 0.09356,0.43122 0.158932,0.89993 0.195997,1.4065 0.172911,0.65407 0.18727,1.27468 0.04199,1.86137 -0.251211,0 -0.499813,0.0367 -0.745904,0.11027 -0.246222,0.0736 -0.466179,0.0736 -0.659693,0 -0.763485,-0.14702 -1.487909,-0.18375 -2.17416,-0.11027 -0.682402,0.14706 -1.369569,0.22065 -2.060953,0.22065 h -0.377119 c -0.572868,-0.14714 -0.935856,-0.51431 -1.088932,-1.09974 -0.03434,-0.7283 -0.02711,-1.2358 0.02147,-1.52497 0.0073,-1.15054 -0.0471,-2.29142 -0.162565,-3.42275 l -0.158536,-3.33794 c -0.05844,-1.23049 -0.148021,-2.48336 -0.268259,-3.75781 l -0.167665,-3.55575 -0.425429,-5.34349 -0.07765,-1.67097 c 0.03738,-0.42963 0.01881,-0.82726 -0.05544,-1.19318 -0.01978,-0.42557 -0.06797,-0.84969 -0.144444,-1.27238 -0.07345,-0.36116 -0.118341,-0.72129 -0.134781,-1.08037 l 0.120127,-1.07104 -0.01649,-0.35496 c 0.05079,-0.11809 0.07341,-0.23607 0.06789,-0.35394 -0.150552,-0.82193 -0.217669,-1.66746 -0.202185,-2.53604 0.01538,-0.86243 -0.05092,-1.69033 -0.198064,-2.48435 -0.130776,-0.4514 -0.118737,-0.78884 0.03554,-1.01327 0.09656,-0.27996 0.132918,-0.6708 0.109311,-1.17144 -0.197178,-0.71947 -0.26262,-1.54428 -0.197597,-2.47218 -0.0045,-1.24393 -0.03316,-2.4216 -0.08565,-3.5348 -0.0015,-1.15492 -0.05692,-2.32432 -0.165393,-3.50759 -0.02648,-0.56163 -0.02556,-1.09517 0.0026,-1.601 0.07994,-0.5036 0.106511,-1.02999 0.08007,-1.57885 l -0.225513,-1.48347 -0.06954,-1.46416 c -0.196954,-2.0181 -0.290184,-4.00009 -0.282451,-5.94693 -0.123027,-0.50419 -0.200319,-1.09705 -0.232153,-1.77711 0.01746,-0.67579 -0.0099,-1.25807 -0.08184,-1.74831 z m -17.22425,35.72353 c 0.511405,0.0606 0.967539,0.0606 1.368072,0 0.457327,-0.0605 0.913837,-0.0908 1.369695,-0.0908 0.113965,0 0.284405,0.0302 0.511404,0.0908 0.285015,0 0.484946,-0.0303 0.599751,-0.0908 0.0089,-0.66374 -0.06723,-1.32396 -0.227775,-1.98069 -0.102431,-0.71248 -0.123951,-1.15571 -0.06507,-1.33255 0.06052,-0.29418 0.09369,-0.64627 0.09961,-1.05577 0.06179,-0.40813 0.09508,-0.7859 0.09998,-1.13358 l -0.05495,-1.98011 0.0099,-0.68123 c 0.05834,-0.22622 0.06115,-0.42382 0.0086,-0.59294 -0.275799,0.0564 -0.579231,0.11272 -0.910317,0.16912 -0.331241,0.0564 -0.551961,0.0846 -0.662045,0.0846 -0.442909,0.11296 -1.077623,0.16948 -1.90383,0.16948 -0.769317,-0.0565 -1.373109,-0.11301 -1.811493,-0.16948 -0.38315,-0.0564 -0.768352,-0.0564 -1.155878,0 -0.332652,0.0565 -0.719282,0.0847 -1.159771,0.0847 h -0.330367 c -0.162472,-0.0565 -0.300093,-0.0565 -0.412958,0 l 0.111677,1.10661 c 0.09148,0.39972 0.06677,0.9156 -0.0749,1.5491 -0.139583,0.57877 -0.1637,1.07289 -0.07162,1.48132 0.09238,0.40979 0.100788,0.82095 0.02479,1.23349 -0.0734,0.35471 -0.08912,0.68075 -0.04695,0.9779 -0.0086,0.17864 -0.05408,0.53668 -0.136776,1.0757 l -0.04807,0.99428 c 0.79502,0.0605 1.592965,0.0605 2.393256,0 0.856872,-0.0605 1.681946,-0.0302 2.476111,0.0908 z m -3.788297,-24.04772 c 0.114038,0.84377 0.04728,1.69386 -0.202331,2.55036 -0.06457,0.25314 -0.104427,0.53225 -0.1195,0.83751 0.03975,0.255 0.0534,0.51057 0.04084,0.76671 l -0.02268,0.46249 c 0.04251,0.20616 0.0299,0.46437 -0.038,0.77498 -0.01527,0.31145 -0.05447,0.57164 -0.117644,0.78021 -0.06329,0.20894 -0.104089,0.49686 -0.12236,0.86433 l -0.0433,0.8708 c 0.04807,0.106 0.0682,0.23863 0.06033,0.39798 0.261923,0.10636 0.554564,0.13296 0.877636,0.0798 0.378681,-0.10633 0.701373,-0.15946 0.968335,-0.15946 0.482626,-0.0531 1.257598,-0.0797 2.325081,-0.0797 1.068916,-0.0531 1.898518,-0.15914 2.488566,-0.31806 0.107689,-0.0529 0.346976,-0.0265 0.71815,0.0794 0.372375,0.053 0.612772,0.0265 0.720992,-0.0794 0.05407,-0.0529 0.08416,-0.29079 0.09026,-0.71247 0.05987,-0.47257 0.0934,-0.96932 0.100746,-1.48993 l 0.02186,-1.54788 0.0162,-1.1474 0.117627,-2.85608 c 0.0034,-0.24714 -0.01925,-0.4691 -0.06789,-0.66603 0.0035,-0.24567 0.03256,-0.49082 0.0872,-0.73543 0.05518,-0.29283 0.05947,-0.6092 0.01307,-0.94891 -0.04625,-0.33868 -0.06865,-0.55586 -0.06728,-0.65225 0.0048,-0.3367 0.05985,-0.64845 0.165109,-0.93544 0.101267,0 0.303512,0.0239 0.606834,0.0717 0.354548,0 0.684136,-0.0478 0.988566,-0.14331 0.152116,-0.0477 0.405147,-0.0477 0.759256,0 0.404889,0.0477 0.809932,0.0716 1.215,0.0716 h 0.22785 0.379751 c 0.15161,-0.0478 0.278007,-0.0716 0.379241,-0.0716 0.35432,0 0.734196,0.0239 1.139761,0.0716 h 1.291152 c 0.606608,-0.0478 1.137591,-0.0716 1.593145,-0.0716 0.45425,-0.0477 0.935712,-0.0239 1.44486,0.0716 0.104345,0.0956 0.133538,0.21517 0.08747,0.35885 l 0.01387,0.43217 c -0.04314,0.24081 -0.05938,0.53048 -0.04862,0.86938 0.06188,0.33993 0.07513,0.7541 0.03947,1.24332 -0.0795,0.73784 -0.08518,1.38124 -0.01638,1.92852 0.06755,0.49984 0.08582,1.07738 0.05445,1.7338 -0.03155,0.66021 -0.03945,1.24744 -0.02351,1.76052 0.06705,0.46374 0.132728,0.87752 0.196996,1.2408 0.06114,0.26019 0.07115,0.57318 0.02983,0.93942 -0.04311,0.31483 -0.05892,0.65687 -0.04731,1.02634 0.01998,0.63611 0.06853,1.32916 0.14594,2.08012 0.131821,0.75579 0.17896,1.38025 0.140662,1.87126 0.0053,0.16413 -0.01307,0.43817 -0.05512,0.8229 l 0.03688,1.1617 0.0426,1.3416 0.03496,1.10117 c 0.07518,0.62564 0.152604,1.31185 0.232334,2.05964 0.08022,0.75241 0.103043,1.45108 0.06795,2.09503 -0.07643,1.12029 -0.122397,2.34053 -0.137505,3.66354 -0.01527,1.33717 -0.0048,2.59614 0.03181,3.77431 l 0.05849,1.88287 c 0.07809,0.63385 0.127292,1.27086 0.147399,1.91105 0.004,0.12842 -0.01828,0.35347 -0.06705,0.67565 0.01003,0.32299 -0.01241,0.54956 -0.0674,0.6792 -1.178261,0.0649 -2.328304,0.0973 -3.449685,0.0973 -1.121382,0 -2.182874,0.0974 -3.185608,0.2924 -0.117576,0.13017 -0.501732,0.16273 -1.152135,0.0976 -0.590981,-0.0651 -1.004427,-0.13013 -1.240472,-0.19515 -0.05907,0 -0.236591,0.065 -0.5328,0.19515 -0.296027,0.0651 -0.561811,0.0326 -0.797063,-0.0976 -0.356609,0.19531 -0.77133,0.26047 -1.24358,0.1953 -0.412896,-0.0651 -0.826711,-0.0651 -1.241759,0 l -0.707461,-0.0977 c -0.29258,-0.13013 -0.765215,-0.13013 -1.418618,0 l -3.892967,-0.19515 c -0.534457,0.065 -1.097221,0.0975 -1.688089,0.0975 -0.587553,-0.065 -1.027168,-0.13004 -1.318956,-0.19501 h -1.328452 -1.505578 c -0.531381,0 -1.035475,0.0325 -1.512461,0.0975 h -1.063162 l -3.641126,0.0975 h -0.443151 c -0.171333,-0.065 -0.316032,-0.0975 -0.434161,-0.0975 -0.04706,-0.12994 -0.09707,-0.22731 -0.150064,-0.29219 l 0.02707,-0.29152 c -0.02885,-0.32315 -0.05463,-0.67768 -0.07733,-1.06333 l 0.10757,-1.15005 c 0.1818,-0.69776 0.223201,-1.45463 0.125419,-2.26952 -0.03943,-0.80969 -0.024,-1.58338 0.04582,-2.32168 0.0521,-0.5509 0.0754,-1.09939 0.0701,-1.64548 l 0.162638,-1.71369 0.04243,-0.44708 c 0.01693,-0.17837 0.0056,-0.35649 -0.03387,-0.53436 0.02255,-0.23675 0.0732,-0.47305 0.151861,-0.7089 l 0.306207,-3.22647 c 0.152851,-1.02835 0.309741,-2.10444 0.470508,-3.22688 l 0.164584,-1.7468 c 0.07238,-0.76822 0.119858,-1.55866 0.142661,-2.37084 0.02265,-0.80663 0.09606,-1.58114 0.219774,-2.32412 0.03995,-0.42244 0.04574,-0.76455 0.01755,-1.02703 -0.02813,-0.26189 0.03311,-0.62755 0.183213,-1.09599 0.07727,-0.25943 0.10169,-0.51827 0.07343,-0.77654 l 0.08021,-0.8482 0.115618,-1.22266 c -0.02816,-0.25308 0.03373,-0.63166 0.185115,-1.13448 0.07074,-0.20051 0.0872,-0.37566 0.04952,-0.52558 l 0.06333,-0.67218 c 0.03269,-0.34698 0.03955,-0.69289 0.02071,-1.03775 0.03251,-0.34379 0.037,-0.6621 0.01358,-0.95512 0.02312,-0.2436 0.07632,-0.53522 0.159437,-0.87449 0.08287,-0.33824 0.135553,-0.62734 0.158198,-0.86769 0.156784,-0.048 0.389615,-0.096 0.698443,-0.14397 0.363706,-0.0959 0.697538,-0.14377 1.001732,-0.14377 h 2.889838 c 0.811182,0 1.878984,-0.0479 3.202547,-0.14359 0.306767,-0.0478 0.661353,-0.0478 1.063988,0 0.453486,0.0478 0.856479,0.0957 1.208947,0.14359 0.04368,0.14378 0.03548,0.31175 -0.02472,0.50403 l -0.02127,0.43384 c 0.03911,0.24176 0.04807,0.5811 0.02676,1.01892 -0.0214,0.43953 -0.06497,0.80712 -0.130759,1.10206 z"
           style="font-family:'Kirang Haerang';-inkscape-font-specification:'Kirang Haerang';fill:#000000;stroke:#000000;stroke-width:0.352113;stroke-dasharray:none"
           id="path16922" />
        <path
           d="m 76.193147,217.92585 c -0.01447,-0.42802 -0.0052,-1.15284 0.02765,-2.17012 0.02972,-1.09418 0.0053,-1.80523 -0.07303,-2.13866 -0.08095,-0.41571 -0.06027,-0.78884 0.06165,-1.11972 0.118767,-0.41254 0.310924,-0.61837 0.576724,-0.61837 0.19935,0 0.666097,0.0411 1.400554,0.12345 0.797738,0 1.624853,-0.0823 2.480618,-0.24682 0.394319,-0.0822 0.958746,-0.0822 1.693759,0 0.797062,0 1.59664,0.0411 2.399074,0.12337 0.7974,0 1.597656,0.0411 2.401108,0.12345 0.797738,0 1.459344,-0.0412 1.984595,-0.12345 0.325659,-0.0823 0.544905,0.16464 0.658213,0.74236 0.107012,0.49702 0.137396,0.8709 0.09082,1.12068 -0.119994,1.00342 -0.109354,2.39438 0.03383,4.18383 l 0.205527,1.29152 0.05223,0.64998 c 0.06999,0.87105 0.194917,1.57155 0.374932,2.09907 0.02143,0.26446 0.01562,0.61779 -0.01754,1.06063 -0.03325,0.44413 -0.02125,1.02346 0.03629,1.73953 l 0.804268,10.0087 c -0.03327,0.47934 0.0079,1.44244 0.124386,2.8982 0.18234,1.37088 0.29396,2.30789 0.333767,2.80327 0.10408,1.29522 0.241734,2.55056 0.413293,3.76496 0.246971,1.22357 0.35121,2.50801 0.311067,3.85465 -0.0573,1.14819 -0.03975,2.30446 0.05342,3.46889 0.08527,1.06574 0.251412,2.19217 0.499321,3.38047 0.09384,0.21697 0.154012,0.48858 0.180473,0.81509 l 0.05308,0.65493 c -0.150512,0.98721 -0.211576,2.14632 -0.182356,3.48083 0.02052,1.2326 -0.01124,2.30435 -0.09572,3.21213 0.0089,0.1138 -0.103842,0.17073 -0.338382,0.17073 -0.303981,0.11393 -0.916822,0.28496 -1.839291,0.51326 -0.931634,0.11427 -1.7187,0.0571 -2.360093,-0.17125 -0.953363,-0.22808 -1.898649,-0.34201 -2.836808,-0.34201 -0.866192,-0.11384 -1.770872,-0.22761 -2.714002,-0.34131 h -5.857651 c -0.699503,0.1137 -1.401063,0.17058 -2.104331,0.17058 -0.705984,-0.11374 -1.371209,-0.17058 -1.996025,-0.17058 -0.778993,0.1137 -1.162031,0.56924 -1.148679,1.36936 l 0.0638,3.82292 c 0.01568,0.93961 0.07528,2.12129 0.179385,3.54995 0.01633,0.95893 -0.0085,1.8627 -0.07492,2.71042 l 0.05521,3.3083 c 0.0041,0.24752 0.129586,0.43338 0.376491,0.55741 0.328703,0.1241 0.65642,0.18619 0.982981,0.18619 0.731968,-0.12415 1.42567,-0.12415 2.081827,0 0.734762,0 1.553065,0.0621 2.45538,0.18637 h 0.857669 c 0.335794,0.24882 0.785361,0.24882 1.347765,0 0.643249,-0.24846 1.209331,-0.37256 1.698918,-0.37256 h 2.203139 c 1.060771,0 2.373391,0.1241 3.939489,0.37256 1.886967,0.12437 3.766323,0.12437 5.636112,0 1.460219,-0.12427 2.725862,-0.12427 3.798248,0 0.419444,0.12437 1.026655,0.0622 1.820587,-0.18637 0.874421,-0.24822 1.433511,-0.3722 1.678171,-0.3722 0.18741,0.24805 0.2995,0.55858 0.33615,0.93193 l 0.092,0.93679 c 0.0246,0.25064 0.0143,0.56444 -0.0309,0.94171 l 0.11117,1.13658 c 0.1821,1.01634 0.35524,2.35899 0.51977,4.03517 0.23695,1.561 0.35947,2.8063 0.36606,3.7293 -0.006,0.79484 0.0652,1.52646 0.21536,2.19409 0.23553,0.67003 0.28192,1.14049 0.13839,1.40987 -0.0586,0.26975 -0.2517,0.47233 -0.57929,0.60751 h -0.7667 -1.916761 c -0.778489,-0.13518 -1.374596,-0.13518 -1.788969,0 -1.596905,0.27063 -3.419606,0.4061 -5.466367,0.4061 -2.04676,0 -3.845733,-0.13547 -5.395231,-0.4061 -0.859067,-0.13518 -2.008702,-0.13518 -3.450155,0 -1.363025,0 -3.157087,-0.13518 -5.379773,-0.40524 h -0.25529 c -0.758034,0.27006 -1.522636,0.33764 -2.292563,0.20251 -0.76937,-0.13503 -1.535378,-0.13503 -2.298854,0 l -3.316575,0.40566 c -0.170471,0 -0.382963,0.0677 -0.637614,0.20317 -0.170563,0 -0.384248,-0.0677 -0.640916,-0.20317 h -2.301354 c -0.767118,0 -1.533975,-0.0677 -2.300155,-0.20293 -0.681513,0 -1.15066,0.0676 -1.407582,0.20293 -0.257108,0.13542 -0.554784,0.0677 -0.892521,-0.20293 -0.342512,0.13526 -0.643579,0.33835 -0.903299,0.60949 -0.25804,0.13571 -0.514117,0.13571 -0.767953,0 -0.936029,-0.13562 -1.872838,-0.20339 -2.810937,-0.20339 H 54.472908 51.53069 c -1.279225,0 -2.561565,0.0678 -3.847719,0.20339 -1.279922,0 -2.594866,-0.13562 -3.943367,-0.40656 l -7.255369,-0.40566 c -1.191999,0 -2.432378,0.0676 -3.721839,0.20273 h -4.089073 c -0.511134,0 -0.774659,-0.33776 -0.790532,-1.01143 l 0.08276,-0.80521 c 0.125927,-0.40129 0.22294,-0.935 0.291058,-1.59998 0.06788,-0.66261 0.10021,-1.38874 0.0972,-2.17763 0.01045,-0.91611 0.0626,-1.82767 0.156136,-2.73471 l 0.179084,-1.73665 c 0.148642,-0.63902 0.242391,-1.14862 0.281576,-1.52988 -0.03031,-0.50709 -0.06053,-1.01276 -0.09067,-1.51703 0.05203,-0.50286 0.172948,-0.87908 0.362673,-1.12945 0.189462,-0.25004 0.652434,-0.37492 1.389114,-0.37492 0.830606,-0.1248 1.438364,-0.0624 1.824112,0.18736 0.386286,0.25011 1.077205,0.3127 2.071835,0.18756 1.075847,-0.12506 1.81823,-0.18756 2.227711,-0.18756 h 2.211195 c 0.828138,-0.12493 1.528477,-0.18736 2.101451,-0.18736 1.145947,0 2.083259,0.0624 2.812316,0.18736 0.81896,0 1.682453,-0.0625 2.590004,-0.18736 0.327414,0 0.699056,-0.0624 1.114711,-0.18717 0.497147,-0.12466 0.990895,-0.18696 1.481503,-0.18696 l 0.972816,0.18696 H 51.7574 c 0.577479,-0.12466 1.149954,-0.12466 1.718024,0 h 1.349875 c 0.576412,-0.12466 1.068888,-0.18696 1.477728,-0.18696 h 2.453039 l 0.252749,-0.37336 0.03699,-1.85514 c -0.04669,-1.71419 -0.0161,-3.23084 0.09082,-4.5548 l 0.04277,-2.14516 c 0.102999,-1.18049 0.161125,-2.11915 0.174856,-2.81984 l 0.05438,-2.77467 c -0.07164,-0.34371 -0.144282,-0.62961 -0.21796,-0.85799 0.0046,-0.22808 -0.107985,-0.45586 -0.3376,-0.68332 -2.261785,-0.11363 -4.36984,-0.11363 -6.326264,0 H 52.40964 c -0.854276,-0.11363 -1.629936,-0.22718 -2.327056,-0.34065 -0.696659,-0.11339 -1.476643,-0.11339 -2.340729,0 h -1.2874 c -0.46146,-0.11339 -0.92945,-0.11339 -1.404437,0 l -4.967412,0.68196 c -0.634314,0.11393 -1.10355,0.11393 -1.407238,0 -0.225333,-0.11384 -0.627168,-0.45493 -1.204177,-1.02192 -0.195565,-0.45223 -0.240548,-1.29695 -0.135909,-2.52832 0.132088,-1.55438 0.229298,-3.14932 0.292073,-4.78347 0.138076,-1.61832 0.23705,-3.22105 0.297484,-4.80841 l 0.281349,-3.28439 c 0.09693,-1.13156 0.156237,-2.25529 0.178301,-3.37128 l 0.296786,-3.4508 c 0.101747,-1.18304 0.234725,-2.3086 0.398662,-3.3778 l 0.234452,-2.73692 c 0.144481,-0.85447 0.240573,-1.56298 0.288735,-2.12747 0.07192,-0.84291 0.131931,-1.95971 0.180006,-3.34446 l 0.291956,-3.40822 0.899368,-11.66846 c 0.02143,-0.24915 0.07616,-0.49787 0.164103,-0.74617 l 0.262943,-0.74236 c 0.691685,-0.32874 1.166292,-0.45182 1.425101,-0.36978 0.331828,0 0.723646,0.0821 1.175836,0.24641 0.458828,0.0822 1.026557,0.0411 1.702418,-0.12326 h 1.195088 c 0.403682,-0.0821 0.807136,-0.16417 1.210362,-0.2462 h 1.09457 c 0.535328,-0.082 1.034962,-0.12294 1.499129,-0.12294 0.530476,0 0.992606,0.041 1.386555,0.12294 h 0.995064 c 0.331688,0 0.6948,0.041 1.089505,0.12305 0.394927,0.0821 0.687287,0.24641 0.877153,0.49323 -0.01256,0.32976 -0.06004,0.70163 -0.142596,1.11594 l -0.07705,2.00512 c -0.02267,0.59001 -0.0808,1.2248 -0.174633,1.90493 -0.16205,0.68327 -0.222942,1.36969 -0.181974,2.0593 l 0.124051,2.08811 -0.04054,1.05504 c 0.05532,0.35334 0.04517,0.61889 -0.03059,0.79618 -0.162178,0.62214 -0.250502,1.11278 -0.264496,1.4706 0.05539,0.35867 0.07266,0.8082 0.05168,1.34939 -0.01052,0.27131 0.08881,0.40715 0.298003,0.40715 h 0.627575 c 0.282072,-0.0906 0.527594,-0.13583 0.736693,-0.13583 h 2.718282 0.418197 c 0.21112,-0.0905 0.420157,-0.0905 0.627296,0 0.696996,0 1.462959,0.0453 2.29826,0.13583 0.836767,0 1.638302,0.0453 2.404947,0.13597 h 0.627854 c 0.209541,-0.0907 0.418861,-0.13597 0.628052,-0.13597 0.557778,-0.18109 1.115291,-0.18109 1.673533,0 h 2.614896 1.778129 c 0.697305,0 1.361816,0.0906 1.994095,0.27205 0.490954,0.0908 0.806365,0.1362 0.946012,0.1362 0.137065,-0.0908 0.48608,-0.0908 1.047356,0 0.418942,0 0.6618,-0.0454 0.728545,-0.1362 l -0.03669,-1.08527 -0.05002,-1.47974 c 0.04799,-0.62343 0.05528,-1.42123 0.02218,-2.39062 -0.03289,-0.9632 -0.108525,-2.18019 -0.226196,-3.64476 z m -22.098926,22.10499 -0.07894,2.09164 -0.03986,1.05613 -0.04587,1.21553 c -0.01537,0.40722 -0.0034,1.07114 0.0362,1.99492 0.06667,0.206 0.05708,0.46386 -0.02894,0.77383 l -0.02325,0.62173 c 0.813835,0.20776 1.521701,0.25975 2.122538,0.1558 0.675111,-0.10388 1.385725,-0.1558 2.132165,-0.1558 0.298575,0 1.529176,0.0519 3.692833,0.1558 2.165704,0 4.630071,-0.0519 7.391786,-0.1558 1.267558,-0.10379 2.612537,-1e-5 4.037574,0.31174 1.425031,0.20817 2.661731,0.31235 3.70874,0.31235 0.142579,-0.2083 0.212043,-0.36434 0.208529,-0.46829 -0.02453,-0.7258 -0.101727,-1.91123 -0.23068,-3.54628 l -0.126095,-3.76847 -0.10856,-3.24441 h -3.252142 c -1.08597,-0.0973 -2.13596,-0.24312 -3.149537,-0.43734 h -0.43302 c -0.359806,0.0971 -0.7203,0.14565 -1.081316,0.14565 h -1.083049 -2.815926 c -0.938642,0 -1.877759,0.0486 -2.817784,0.14578 h -5.526093 c -0.21671,0 -0.471078,0.0486 -0.763241,0.14591 H 55.06145 c -0.433619,0 -0.757013,-0.0487 -0.970086,-0.14591 l -0.0558,1.46518 c 0.05769,0.39301 0.07729,0.83631 0.05865,1.33031 z"
           style="font-family:'Kirang Haerang';-inkscape-font-specification:'Kirang Haerang';fill:#000000;stroke:#000000;stroke-width:0.352113;stroke-dasharray:none"
           id="path16924" />
      </g>
      <g
         aria-label="바 보"
         id="text15896"
         style="font-size:128.027px;line-height:95.7316px;font-family:'JetBrainsMonoExtraBold Nerd Font Mono';-inkscape-font-specification:'JetBrainsMonoExtraBold Nerd Font Mono';opacity:1;fill:#ffffff;stroke:#000000;stroke-width:0.352113;stroke-dasharray:none"
         transform="matrix(1.1271224,0,0,1.1271224,-7.5072805,-38.848643)">
        <path
           d="m 76.16633,134.75836 c -0.0104,-0.2221 -0.04515,-0.44374 -0.104174,-0.66492 l -0.03377,-0.72665 c -0.131276,-0.74351 -0.187359,-1.43854 -0.169019,-2.08602 0.06614,-0.64351 0.03436,-1.32561 -0.09435,-2.04549 -0.06692,-0.42116 -0.108913,-0.81968 -0.126135,-1.19583 l -0.05979,-1.30583 0.202918,-0.18522 c 0.420785,-0.0411 0.770965,-0.0822 1.050581,-0.12328 0.324247,-0.0821 0.604702,-0.10263 0.84163,-0.0616 0.711352,0.12321 1.419676,0.18487 2.124333,0.18487 h 0.775123 l 1.066271,0.12344 c 0.153526,0.16481 0.236677,0.32988 0.249283,0.49522 0.0095,0.12418 -0.0031,0.26924 -0.03764,0.43528 -0.06303,0.41626 -0.08048,0.81326 -0.05208,1.19077 0.07608,0.37888 0.130199,0.78032 0.162256,1.20455 0.0036,0.68238 0.03135,1.36921 0.08335,2.06056 l 0.163072,2.16787 c 0.06684,0.88858 0.109672,1.78458 0.128191,2.6881 0.0648,0.8654 0.106977,1.76081 0.12626,2.68688 0.08361,1.12172 0.142846,2.25499 0.177331,3.4 0.08584,1.15693 0.14513,2.30149 0.177446,3.4331 0.01828,0.24752 0.01262,0.52041 -0.01708,0.81886 l 0.06063,0.82482 c -0.0077,0.60365 -0.01349,1.23588 -0.01751,1.89712 -0.0078,0.61378 0.03704,1.23085 0.13482,1.85125 0.105931,0.72803 0.130999,1.43441 0.07445,2.11872 -0.0035,0.68834 0.04847,1.40747 0.156414,2.15792 0.330277,0.1076 0.576166,0.16144 0.737441,0.16144 0.922454,0.10774 1.841258,0.16165 2.755778,0.16165 0.914521,0 1.823923,-0.0539 2.727586,-0.16165 0.311762,-0.10765 0.645099,0 1.000958,0.32354 l 0.193309,1.87771 c 0.06796,0.66015 0.163583,1.32397 0.287098,1.9915 0.0952,0.39111 0.141638,0.83967 0.139061,1.3463 -0.0084,0.45213 0.03542,0.87755 0.131796,1.27596 -0.09889,0.11407 -0.228487,0.1997 -0.388762,0.25681 -0.166121,0 -0.326513,0.0572 -0.481286,0.17152 -0.09948,0.11447 -0.232431,0.17175 -0.398782,0.17175 -0.171915,-0.0573 -0.335466,-0.0286 -0.490822,0.086 -0.37749,0.11472 -0.732897,0.17212 -1.065953,0.17212 -0.33306,0 -0.696411,-0.0287 -1.089917,-0.0861 -0.509136,-0.11469 -1.008309,-0.11469 -1.498226,0 -0.494896,0.0574 -1.015587,0.14352 -1.562285,0.25846 -0.03426,0.28781 -0.03863,0.60519 -0.01299,0.95238 l 0.07089,0.95986 c 0.129834,0.99688 0.232508,2.00188 0.307685,3.01512 0.0758,1.02158 0.09508,2.0516 0.05714,3.09016 l 0.02031,0.27636 c 0.02401,1.11152 0.07951,2.2642 0.16693,3.45903 0.142076,1.14236 0.256052,2.29499 0.341549,3.45804 0.01432,0.19486 0.0015,0.42257 -0.03853,0.68331 l 0.04307,0.58857 0.329327,4.50094 c 0.07474,1.02146 0.119654,2.05085 0.134399,3.08824 0.07614,1.04552 0.122117,2.09923 0.137575,3.16125 0.03096,0.42715 0.093,0.85566 0.186265,1.28552 0.09356,0.43122 0.158932,0.89993 0.195997,1.4065 0.172911,0.65407 0.18727,1.27468 0.04199,1.86137 -0.251211,0 -0.499813,0.0367 -0.745904,0.11027 -0.246222,0.0736 -0.466179,0.0736 -0.659693,0 -0.763485,-0.14702 -1.487909,-0.18375 -2.17416,-0.11027 -0.682402,0.14706 -1.369569,0.22065 -2.060953,0.22065 h -0.377119 c -0.572868,-0.14714 -0.935856,-0.51431 -1.088932,-1.09974 -0.03434,-0.7283 -0.02711,-1.2358 0.02147,-1.52497 0.0073,-1.15054 -0.0471,-2.29142 -0.162565,-3.42275 l -0.158536,-3.33794 c -0.05844,-1.23049 -0.148021,-2.48336 -0.268259,-3.75781 l -0.167665,-3.55575 -0.425429,-5.34349 -0.07765,-1.67097 c 0.03738,-0.42963 0.01881,-0.82726 -0.05544,-1.19318 -0.01978,-0.42557 -0.06797,-0.84969 -0.144444,-1.27238 -0.07345,-0.36116 -0.118341,-0.72129 -0.134781,-1.08037 l 0.120127,-1.07104 -0.01649,-0.35496 c 0.05079,-0.11809 0.07341,-0.23607 0.06789,-0.35394 -0.150552,-0.82193 -0.217669,-1.66746 -0.202185,-2.53604 0.01538,-0.86243 -0.05092,-1.69033 -0.198064,-2.48435 -0.130776,-0.4514 -0.118737,-0.78884 0.03554,-1.01327 0.09656,-0.27996 0.132918,-0.6708 0.109311,-1.17144 -0.197178,-0.71947 -0.26262,-1.54428 -0.197597,-2.47218 -0.0045,-1.24393 -0.03316,-2.4216 -0.08565,-3.5348 -0.0015,-1.15492 -0.05692,-2.32432 -0.165393,-3.50759 -0.02648,-0.56163 -0.02556,-1.09517 0.0026,-1.601 0.07994,-0.5036 0.106511,-1.02999 0.08007,-1.57885 l -0.225513,-1.48347 -0.06954,-1.46416 c -0.196954,-2.0181 -0.290184,-4.00009 -0.282451,-5.94693 -0.123027,-0.50419 -0.200319,-1.09705 -0.232153,-1.77711 0.01746,-0.67579 -0.0099,-1.25807 -0.08184,-1.74831 z m -17.22425,35.72353 c 0.511405,0.0606 0.967539,0.0606 1.368072,0 0.457327,-0.0605 0.913837,-0.0908 1.369695,-0.0908 0.113965,0 0.284405,0.0302 0.511404,0.0908 0.285015,0 0.484946,-0.0303 0.599751,-0.0908 0.0089,-0.66374 -0.06723,-1.32396 -0.227775,-1.98069 -0.102431,-0.71248 -0.123951,-1.15571 -0.06507,-1.33255 0.06052,-0.29418 0.09369,-0.64627 0.09961,-1.05577 0.06179,-0.40813 0.09508,-0.7859 0.09998,-1.13358 l -0.05495,-1.98011 0.0099,-0.68123 c 0.05834,-0.22622 0.06115,-0.42382 0.0086,-0.59294 -0.275799,0.0564 -0.579231,0.11272 -0.910317,0.16912 -0.331241,0.0564 -0.551961,0.0846 -0.662045,0.0846 -0.442909,0.11296 -1.077623,0.16948 -1.90383,0.16948 -0.769317,-0.0565 -1.373109,-0.11301 -1.811493,-0.16948 -0.38315,-0.0564 -0.768352,-0.0564 -1.155878,0 -0.332652,0.0565 -0.719282,0.0847 -1.159771,0.0847 h -0.330367 c -0.162472,-0.0565 -0.300093,-0.0565 -0.412958,0 l 0.111677,1.10661 c 0.09148,0.39972 0.06677,0.9156 -0.0749,1.5491 -0.139583,0.57877 -0.1637,1.07289 -0.07162,1.48132 0.09238,0.40979 0.100788,0.82095 0.02479,1.23349 -0.0734,0.35471 -0.08912,0.68075 -0.04695,0.9779 -0.0086,0.17864 -0.05408,0.53668 -0.136776,1.0757 l -0.04807,0.99428 c 0.79502,0.0605 1.592965,0.0605 2.393256,0 0.856872,-0.0605 1.681946,-0.0302 2.476111,0.0908 z m -3.788297,-24.04772 c 0.114038,0.84377 0.04728,1.69386 -0.202331,2.55036 -0.06457,0.25314 -0.104427,0.53225 -0.1195,0.83751 0.03975,0.255 0.0534,0.51057 0.04084,0.76671 l -0.02268,0.46249 c 0.04251,0.20616 0.0299,0.46437 -0.038,0.77498 -0.01527,0.31145 -0.05447,0.57164 -0.117644,0.78021 -0.06329,0.20894 -0.104089,0.49686 -0.12236,0.86433 l -0.0433,0.8708 c 0.04807,0.106 0.0682,0.23863 0.06033,0.39798 0.261923,0.10636 0.554564,0.13296 0.877636,0.0798 0.378681,-0.10633 0.701373,-0.15946 0.968335,-0.15946 0.482626,-0.0531 1.257598,-0.0797 2.325081,-0.0797 1.068916,-0.0531 1.898518,-0.15914 2.488566,-0.31806 0.107689,-0.0529 0.346976,-0.0265 0.71815,0.0794 0.372375,0.053 0.612772,0.0265 0.720992,-0.0794 0.05407,-0.0529 0.08416,-0.29079 0.09026,-0.71247 0.05987,-0.47257 0.0934,-0.96932 0.100746,-1.48993 l 0.02186,-1.54788 0.0162,-1.1474 0.117627,-2.85608 c 0.0034,-0.24714 -0.01925,-0.4691 -0.06789,-0.66603 0.0035,-0.24567 0.03256,-0.49082 0.0872,-0.73543 0.05518,-0.29283 0.05947,-0.6092 0.01307,-0.94891 -0.04625,-0.33868 -0.06865,-0.55586 -0.06728,-0.65225 0.0048,-0.3367 0.05985,-0.64845 0.165109,-0.93544 0.101267,0 0.303512,0.0239 0.606834,0.0717 0.354548,0 0.684136,-0.0478 0.988566,-0.14331 0.152116,-0.0477 0.405147,-0.0477 0.759256,0 0.404889,0.0477 0.809932,0.0716 1.215,0.0716 h 0.22785 0.379751 c 0.15161,-0.0478 0.278007,-0.0716 0.379241,-0.0716 0.35432,0 0.734196,0.0239 1.139761,0.0716 h 1.291152 c 0.606608,-0.0478 1.137591,-0.0716 1.593145,-0.0716 0.45425,-0.0477 0.935712,-0.0239 1.44486,0.0716 0.104345,0.0956 0.133538,0.21517 0.08747,0.35885 l 0.01387,0.43217 c -0.04314,0.24081 -0.05938,0.53048 -0.04862,0.86938 0.06188,0.33993 0.07513,0.7541 0.03947,1.24332 -0.0795,0.73784 -0.08518,1.38124 -0.01638,1.92852 0.06755,0.49984 0.08582,1.07738 0.05445,1.7338 -0.03155,0.66021 -0.03945,1.24744 -0.02351,1.76052 0.06705,0.46374 0.132728,0.87752 0.196996,1.2408 0.06114,0.26019 0.07115,0.57318 0.02983,0.93942 -0.04311,0.31483 -0.05892,0.65687 -0.04731,1.02634 0.01998,0.63611 0.06853,1.32916 0.14594,2.08012 0.131821,0.75579 0.17896,1.38025 0.140662,1.87126 0.0053,0.16413 -0.01307,0.43817 -0.05512,0.8229 l 0.03688,1.1617 0.0426,1.3416 0.03496,1.10117 c 0.07518,0.62564 0.152604,1.31185 0.232334,2.05964 0.08022,0.75241 0.103043,1.45108 0.06795,2.09503 -0.07643,1.12029 -0.122397,2.34053 -0.137505,3.66354 -0.01527,1.33717 -0.0048,2.59614 0.03181,3.77431 l 0.05849,1.88287 c 0.07809,0.63385 0.127292,1.27086 0.147399,1.91105 0.004,0.12842 -0.01828,0.35347 -0.06705,0.67565 0.01003,0.32299 -0.01241,0.54956 -0.0674,0.6792 -1.178261,0.0649 -2.328304,0.0973 -3.449685,0.0973 -1.121382,0 -2.182874,0.0974 -3.185608,0.2924 -0.117576,0.13017 -0.501732,0.16273 -1.152135,0.0976 -0.590981,-0.0651 -1.004427,-0.13013 -1.240472,-0.19515 -0.05907,0 -0.236591,0.065 -0.5328,0.19515 -0.296027,0.0651 -0.561811,0.0326 -0.797063,-0.0976 -0.356609,0.19531 -0.77133,0.26047 -1.24358,0.1953 -0.412896,-0.0651 -0.826711,-0.0651 -1.241759,0 l -0.707461,-0.0977 c -0.29258,-0.13013 -0.765215,-0.13013 -1.418618,0 l -3.892967,-0.19515 c -0.534457,0.065 -1.097221,0.0975 -1.688089,0.0975 -0.587553,-0.065 -1.027168,-0.13004 -1.318956,-0.19501 h -1.328452 -1.505578 c -0.531381,0 -1.035475,0.0325 -1.512461,0.0975 h -1.063162 l -3.641126,0.0975 h -0.443151 c -0.171333,-0.065 -0.316032,-0.0975 -0.434161,-0.0975 -0.04706,-0.12994 -0.09707,-0.22731 -0.150064,-0.29219 l 0.02707,-0.29152 c -0.02885,-0.32315 -0.05463,-0.67768 -0.07733,-1.06333 l 0.10757,-1.15005 c 0.1818,-0.69776 0.223201,-1.45463 0.125419,-2.26952 -0.03943,-0.80969 -0.024,-1.58338 0.04582,-2.32168 0.0521,-0.5509 0.0754,-1.09939 0.0701,-1.64548 l 0.162638,-1.71369 0.04243,-0.44708 c 0.01693,-0.17837 0.0056,-0.35649 -0.03387,-0.53436 0.02255,-0.23675 0.0732,-0.47305 0.151861,-0.7089 l 0.306207,-3.22647 c 0.152851,-1.02835 0.309741,-2.10444 0.470508,-3.22688 l 0.164584,-1.7468 c 0.07238,-0.76822 0.119858,-1.55866 0.142661,-2.37084 0.02265,-0.80663 0.09606,-1.58114 0.219774,-2.32412 0.03995,-0.42244 0.04574,-0.76455 0.01755,-1.02703 -0.02813,-0.26189 0.03311,-0.62755 0.183213,-1.09599 0.07727,-0.25943 0.10169,-0.51827 0.07343,-0.77654 l 0.08021,-0.8482 0.115618,-1.22266 c -0.02816,-0.25308 0.03373,-0.63166 0.185115,-1.13448 0.07074,-0.20051 0.0872,-0.37566 0.04952,-0.52558 l 0.06333,-0.67218 c 0.03269,-0.34698 0.03955,-0.69289 0.02071,-1.03775 0.03251,-0.34379 0.037,-0.6621 0.01358,-0.95512 0.02312,-0.2436 0.07632,-0.53522 0.159437,-0.87449 0.08287,-0.33824 0.135553,-0.62734 0.158198,-0.86769 0.156784,-0.048 0.389615,-0.096 0.698443,-0.14397 0.363706,-0.0959 0.697538,-0.14377 1.001732,-0.14377 h 2.889838 c 0.811182,0 1.878984,-0.0479 3.202547,-0.14359 0.306767,-0.0478 0.661353,-0.0478 1.063988,0 0.453486,0.0478 0.856479,0.0957 1.208947,0.14359 0.04368,0.14378 0.03548,0.31175 -0.02472,0.50403 l -0.02127,0.43384 c 0.03911,0.24176 0.04807,0.5811 0.02676,1.01892 -0.0214,0.43953 -0.06497,0.80712 -0.130759,1.10206 z"
           style="font-family:'Kirang Haerang';-inkscape-font-specification:'Kirang Haerang';fill:#ffffff;stroke:#000000;stroke-width:0.352113;stroke-dasharray:none"
           id="path16435" />
        <path
           d="m 76.193147,217.92585 c -0.01447,-0.42802 -0.0052,-1.15284 0.02765,-2.17012 0.02972,-1.09418 0.0053,-1.80523 -0.07303,-2.13866 -0.08095,-0.41571 -0.06027,-0.78884 0.06165,-1.11972 0.118767,-0.41254 0.310924,-0.61837 0.576724,-0.61837 0.19935,0 0.666097,0.0411 1.400554,0.12345 0.797738,0 1.624853,-0.0823 2.480618,-0.24682 0.394319,-0.0822 0.958746,-0.0822 1.693759,0 0.797062,0 1.59664,0.0411 2.399074,0.12337 0.7974,0 1.597656,0.0411 2.401108,0.12345 0.797738,0 1.459344,-0.0412 1.984595,-0.12345 0.325659,-0.0823 0.544905,0.16464 0.658213,0.74236 0.107012,0.49702 0.137396,0.8709 0.09082,1.12068 -0.119994,1.00342 -0.109354,2.39438 0.03383,4.18383 l 0.205527,1.29152 0.05223,0.64998 c 0.06999,0.87105 0.194917,1.57155 0.374932,2.09907 0.02143,0.26446 0.01562,0.61779 -0.01754,1.06063 -0.03325,0.44413 -0.02125,1.02346 0.03629,1.73953 l 0.804268,10.0087 c -0.03327,0.47934 0.0079,1.44244 0.124386,2.8982 0.18234,1.37088 0.29396,2.30789 0.333767,2.80327 0.10408,1.29522 0.241734,2.55056 0.413293,3.76496 0.246971,1.22357 0.35121,2.50801 0.311067,3.85465 -0.0573,1.14819 -0.03975,2.30446 0.05342,3.46889 0.08527,1.06574 0.251412,2.19217 0.499321,3.38047 0.09384,0.21697 0.154012,0.48858 0.180473,0.81509 l 0.05308,0.65493 c -0.150512,0.98721 -0.211576,2.14632 -0.182356,3.48083 0.02052,1.2326 -0.01124,2.30435 -0.09572,3.21213 0.0089,0.1138 -0.103842,0.17073 -0.338382,0.17073 -0.303981,0.11393 -0.916822,0.28496 -1.839291,0.51326 -0.931634,0.11427 -1.7187,0.0571 -2.360093,-0.17125 -0.953363,-0.22808 -1.898649,-0.34201 -2.836808,-0.34201 -0.866192,-0.11384 -1.770872,-0.22761 -2.714002,-0.34131 h -5.857651 c -0.699503,0.1137 -1.401063,0.17058 -2.104331,0.17058 -0.705984,-0.11374 -1.371209,-0.17058 -1.996025,-0.17058 -0.778993,0.1137 -1.162031,0.56924 -1.148679,1.36936 l 0.0638,3.82292 c 0.01568,0.93961 0.07528,2.12129 0.179385,3.54995 0.01633,0.95893 -0.0085,1.8627 -0.07492,2.71042 l 0.05521,3.3083 c 0.0041,0.24752 0.129586,0.43338 0.376491,0.55741 0.328703,0.1241 0.65642,0.18619 0.982981,0.18619 0.731968,-0.12415 1.42567,-0.12415 2.081827,0 0.734762,0 1.553065,0.0621 2.45538,0.18637 h 0.857669 c 0.335794,0.24882 0.785361,0.24882 1.347765,0 0.643249,-0.24846 1.209331,-0.37256 1.698918,-0.37256 h 2.203139 c 1.060771,0 2.373391,0.1241 3.939489,0.37256 1.886967,0.12437 3.766323,0.12437 5.636112,0 1.460219,-0.12427 2.725862,-0.12427 3.798248,0 0.419444,0.12437 1.026655,0.0622 1.820587,-0.18637 0.874421,-0.24822 1.433511,-0.3722 1.678171,-0.3722 0.18741,0.24805 0.2995,0.55858 0.33615,0.93193 l 0.092,0.93679 c 0.0246,0.25064 0.0143,0.56444 -0.0309,0.94171 l 0.11117,1.13658 c 0.1821,1.01634 0.35524,2.35899 0.51977,4.03517 0.23695,1.561 0.35947,2.8063 0.36606,3.7293 -0.006,0.79484 0.0652,1.52646 0.21536,2.19409 0.23553,0.67003 0.28192,1.14049 0.13839,1.40987 -0.0586,0.26975 -0.2517,0.47233 -0.57929,0.60751 h -0.7667 -1.916761 c -0.778489,-0.13518 -1.374596,-0.13518 -1.788969,0 -1.596905,0.27063 -3.419606,0.4061 -5.466367,0.4061 -2.04676,0 -3.845733,-0.13547 -5.395231,-0.4061 -0.859067,-0.13518 -2.008702,-0.13518 -3.450155,0 -1.363025,0 -3.157087,-0.13518 -5.379773,-0.40524 h -0.25529 c -0.758034,0.27006 -1.522636,0.33764 -2.292563,0.20251 -0.76937,-0.13503 -1.535378,-0.13503 -2.298854,0 l -3.316575,0.40566 c -0.170471,0 -0.382963,0.0677 -0.637614,0.20317 -0.170563,0 -0.384248,-0.0677 -0.640916,-0.20317 h -2.301354 c -0.767118,0 -1.533975,-0.0677 -2.300155,-0.20293 -0.681513,0 -1.15066,0.0676 -1.407582,0.20293 -0.257108,0.13542 -0.554784,0.0677 -0.892521,-0.20293 -0.342512,0.13526 -0.643579,0.33835 -0.903299,0.60949 -0.25804,0.13571 -0.514117,0.13571 -0.767953,0 -0.936029,-0.13562 -1.872838,-0.20339 -2.810937,-0.20339 H 54.472908 51.53069 c -1.279225,0 -2.561565,0.0678 -3.847719,0.20339 -1.279922,0 -2.594866,-0.13562 -3.943367,-0.40656 l -7.255369,-0.40566 c -1.191999,0 -2.432378,0.0676 -3.721839,0.20273 h -4.089073 c -0.511134,0 -0.774659,-0.33776 -0.790532,-1.01143 l 0.08276,-0.80521 c 0.125927,-0.40129 0.22294,-0.935 0.291058,-1.59998 0.06788,-0.66261 0.10021,-1.38874 0.0972,-2.17763 0.01045,-0.91611 0.0626,-1.82767 0.156136,-2.73471 l 0.179084,-1.73665 c 0.148642,-0.63902 0.242391,-1.14862 0.281576,-1.52988 -0.03031,-0.50709 -0.06053,-1.01276 -0.09067,-1.51703 0.05203,-0.50286 0.172948,-0.87908 0.362673,-1.12945 0.189462,-0.25004 0.652434,-0.37492 1.389114,-0.37492 0.830606,-0.1248 1.438364,-0.0624 1.824112,0.18736 0.386286,0.25011 1.077205,0.3127 2.071835,0.18756 1.075847,-0.12506 1.81823,-0.18756 2.227711,-0.18756 h 2.211195 c 0.828138,-0.12493 1.528477,-0.18736 2.101451,-0.18736 1.145947,0 2.083259,0.0624 2.812316,0.18736 0.81896,0 1.682453,-0.0625 2.590004,-0.18736 0.327414,0 0.699056,-0.0624 1.114711,-0.18717 0.497147,-0.12466 0.990895,-0.18696 1.481503,-0.18696 l 0.972816,0.18696 H 51.7574 c 0.577479,-0.12466 1.149954,-0.12466 1.718024,0 h 1.349875 c 0.576412,-0.12466 1.068888,-0.18696 1.477728,-0.18696 h 2.453039 l 0.252749,-0.37336 0.03699,-1.85514 c -0.04669,-1.71419 -0.0161,-3.23084 0.09082,-4.5548 l 0.04277,-2.14516 c 0.102999,-1.18049 0.161125,-2.11915 0.174856,-2.81984 l 0.05438,-2.77467 c -0.07164,-0.34371 -0.144282,-0.62961 -0.21796,-0.85799 0.0046,-0.22808 -0.107985,-0.45586 -0.3376,-0.68332 -2.261785,-0.11363 -4.36984,-0.11363 -6.326264,0 H 52.40964 c -0.854276,-0.11363 -1.629936,-0.22718 -2.327056,-0.34065 -0.696659,-0.11339 -1.476643,-0.11339 -2.340729,0 h -1.2874 c -0.46146,-0.11339 -0.92945,-0.11339 -1.404437,0 l -4.967412,0.68196 c -0.634314,0.11393 -1.10355,0.11393 -1.407238,0 -0.225333,-0.11384 -0.627168,-0.45493 -1.204177,-1.02192 -0.195565,-0.45223 -0.240548,-1.29695 -0.135909,-2.52832 0.132088,-1.55438 0.229298,-3.14932 0.292073,-4.78347 0.138076,-1.61832 0.23705,-3.22105 0.297484,-4.80841 l 0.281349,-3.28439 c 0.09693,-1.13156 0.156237,-2.25529 0.178301,-3.37128 l 0.296786,-3.4508 c 0.101747,-1.18304 0.234725,-2.3086 0.398662,-3.3778 l 0.234452,-2.73692 c 0.144481,-0.85447 0.240573,-1.56298 0.288735,-2.12747 0.07192,-0.84291 0.131931,-1.95971 0.180006,-3.34446 l 0.291956,-3.40822 0.899368,-11.66846 c 0.02143,-0.24915 0.07616,-0.49787 0.164103,-0.74617 l 0.262943,-0.74236 c 0.691685,-0.32874 1.166292,-0.45182 1.425101,-0.36978 0.331828,0 0.723646,0.0821 1.175836,0.24641 0.458828,0.0822 1.026557,0.0411 1.702418,-0.12326 h 1.195088 c 0.403682,-0.0821 0.807136,-0.16417 1.210362,-0.2462 h 1.09457 c 0.535328,-0.082 1.034962,-0.12294 1.499129,-0.12294 0.530476,0 0.992606,0.041 1.386555,0.12294 h 0.995064 c 0.331688,0 0.6948,0.041 1.089505,0.12305 0.394927,0.0821 0.687287,0.24641 0.877153,0.49323 -0.01256,0.32976 -0.06004,0.70163 -0.142596,1.11594 l -0.07705,2.00512 c -0.02267,0.59001 -0.0808,1.2248 -0.174633,1.90493 -0.16205,0.68327 -0.222942,1.36969 -0.181974,2.0593 l 0.124051,2.08811 -0.04054,1.05504 c 0.05532,0.35334 0.04517,0.61889 -0.03059,0.79618 -0.162178,0.62214 -0.250502,1.11278 -0.264496,1.4706 0.05539,0.35867 0.07266,0.8082 0.05168,1.34939 -0.01052,0.27131 0.08881,0.40715 0.298003,0.40715 h 0.627575 c 0.282072,-0.0906 0.527594,-0.13583 0.736693,-0.13583 h 2.718282 0.418197 c 0.21112,-0.0905 0.420157,-0.0905 0.627296,0 0.696996,0 1.462959,0.0453 2.29826,0.13583 0.836767,0 1.638302,0.0453 2.404947,0.13597 h 0.627854 c 0.209541,-0.0907 0.418861,-0.13597 0.628052,-0.13597 0.557778,-0.18109 1.115291,-0.18109 1.673533,0 h 2.614896 1.778129 c 0.697305,0 1.361816,0.0906 1.994095,0.27205 0.490954,0.0908 0.806365,0.1362 0.946012,0.1362 0.137065,-0.0908 0.48608,-0.0908 1.047356,0 0.418942,0 0.6618,-0.0454 0.728545,-0.1362 l -0.03669,-1.08527 -0.05002,-1.47974 c 0.04799,-0.62343 0.05528,-1.42123 0.02218,-2.39062 -0.03289,-0.9632 -0.108525,-2.18019 -0.226196,-3.64476 z m -22.098926,22.10499 -0.07894,2.09164 -0.03986,1.05613 -0.04587,1.21553 c -0.01537,0.40722 -0.0034,1.07114 0.0362,1.99492 0.06667,0.206 0.05708,0.46386 -0.02894,0.77383 l -0.02325,0.62173 c 0.813835,0.20776 1.521701,0.25975 2.122538,0.1558 0.675111,-0.10388 1.385725,-0.1558 2.132165,-0.1558 0.298575,0 1.529176,0.0519 3.692833,0.1558 2.165704,0 4.630071,-0.0519 7.391786,-0.1558 1.267558,-0.10379 2.612537,-1e-5 4.037574,0.31174 1.425031,0.20817 2.661731,0.31235 3.70874,0.31235 0.142579,-0.2083 0.212043,-0.36434 0.208529,-0.46829 -0.02453,-0.7258 -0.101727,-1.91123 -0.23068,-3.54628 l -0.126095,-3.76847 -0.10856,-3.24441 h -3.252142 c -1.08597,-0.0973 -2.13596,-0.24312 -3.149537,-0.43734 h -0.43302 c -0.359806,0.0971 -0.7203,0.14565 -1.081316,0.14565 h -1.083049 -2.815926 c -0.938642,0 -1.877759,0.0486 -2.817784,0.14578 h -5.526093 c -0.21671,0 -0.471078,0.0486 -0.763241,0.14591 H 55.06145 c -0.433619,0 -0.757013,-0.0487 -0.970086,-0.14591 l -0.0558,1.46518 c 0.05769,0.39301 0.07729,0.83631 0.05865,1.33031 z"
           style="font-family:'Kirang Haerang';-inkscape-font-specification:'Kirang Haerang';fill:#ffffff;stroke:#000000;stroke-width:0.352113;stroke-dasharray:none"
           id="path16437" />
      </g>
    </g>
    <text
       xml:space="preserve"
       style="font-style:normal;font-variant:normal;font-weight:normal;font-stretch:normal;font-size:21.7651px;font-family:'Kirang Haerang';-inkscape-font-specification:'Kirang Haerang';text-align:center;text-anchor:middle;opacity:1;fill:#000000;stroke:#000000;stroke-width:0;stroke-dasharray:none"
       x="-390.14029"
       y="19.572212"
       id="text16973"
       transform="rotate(-90)"><tspan
         sodipodi:role="line"
         id="tspan16971"
         style="font-style:normal;font-variant:normal;font-weight:500;font-stretch:normal;font-family:scientifica;-inkscape-font-specification:'scientifica Medium';text-align:start;text-anchor:start;fill:#000000;stroke:#000000;stroke-width:0;stroke-dasharray:none"
         x="-390.14029"
         y="19.572212">pabo</tspan></text>
  </g>
</svg>
